<svg data-v-fde0c5aa="" xmlns="http://www.w3.org/2000/svg" viewBox="0 0 300 300" class="iconLeftSlogan"><!----><defs data-v-fde0c5aa=""><!----></defs><rect data-v-fde0c5aa="" fill="#EAE5FE" x="0" y="0" width="300px" height="300px" class="logo-background-square"></rect><defs data-v-fde0c5aa=""><!----></defs><g data-v-fde0c5aa="" id="1daae10c-8f02-47e8-818c-862d49668c13" fill="#150355" transform="matrix(3.668217351942332,0,0,3.668217351942332,138.1418201194556,109.31536094144838)"><path d="M7.46 14L8.92 14L4.58 4.06L4.38 4.06L0.06 14L1.53 14L2.39 11.91L6.59 11.91ZM2.93 10.63L4.49 6.85L6.06 10.63ZM12.11 4.13C12.45 4.13 12.71 4.24 12.96 4.37L12.96 3.02C12.67 2.88 12.24 2.73 11.75 2.73C10.79 2.73 10.21 3.36 10.21 4.45L10.21 7L9.31 7L9.31 8.26L10.21 8.26L10.21 14L11.54 14L11.54 8.26L12.96 8.26L12.96 7L11.54 7L11.54 4.77C11.54 4.34 11.77 4.13 12.11 4.13ZM19.05 14L20.57 14L18.19 10.05C19.46 9.62 20.17 8.50 20.17 7.22C20.17 5.67 19.00 4.20 17.00 4.20L14.34 4.20L14.34 14L15.67 14L15.67 10.23L16.90 10.23ZM15.67 5.50L16.94 5.50C18.06 5.50 18.83 6.20 18.83 7.22C18.83 8.23 18.06 8.95 16.94 8.95L15.67 8.95ZM22.08 14L23.41 14L23.41 4.20L22.08 4.20ZM28.31 4.20L25.73 4.20L25.73 14L28.31 14C31.39 14 33.22 11.79 33.22 9.07C33.22 6.37 31.39 4.20 28.31 4.20ZM28.32 12.70L27.06 12.70L27.06 5.50L28.32 5.50C30.56 5.50 31.88 7.07 31.88 9.07C31.88 11.03 30.56 12.70 28.32 12.70Z"></path></g><defs data-v-fde0c5aa=""><linearGradient data-v-fde0c5aa="" gradientTransform="rotate(25)" id="cbb6e2da-973b-43ad-9d83-47c636df9535" x1="0%" y1="0%" x2="100%" y2="0%"><stop data-v-fde0c5aa="" offset="0%" stop-color="#410FF8" stop-opacity="1"></stop><stop data-v-fde0c5aa="" offset="100%" stop-color="#410FF8" stop-opacity="1"></stop></linearGradient></defs><g data-v-fde0c5aa="" id="24d956be-2f74-44d5-8b9c-430e7e0267b1" stroke="none" fill="url(#cbb6e2da-973b-43ad-9d83-47c636df9535)" transform="matrix(0.9868429268129227,0,0,0.9868429268129227,33.09209951230954,100.65785365935386)"><path d="M9.5 30.75A1.25 1.25 0 0 1 8.25 32 1.25 1.25 0 0 1 7 30.75a1.25 1.25 0 0 1 1.25-1.25 1.25 1.25 0 0 1 1.25 1.25zM9.5 34.25a1.25 1.25 0 0 1-1.25 1.25A1.25 1.25 0 0 1 7 34.25 1.25 1.25 0 0 1 8.25 33a1.25 1.25 0 0 1 1.25 1.25zM9.5 37.75A1.25 1.25 0 0 1 8.25 39 1.25 1.25 0 0 1 7 37.75a1.25 1.25 0 0 1 1.25-1.25 1.25 1.25 0 0 1 1.25 1.25zM13 23.75A1.25 1.25 0 0 1 11.75 25a1.25 1.25 0 0 1-1.25-1.25 1.25 1.25 0 0 1 1.25-1.25A1.25 1.25 0 0 1 13 23.75zM13 27.25a1.25 1.25 0 0 1-1.25 1.25 1.25 1.25 0 0 1-1.25-1.25A1.25 1.25 0 0 1 11.75 26 1.25 1.25 0 0 1 13 27.25zM13 30.75A1.25 1.25 0 0 1 11.75 32a1.25 1.25 0 0 1-1.25-1.25 1.25 1.25 0 0 1 1.25-1.25A1.25 1.25 0 0 1 13 30.75zM13 34.25a1.25 1.25 0 0 1-1.25 1.25 1.25 1.25 0 0 1-1.25-1.25A1.25 1.25 0 0 1 11.75 33 1.25 1.25 0 0 1 13 34.25zM13 37.75A1.25 1.25 0 0 1 11.75 39a1.25 1.25 0 0 1-1.25-1.25 1.25 1.25 0 0 1 1.25-1.25A1.25 1.25 0 0 1 13 37.75zM13 41.25a1.25 1.25 0 0 1-1.25 1.25 1.25 1.25 0 0 1-1.25-1.25A1.25 1.25 0 0 1 11.75 40 1.25 1.25 0 0 1 13 41.25zM16.5 20.25a1.25 1.25 0 0 1-1.25 1.25A1.25 1.25 0 0 1 14 20.25 1.25 1.25 0 0 1 15.25 19a1.25 1.25 0 0 1 1.25 1.25zM16.5 23.75A1.25 1.25 0 0 1 15.25 25 1.25 1.25 0 0 1 14 23.75a1.25 1.25 0 0 1 1.25-1.25 1.25 1.25 0 0 1 1.25 1.25zM16.5 27.25a1.25 1.25 0 0 1-1.25 1.25A1.25 1.25 0 0 1 14 27.25 1.25 1.25 0 0 1 15.25 26a1.25 1.25 0 0 1 1.25 1.25zM16.5 30.75A1.25 1.25 0 0 1 15.25 32 1.25 1.25 0 0 1 14 30.75a1.25 1.25 0 0 1 1.25-1.25 1.25 1.25 0 0 1 1.25 1.25zM16.5 34.25a1.25 1.25 0 0 1-1.25 1.25A1.25 1.25 0 0 1 14 34.25 1.25 1.25 0 0 1 15.25 33a1.25 1.25 0 0 1 1.25 1.25zM16.5 37.75A1.25 1.25 0 0 1 15.25 39 1.25 1.25 0 0 1 14 37.75a1.25 1.25 0 0 1 1.25-1.25 1.25 1.25 0 0 1 1.25 1.25zM16.5 41.25a1.25 1.25 0 0 1-1.25 1.25A1.25 1.25 0 0 1 14 41.25 1.25 1.25 0 0 1 15.25 40a1.25 1.25 0 0 1 1.25 1.25zM16.5 44.75A1.25 1.25 0 0 1 15.25 46 1.25 1.25 0 0 1 14 44.75a1.25 1.25 0 0 1 1.25-1.25 1.25 1.25 0 0 1 1.25 1.25zM20 16.75A1.25 1.25 0 0 1 18.75 18a1.25 1.25 0 0 1-1.25-1.25 1.25 1.25 0 0 1 1.25-1.25A1.25 1.25 0 0 1 20 16.75zM20 20.25a1.25 1.25 0 0 1-1.25 1.25 1.25 1.25 0 0 1-1.25-1.25A1.25 1.25 0 0 1 18.75 19 1.25 1.25 0 0 1 20 20.25zM20 23.75A1.25 1.25 0 0 1 18.75 25a1.25 1.25 0 0 1-1.25-1.25 1.25 1.25 0 0 1 1.25-1.25A1.25 1.25 0 0 1 20 23.75zM20 27.25a1.25 1.25 0 0 1-1.25 1.25 1.25 1.25 0 0 1-1.25-1.25A1.25 1.25 0 0 1 18.75 26 1.25 1.25 0 0 1 20 27.25zM20 30.75A1.25 1.25 0 0 1 18.75 32a1.25 1.25 0 0 1-1.25-1.25 1.25 1.25 0 0 1 1.25-1.25A1.25 1.25 0 0 1 20 30.75zM20 34.25a1.25 1.25 0 0 1-1.25 1.25 1.25 1.25 0 0 1-1.25-1.25A1.25 1.25 0 0 1 18.75 33 1.25 1.25 0 0 1 20 34.25zM20 37.75A1.25 1.25 0 0 1 18.75 39a1.25 1.25 0 0 1-1.25-1.25 1.25 1.25 0 0 1 1.25-1.25A1.25 1.25 0 0 1 20 37.75zM20 41.25a1.25 1.25 0 0 1-1.25 1.25 1.25 1.25 0 0 1-1.25-1.25A1.25 1.25 0 0 1 18.75 40 1.25 1.25 0 0 1 20 41.25zM20 44.75A1.25 1.25 0 0 1 18.75 46a1.25 1.25 0 0 1-1.25-1.25 1.25 1.25 0 0 1 1.25-1.25A1.25 1.25 0 0 1 20 44.75zM20 48.25a1.25 1.25 0 0 1-1.25 1.25 1.25 1.25 0 0 1-1.25-1.25A1.25 1.25 0 0 1 18.75 47 1.25 1.25 0 0 1 20 48.25zM23.5 13.25a1.25 1.25 0 0 1-1.25 1.25A1.25 1.25 0 0 1 21 13.25 1.25 1.25 0 0 1 22.25 12a1.25 1.25 0 0 1 1.25 1.25zM23.5 16.75A1.25 1.25 0 0 1 22.25 18 1.25 1.25 0 0 1 21 16.75a1.25 1.25 0 0 1 1.25-1.25 1.25 1.25 0 0 1 1.25 1.25zM23.5 20.25a1.25 1.25 0 0 1-1.25 1.25A1.25 1.25 0 0 1 21 20.25 1.25 1.25 0 0 1 22.25 19a1.25 1.25 0 0 1 1.25 1.25zM23.5 23.75A1.25 1.25 0 0 1 22.25 25 1.25 1.25 0 0 1 21 23.75a1.25 1.25 0 0 1 1.25-1.25 1.25 1.25 0 0 1 1.25 1.25zM23.5 27.25a1.25 1.25 0 0 1-1.25 1.25A1.25 1.25 0 0 1 21 27.25 1.25 1.25 0 0 1 22.25 26a1.25 1.25 0 0 1 1.25 1.25zM23.5 30.75A1.25 1.25 0 0 1 22.25 32 1.25 1.25 0 0 1 21 30.75a1.25 1.25 0 0 1 1.25-1.25 1.25 1.25 0 0 1 1.25 1.25zM23.5 34.25a1.25 1.25 0 0 1-1.25 1.25A1.25 1.25 0 0 1 21 34.25 1.25 1.25 0 0 1 22.25 33a1.25 1.25 0 0 1 1.25 1.25zM23.5 37.75A1.25 1.25 0 0 1 22.25 39 1.25 1.25 0 0 1 21 37.75a1.25 1.25 0 0 1 1.25-1.25 1.25 1.25 0 0 1 1.25 1.25zM23.5 41.25a1.25 1.25 0 0 1-1.25 1.25A1.25 1.25 0 0 1 21 41.25 1.25 1.25 0 0 1 22.25 40a1.25 1.25 0 0 1 1.25 1.25zM23.5 44.75A1.25 1.25 0 0 1 22.25 46 1.25 1.25 0 0 1 21 44.75a1.25 1.25 0 0 1 1.25-1.25 1.25 1.25 0 0 1 1.25 1.25zM27 9.75A1.25 1.25 0 0 1 25.75 11a1.25 1.25 0 0 1-1.25-1.25 1.25 1.25 0 0 1 1.25-1.25A1.25 1.25 0 0 1 27 9.75zM27 13.25a1.25 1.25 0 0 1-1.25 1.25 1.25 1.25 0 0 1-1.25-1.25A1.25 1.25 0 0 1 25.75 12 1.25 1.25 0 0 1 27 13.25zM27 16.75A1.25 1.25 0 0 1 25.75 18a1.25 1.25 0 0 1-1.25-1.25 1.25 1.25 0 0 1 1.25-1.25A1.25 1.25 0 0 1 27 16.75zM27 20.25a1.25 1.25 0 0 1-1.25 1.25 1.25 1.25 0 0 1-1.25-1.25A1.25 1.25 0 0 1 25.75 19 1.25 1.25 0 0 1 27 20.25zM27 23.75A1.25 1.25 0 0 1 25.75 25a1.25 1.25 0 0 1-1.25-1.25 1.25 1.25 0 0 1 1.25-1.25A1.25 1.25 0 0 1 27 23.75zM27 27.25a1.25 1.25 0 0 1-1.25 1.25 1.25 1.25 0 0 1-1.25-1.25A1.25 1.25 0 0 1 25.75 26 1.25 1.25 0 0 1 27 27.25zM27 30.75A1.25 1.25 0 0 1 25.75 32a1.25 1.25 0 0 1-1.25-1.25 1.25 1.25 0 0 1 1.25-1.25A1.25 1.25 0 0 1 27 30.75zM27 34.25a1.25 1.25 0 0 1-1.25 1.25 1.25 1.25 0 0 1-1.25-1.25A1.25 1.25 0 0 1 25.75 33 1.25 1.25 0 0 1 27 34.25zM27 37.75A1.25 1.25 0 0 1 25.75 39a1.25 1.25 0 0 1-1.25-1.25 1.25 1.25 0 0 1 1.25-1.25A1.25 1.25 0 0 1 27 37.75zM27 41.25a1.25 1.25 0 0 1-1.25 1.25 1.25 1.25 0 0 1-1.25-1.25A1.25 1.25 0 0 1 25.75 40 1.25 1.25 0 0 1 27 41.25zM27 44.75A1.25 1.25 0 0 1 25.75 46a1.25 1.25 0 0 1-1.25-1.25 1.25 1.25 0 0 1 1.25-1.25A1.25 1.25 0 0 1 27 44.75zM30.5 9.75A1.25 1.25 0 0 1 29.25 11 1.25 1.25 0 0 1 28 9.75a1.25 1.25 0 0 1 1.25-1.25 1.25 1.25 0 0 1 1.25 1.25zM30.5 13.25a1.25 1.25 0 0 1-1.25 1.25A1.25 1.25 0 0 1 28 13.25 1.25 1.25 0 0 1 29.25 12a1.25 1.25 0 0 1 1.25 1.25zM30.5 16.75A1.25 1.25 0 0 1 29.25 18 1.25 1.25 0 0 1 28 16.75a1.25 1.25 0 0 1 1.25-1.25 1.25 1.25 0 0 1 1.25 1.25zM30.5 20.25a1.25 1.25 0 0 1-1.25 1.25A1.25 1.25 0 0 1 28 20.25 1.25 1.25 0 0 1 29.25 19a1.25 1.25 0 0 1 1.25 1.25zM30.5 23.75A1.25 1.25 0 0 1 29.25 25 1.25 1.25 0 0 1 28 23.75a1.25 1.25 0 0 1 1.25-1.25 1.25 1.25 0 0 1 1.25 1.25zM30.5 27.25a1.25 1.25 0 0 1-1.25 1.25A1.25 1.25 0 0 1 28 27.25 1.25 1.25 0 0 1 29.25 26a1.25 1.25 0 0 1 1.25 1.25zM30.5 30.75A1.25 1.25 0 0 1 29.25 32 1.25 1.25 0 0 1 28 30.75a1.25 1.25 0 0 1 1.25-1.25 1.25 1.25 0 0 1 1.25 1.25zM30.5 34.25a1.25 1.25 0 0 1-1.25 1.25A1.25 1.25 0 0 1 28 34.25 1.25 1.25 0 0 1 29.25 33a1.25 1.25 0 0 1 1.25 1.25zM30.5 37.75A1.25 1.25 0 0 1 29.25 39 1.25 1.25 0 0 1 28 37.75a1.25 1.25 0 0 1 1.25-1.25 1.25 1.25 0 0 1 1.25 1.25zM30.5 41.25a1.25 1.25 0 0 1-1.25 1.25A1.25 1.25 0 0 1 28 41.25 1.25 1.25 0 0 1 29.25 40a1.25 1.25 0 0 1 1.25 1.25zM30.5 44.75A1.25 1.25 0 0 1 29.25 46 1.25 1.25 0 0 1 28 44.75a1.25 1.25 0 0 1 1.25-1.25 1.25 1.25 0 0 1 1.25 1.25zM34 9.75A1.25 1.25 0 0 1 32.75 11a1.25 1.25 0 0 1-1.25-1.25 1.25 1.25 0 0 1 1.25-1.25A1.25 1.25 0 0 1 34 9.75zM34 13.25a1.25 1.25 0 0 1-1.25 1.25 1.25 1.25 0 0 1-1.25-1.25A1.25 1.25 0 0 1 32.75 12 1.25 1.25 0 0 1 34 13.25zM34 16.75A1.25 1.25 0 0 1 32.75 18a1.25 1.25 0 0 1-1.25-1.25 1.25 1.25 0 0 1 1.25-1.25A1.25 1.25 0 0 1 34 16.75zM34 20.25a1.25 1.25 0 0 1-1.25 1.25 1.25 1.25 0 0 1-1.25-1.25A1.25 1.25 0 0 1 32.75 19 1.25 1.25 0 0 1 34 20.25zM34 23.75A1.25 1.25 0 0 1 32.75 25a1.25 1.25 0 0 1-1.25-1.25 1.25 1.25 0 0 1 1.25-1.25A1.25 1.25 0 0 1 34 23.75zM34 27.25a1.25 1.25 0 0 1-1.25 1.25 1.25 1.25 0 0 1-1.25-1.25A1.25 1.25 0 0 1 32.75 26 1.25 1.25 0 0 1 34 27.25zM34 30.75A1.25 1.25 0 0 1 32.75 32a1.25 1.25 0 0 1-1.25-1.25 1.25 1.25 0 0 1 1.25-1.25A1.25 1.25 0 0 1 34 30.75zM34 34.25a1.25 1.25 0 0 1-1.25 1.25 1.25 1.25 0 0 1-1.25-1.25A1.25 1.25 0 0 1 32.75 33 1.25 1.25 0 0 1 34 34.25zM34 37.75A1.25 1.25 0 0 1 32.75 39a1.25 1.25 0 0 1-1.25-1.25 1.25 1.25 0 0 1 1.25-1.25A1.25 1.25 0 0 1 34 37.75zM34 41.25a1.25 1.25 0 0 1-1.25 1.25 1.25 1.25 0 0 1-1.25-1.25A1.25 1.25 0 0 1 32.75 40 1.25 1.25 0 0 1 34 41.25zM34 44.75A1.25 1.25 0 0 1 32.75 46a1.25 1.25 0 0 1-1.25-1.25 1.25 1.25 0 0 1 1.25-1.25A1.25 1.25 0 0 1 34 44.75zM37.5 6.25a1.25 1.25 0 0 1-1.25 1.25A1.25 1.25 0 0 1 35 6.25 1.25 1.25 0 0 1 36.25 5a1.25 1.25 0 0 1 1.25 1.25zM37.5 9.75A1.25 1.25 0 0 1 36.25 11 1.25 1.25 0 0 1 35 9.75a1.25 1.25 0 0 1 1.25-1.25 1.25 1.25 0 0 1 1.25 1.25zM37.5 13.25a1.25 1.25 0 0 1-1.25 1.25A1.25 1.25 0 0 1 35 13.25 1.25 1.25 0 0 1 36.25 12a1.25 1.25 0 0 1 1.25 1.25zM37.5 16.75A1.25 1.25 0 0 1 36.25 18 1.25 1.25 0 0 1 35 16.75a1.25 1.25 0 0 1 1.25-1.25 1.25 1.25 0 0 1 1.25 1.25zM37.5 20.25a1.25 1.25 0 0 1-1.25 1.25A1.25 1.25 0 0 1 35 20.25 1.25 1.25 0 0 1 36.25 19a1.25 1.25 0 0 1 1.25 1.25zM37.5 23.75A1.25 1.25 0 0 1 36.25 25 1.25 1.25 0 0 1 35 23.75a1.25 1.25 0 0 1 1.25-1.25 1.25 1.25 0 0 1 1.25 1.25zM37.5 27.25a1.25 1.25 0 0 1-1.25 1.25A1.25 1.25 0 0 1 35 27.25 1.25 1.25 0 0 1 36.25 26a1.25 1.25 0 0 1 1.25 1.25zM37.5 30.75A1.25 1.25 0 0 1 36.25 32 1.25 1.25 0 0 1 35 30.75a1.25 1.25 0 0 1 1.25-1.25 1.25 1.25 0 0 1 1.25 1.25zM37.5 34.25a1.25 1.25 0 0 1-1.25 1.25A1.25 1.25 0 0 1 35 34.25 1.25 1.25 0 0 1 36.25 33a1.25 1.25 0 0 1 1.25 1.25zM37.5 37.75A1.25 1.25 0 0 1 36.25 39 1.25 1.25 0 0 1 35 37.75a1.25 1.25 0 0 1 1.25-1.25 1.25 1.25 0 0 1 1.25 1.25zM37.5 41.25a1.25 1.25 0 0 1-1.25 1.25A1.25 1.25 0 0 1 35 41.25 1.25 1.25 0 0 1 36.25 40a1.25 1.25 0 0 1 1.25 1.25zM37.5 44.75A1.25 1.25 0 0 1 36.25 46 1.25 1.25 0 0 1 35 44.75a1.25 1.25 0 0 1 1.25-1.25 1.25 1.25 0 0 1 1.25 1.25zM37.5 48.25a1.25 1.25 0 0 1-1.25 1.25A1.25 1.25 0 0 1 35 48.25 1.25 1.25 0 0 1 36.25 47a1.25 1.25 0 0 1 1.25 1.25zM41 6.25a1.25 1.25 0 0 1-1.25 1.25 1.25 1.25 0 0 1-1.25-1.25A1.25 1.25 0 0 1 39.75 5 1.25 1.25 0 0 1 41 6.25zM41 9.75A1.25 1.25 0 0 1 39.75 11a1.25 1.25 0 0 1-1.25-1.25 1.25 1.25 0 0 1 1.25-1.25A1.25 1.25 0 0 1 41 9.75zM41 13.25a1.25 1.25 0 0 1-1.25 1.25 1.25 1.25 0 0 1-1.25-1.25A1.25 1.25 0 0 1 39.75 12 1.25 1.25 0 0 1 41 13.25zM41 16.75A1.25 1.25 0 0 1 39.75 18a1.25 1.25 0 0 1-1.25-1.25 1.25 1.25 0 0 1 1.25-1.25A1.25 1.25 0 0 1 41 16.75zM41 20.25a1.25 1.25 0 0 1-1.25 1.25 1.25 1.25 0 0 1-1.25-1.25A1.25 1.25 0 0 1 39.75 19 1.25 1.25 0 0 1 41 20.25zM41 23.75A1.25 1.25 0 0 1 39.75 25a1.25 1.25 0 0 1-1.25-1.25 1.25 1.25 0 0 1 1.25-1.25A1.25 1.25 0 0 1 41 23.75zM41 27.25a1.25 1.25 0 0 1-1.25 1.25 1.25 1.25 0 0 1-1.25-1.25A1.25 1.25 0 0 1 39.75 26 1.25 1.25 0 0 1 41 27.25zM41 30.75A1.25 1.25 0 0 1 39.75 32a1.25 1.25 0 0 1-1.25-1.25 1.25 1.25 0 0 1 1.25-1.25A1.25 1.25 0 0 1 41 30.75zM41 34.25a1.25 1.25 0 0 1-1.25 1.25 1.25 1.25 0 0 1-1.25-1.25A1.25 1.25 0 0 1 39.75 33 1.25 1.25 0 0 1 41 34.25zM41 37.75A1.25 1.25 0 0 1 39.75 39a1.25 1.25 0 0 1-1.25-1.25 1.25 1.25 0 0 1 1.25-1.25A1.25 1.25 0 0 1 41 37.75zM41 41.25a1.25 1.25 0 0 1-1.25 1.25 1.25 1.25 0 0 1-1.25-1.25A1.25 1.25 0 0 1 39.75 40 1.25 1.25 0 0 1 41 41.25zM41 44.75A1.25 1.25 0 0 1 39.75 46a1.25 1.25 0 0 1-1.25-1.25 1.25 1.25 0 0 1 1.25-1.25A1.25 1.25 0 0 1 41 44.75zM41 48.25a1.25 1.25 0 0 1-1.25 1.25 1.25 1.25 0 0 1-1.25-1.25A1.25 1.25 0 0 1 39.75 47 1.25 1.25 0 0 1 41 48.25zM41 51.75A1.25 1.25 0 0 1 39.75 53a1.25 1.25 0 0 1-1.25-1.25 1.25 1.25 0 0 1 1.25-1.25A1.25 1.25 0 0 1 41 51.75zM41 55.25a1.25 1.25 0 0 1-1.25 1.25 1.25 1.25 0 0 1-1.25-1.25A1.25 1.25 0 0 1 39.75 54 1.25 1.25 0 0 1 41 55.25zM44.5 6.25a1.25 1.25 0 0 1-1.25 1.25A1.25 1.25 0 0 1 42 6.25 1.25 1.25 0 0 1 43.25 5a1.25 1.25 0 0 1 1.25 1.25zM44.5 9.75A1.25 1.25 0 0 1 43.25 11 1.25 1.25 0 0 1 42 9.75a1.25 1.25 0 0 1 1.25-1.25 1.25 1.25 0 0 1 1.25 1.25zM44.5 13.25a1.25 1.25 0 0 1-1.25 1.25A1.25 1.25 0 0 1 42 13.25 1.25 1.25 0 0 1 43.25 12a1.25 1.25 0 0 1 1.25 1.25zM44.5 16.75A1.25 1.25 0 0 1 43.25 18 1.25 1.25 0 0 1 42 16.75a1.25 1.25 0 0 1 1.25-1.25 1.25 1.25 0 0 1 1.25 1.25zM44.5 20.25a1.25 1.25 0 0 1-1.25 1.25A1.25 1.25 0 0 1 42 20.25 1.25 1.25 0 0 1 43.25 19a1.25 1.25 0 0 1 1.25 1.25zM44.5 23.75A1.25 1.25 0 0 1 43.25 25 1.25 1.25 0 0 1 42 23.75a1.25 1.25 0 0 1 1.25-1.25 1.25 1.25 0 0 1 1.25 1.25zM44.5 27.25a1.25 1.25 0 0 1-1.25 1.25A1.25 1.25 0 0 1 42 27.25 1.25 1.25 0 0 1 43.25 26a1.25 1.25 0 0 1 1.25 1.25zM44.5 30.75A1.25 1.25 0 0 1 43.25 32 1.25 1.25 0 0 1 42 30.75a1.25 1.25 0 0 1 1.25-1.25 1.25 1.25 0 0 1 1.25 1.25zM44.5 34.25a1.25 1.25 0 0 1-1.25 1.25A1.25 1.25 0 0 1 42 34.25 1.25 1.25 0 0 1 43.25 33a1.25 1.25 0 0 1 1.25 1.25zM44.5 37.75A1.25 1.25 0 0 1 43.25 39 1.25 1.25 0 0 1 42 37.75a1.25 1.25 0 0 1 1.25-1.25 1.25 1.25 0 0 1 1.25 1.25zM44.5 41.25a1.25 1.25 0 0 1-1.25 1.25A1.25 1.25 0 0 1 42 41.25 1.25 1.25 0 0 1 43.25 40a1.25 1.25 0 0 1 1.25 1.25zM44.5 44.75A1.25 1.25 0 0 1 43.25 46 1.25 1.25 0 0 1 42 44.75a1.25 1.25 0 0 1 1.25-1.25 1.25 1.25 0 0 1 1.25 1.25zM44.5 48.25a1.25 1.25 0 0 1-1.25 1.25A1.25 1.25 0 0 1 42 48.25 1.25 1.25 0 0 1 43.25 47a1.25 1.25 0 0 1 1.25 1.25zM44.5 51.75A1.25 1.25 0 0 1 43.25 53 1.25 1.25 0 0 1 42 51.75a1.25 1.25 0 0 1 1.25-1.25 1.25 1.25 0 0 1 1.25 1.25zM44.5 55.25a1.25 1.25 0 0 1-1.25 1.25A1.25 1.25 0 0 1 42 55.25 1.25 1.25 0 0 1 43.25 54a1.25 1.25 0 0 1 1.25 1.25zM44.5 58.75A1.25 1.25 0 0 1 43.25 60 1.25 1.25 0 0 1 42 58.75a1.25 1.25 0 0 1 1.25-1.25 1.25 1.25 0 0 1 1.25 1.25zM44.5 62.25a1.25 1.25 0 0 1-1.25 1.25A1.25 1.25 0 0 1 42 62.25 1.25 1.25 0 0 1 43.25 61a1.25 1.25 0 0 1 1.25 1.25zM44.5 65.75A1.25 1.25 0 0 1 43.25 67 1.25 1.25 0 0 1 42 65.75a1.25 1.25 0 0 1 1.25-1.25 1.25 1.25 0 0 1 1.25 1.25zM44.5 69.25a1.25 1.25 0 0 1-1.25 1.25A1.25 1.25 0 0 1 42 69.25 1.25 1.25 0 0 1 43.25 68a1.25 1.25 0 0 1 1.25 1.25zM44.5 72.75A1.25 1.25 0 0 1 43.25 74 1.25 1.25 0 0 1 42 72.75a1.25 1.25 0 0 1 1.25-1.25 1.25 1.25 0 0 1 1.25 1.25zM44.5 76.25a1.25 1.25 0 0 1-1.25 1.25A1.25 1.25 0 0 1 42 76.25 1.25 1.25 0 0 1 43.25 75a1.25 1.25 0 0 1 1.25 1.25zM48 13.25a1.25 1.25 0 0 1-1.25 1.25 1.25 1.25 0 0 1-1.25-1.25A1.25 1.25 0 0 1 46.75 12 1.25 1.25 0 0 1 48 13.25zM48 16.75A1.25 1.25 0 0 1 46.75 18a1.25 1.25 0 0 1-1.25-1.25 1.25 1.25 0 0 1 1.25-1.25A1.25 1.25 0 0 1 48 16.75zM48 20.25a1.25 1.25 0 0 1-1.25 1.25 1.25 1.25 0 0 1-1.25-1.25A1.25 1.25 0 0 1 46.75 19 1.25 1.25 0 0 1 48 20.25zM48 23.75A1.25 1.25 0 0 1 46.75 25a1.25 1.25 0 0 1-1.25-1.25 1.25 1.25 0 0 1 1.25-1.25A1.25 1.25 0 0 1 48 23.75zM48 27.25a1.25 1.25 0 0 1-1.25 1.25 1.25 1.25 0 0 1-1.25-1.25A1.25 1.25 0 0 1 46.75 26 1.25 1.25 0 0 1 48 27.25zM48 30.75A1.25 1.25 0 0 1 46.75 32a1.25 1.25 0 0 1-1.25-1.25 1.25 1.25 0 0 1 1.25-1.25A1.25 1.25 0 0 1 48 30.75zM48 34.25a1.25 1.25 0 0 1-1.25 1.25 1.25 1.25 0 0 1-1.25-1.25A1.25 1.25 0 0 1 46.75 33 1.25 1.25 0 0 1 48 34.25zM48 37.75A1.25 1.25 0 0 1 46.75 39a1.25 1.25 0 0 1-1.25-1.25 1.25 1.25 0 0 1 1.25-1.25A1.25 1.25 0 0 1 48 37.75zM48 41.25a1.25 1.25 0 0 1-1.25 1.25 1.25 1.25 0 0 1-1.25-1.25A1.25 1.25 0 0 1 46.75 40 1.25 1.25 0 0 1 48 41.25zM48 44.75A1.25 1.25 0 0 1 46.75 46a1.25 1.25 0 0 1-1.25-1.25 1.25 1.25 0 0 1 1.25-1.25A1.25 1.25 0 0 1 48 44.75zM48 48.25a1.25 1.25 0 0 1-1.25 1.25 1.25 1.25 0 0 1-1.25-1.25A1.25 1.25 0 0 1 46.75 47 1.25 1.25 0 0 1 48 48.25zM48 51.75A1.25 1.25 0 0 1 46.75 53a1.25 1.25 0 0 1-1.25-1.25 1.25 1.25 0 0 1 1.25-1.25A1.25 1.25 0 0 1 48 51.75zM48 55.25a1.25 1.25 0 0 1-1.25 1.25 1.25 1.25 0 0 1-1.25-1.25A1.25 1.25 0 0 1 46.75 54 1.25 1.25 0 0 1 48 55.25zM48 58.75A1.25 1.25 0 0 1 46.75 60a1.25 1.25 0 0 1-1.25-1.25 1.25 1.25 0 0 1 1.25-1.25A1.25 1.25 0 0 1 48 58.75zM48 62.25a1.25 1.25 0 0 1-1.25 1.25 1.25 1.25 0 0 1-1.25-1.25A1.25 1.25 0 0 1 46.75 61 1.25 1.25 0 0 1 48 62.25zM48 65.75A1.25 1.25 0 0 1 46.75 67a1.25 1.25 0 0 1-1.25-1.25 1.25 1.25 0 0 1 1.25-1.25A1.25 1.25 0 0 1 48 65.75zM48 69.25a1.25 1.25 0 0 1-1.25 1.25 1.25 1.25 0 0 1-1.25-1.25A1.25 1.25 0 0 1 46.75 68 1.25 1.25 0 0 1 48 69.25zM48 72.75A1.25 1.25 0 0 1 46.75 74a1.25 1.25 0 0 1-1.25-1.25 1.25 1.25 0 0 1 1.25-1.25A1.25 1.25 0 0 1 48 72.75zM48 76.25a1.25 1.25 0 0 1-1.25 1.25 1.25 1.25 0 0 1-1.25-1.25A1.25 1.25 0 0 1 46.75 75 1.25 1.25 0 0 1 48 76.25zM48 79.75A1.25 1.25 0 0 1 46.75 81a1.25 1.25 0 0 1-1.25-1.25 1.25 1.25 0 0 1 1.25-1.25A1.25 1.25 0 0 1 48 79.75zM48 83.25a1.25 1.25 0 0 1-1.25 1.25 1.25 1.25 0 0 1-1.25-1.25A1.25 1.25 0 0 1 46.75 82 1.25 1.25 0 0 1 48 83.25zM48 86.75A1.25 1.25 0 0 1 46.75 88a1.25 1.25 0 0 1-1.25-1.25 1.25 1.25 0 0 1 1.25-1.25A1.25 1.25 0 0 1 48 86.75zM51.5 13.25a1.25 1.25 0 0 1-1.25 1.25A1.25 1.25 0 0 1 49 13.25 1.25 1.25 0 0 1 50.25 12a1.25 1.25 0 0 1 1.25 1.25zM51.5 16.75A1.25 1.25 0 0 1 50.25 18 1.25 1.25 0 0 1 49 16.75a1.25 1.25 0 0 1 1.25-1.25 1.25 1.25 0 0 1 1.25 1.25zM51.5 20.25a1.25 1.25 0 0 1-1.25 1.25A1.25 1.25 0 0 1 49 20.25 1.25 1.25 0 0 1 50.25 19a1.25 1.25 0 0 1 1.25 1.25zM51.5 23.75A1.25 1.25 0 0 1 50.25 25 1.25 1.25 0 0 1 49 23.75a1.25 1.25 0 0 1 1.25-1.25 1.25 1.25 0 0 1 1.25 1.25zM51.5 27.25a1.25 1.25 0 0 1-1.25 1.25A1.25 1.25 0 0 1 49 27.25 1.25 1.25 0 0 1 50.25 26a1.25 1.25 0 0 1 1.25 1.25zM51.5 30.75A1.25 1.25 0 0 1 50.25 32 1.25 1.25 0 0 1 49 30.75a1.25 1.25 0 0 1 1.25-1.25 1.25 1.25 0 0 1 1.25 1.25zM51.5 34.25a1.25 1.25 0 0 1-1.25 1.25A1.25 1.25 0 0 1 49 34.25 1.25 1.25 0 0 1 50.25 33a1.25 1.25 0 0 1 1.25 1.25zM51.5 37.75A1.25 1.25 0 0 1 50.25 39 1.25 1.25 0 0 1 49 37.75a1.25 1.25 0 0 1 1.25-1.25 1.25 1.25 0 0 1 1.25 1.25zM51.5 41.25a1.25 1.25 0 0 1-1.25 1.25A1.25 1.25 0 0 1 49 41.25 1.25 1.25 0 0 1 50.25 40a1.25 1.25 0 0 1 1.25 1.25zM51.5 44.75A1.25 1.25 0 0 1 50.25 46 1.25 1.25 0 0 1 49 44.75a1.25 1.25 0 0 1 1.25-1.25 1.25 1.25 0 0 1 1.25 1.25zM51.5 48.25a1.25 1.25 0 0 1-1.25 1.25A1.25 1.25 0 0 1 49 48.25 1.25 1.25 0 0 1 50.25 47a1.25 1.25 0 0 1 1.25 1.25zM51.5 51.75A1.25 1.25 0 0 1 50.25 53 1.25 1.25 0 0 1 49 51.75a1.25 1.25 0 0 1 1.25-1.25 1.25 1.25 0 0 1 1.25 1.25zM51.5 55.25a1.25 1.25 0 0 1-1.25 1.25A1.25 1.25 0 0 1 49 55.25 1.25 1.25 0 0 1 50.25 54a1.25 1.25 0 0 1 1.25 1.25zM51.5 58.75A1.25 1.25 0 0 1 50.25 60 1.25 1.25 0 0 1 49 58.75a1.25 1.25 0 0 1 1.25-1.25 1.25 1.25 0 0 1 1.25 1.25zM51.5 62.25a1.25 1.25 0 0 1-1.25 1.25A1.25 1.25 0 0 1 49 62.25 1.25 1.25 0 0 1 50.25 61a1.25 1.25 0 0 1 1.25 1.25zM51.5 65.75A1.25 1.25 0 0 1 50.25 67 1.25 1.25 0 0 1 49 65.75a1.25 1.25 0 0 1 1.25-1.25 1.25 1.25 0 0 1 1.25 1.25zM51.5 69.25a1.25 1.25 0 0 1-1.25 1.25A1.25 1.25 0 0 1 49 69.25 1.25 1.25 0 0 1 50.25 68a1.25 1.25 0 0 1 1.25 1.25zM51.5 72.75A1.25 1.25 0 0 1 50.25 74 1.25 1.25 0 0 1 49 72.75a1.25 1.25 0 0 1 1.25-1.25 1.25 1.25 0 0 1 1.25 1.25zM51.5 76.25a1.25 1.25 0 0 1-1.25 1.25A1.25 1.25 0 0 1 49 76.25 1.25 1.25 0 0 1 50.25 75a1.25 1.25 0 0 1 1.25 1.25zM51.5 79.75A1.25 1.25 0 0 1 50.25 81 1.25 1.25 0 0 1 49 79.75a1.25 1.25 0 0 1 1.25-1.25 1.25 1.25 0 0 1 1.25 1.25zM51.5 83.25a1.25 1.25 0 0 1-1.25 1.25A1.25 1.25 0 0 1 49 83.25 1.25 1.25 0 0 1 50.25 82a1.25 1.25 0 0 1 1.25 1.25zM51.5 86.75A1.25 1.25 0 0 1 50.25 88 1.25 1.25 0 0 1 49 86.75a1.25 1.25 0 0 1 1.25-1.25 1.25 1.25 0 0 1 1.25 1.25zM51.5 90.25a1.25 1.25 0 0 1-1.25 1.25A1.25 1.25 0 0 1 49 90.25 1.25 1.25 0 0 1 50.25 89a1.25 1.25 0 0 1 1.25 1.25zM51.5 93.75A1.25 1.25 0 0 1 50.25 95 1.25 1.25 0 0 1 49 93.75a1.25 1.25 0 0 1 1.25-1.25 1.25 1.25 0 0 1 1.25 1.25zM55 13.25a1.25 1.25 0 0 1-1.25 1.25 1.25 1.25 0 0 1-1.25-1.25A1.25 1.25 0 0 1 53.75 12 1.25 1.25 0 0 1 55 13.25zM55 16.75A1.25 1.25 0 0 1 53.75 18a1.25 1.25 0 0 1-1.25-1.25 1.25 1.25 0 0 1 1.25-1.25A1.25 1.25 0 0 1 55 16.75zM55 20.25a1.25 1.25 0 0 1-1.25 1.25 1.25 1.25 0 0 1-1.25-1.25A1.25 1.25 0 0 1 53.75 19 1.25 1.25 0 0 1 55 20.25zM55 23.75A1.25 1.25 0 0 1 53.75 25a1.25 1.25 0 0 1-1.25-1.25 1.25 1.25 0 0 1 1.25-1.25A1.25 1.25 0 0 1 55 23.75zM55 27.25a1.25 1.25 0 0 1-1.25 1.25 1.25 1.25 0 0 1-1.25-1.25A1.25 1.25 0 0 1 53.75 26 1.25 1.25 0 0 1 55 27.25zM55 30.75A1.25 1.25 0 0 1 53.75 32a1.25 1.25 0 0 1-1.25-1.25 1.25 1.25 0 0 1 1.25-1.25A1.25 1.25 0 0 1 55 30.75zM55 34.25a1.25 1.25 0 0 1-1.25 1.25 1.25 1.25 0 0 1-1.25-1.25A1.25 1.25 0 0 1 53.75 33 1.25 1.25 0 0 1 55 34.25zM55 37.75A1.25 1.25 0 0 1 53.75 39a1.25 1.25 0 0 1-1.25-1.25 1.25 1.25 0 0 1 1.25-1.25A1.25 1.25 0 0 1 55 37.75zM55 41.25a1.25 1.25 0 0 1-1.25 1.25 1.25 1.25 0 0 1-1.25-1.25A1.25 1.25 0 0 1 53.75 40 1.25 1.25 0 0 1 55 41.25zM55 44.75A1.25 1.25 0 0 1 53.75 46a1.25 1.25 0 0 1-1.25-1.25 1.25 1.25 0 0 1 1.25-1.25A1.25 1.25 0 0 1 55 44.75zM55 48.25a1.25 1.25 0 0 1-1.25 1.25 1.25 1.25 0 0 1-1.25-1.25A1.25 1.25 0 0 1 53.75 47 1.25 1.25 0 0 1 55 48.25zM55 51.75A1.25 1.25 0 0 1 53.75 53a1.25 1.25 0 0 1-1.25-1.25 1.25 1.25 0 0 1 1.25-1.25A1.25 1.25 0 0 1 55 51.75zM55 55.25a1.25 1.25 0 0 1-1.25 1.25 1.25 1.25 0 0 1-1.25-1.25A1.25 1.25 0 0 1 53.75 54 1.25 1.25 0 0 1 55 55.25zM55 58.75A1.25 1.25 0 0 1 53.75 60a1.25 1.25 0 0 1-1.25-1.25 1.25 1.25 0 0 1 1.25-1.25A1.25 1.25 0 0 1 55 58.75zM55 62.25a1.25 1.25 0 0 1-1.25 1.25 1.25 1.25 0 0 1-1.25-1.25A1.25 1.25 0 0 1 53.75 61 1.25 1.25 0 0 1 55 62.25zM55 65.75A1.25 1.25 0 0 1 53.75 67a1.25 1.25 0 0 1-1.25-1.25 1.25 1.25 0 0 1 1.25-1.25A1.25 1.25 0 0 1 55 65.75zM55 69.25a1.25 1.25 0 0 1-1.25 1.25 1.25 1.25 0 0 1-1.25-1.25A1.25 1.25 0 0 1 53.75 68 1.25 1.25 0 0 1 55 69.25zM55 72.75A1.25 1.25 0 0 1 53.75 74a1.25 1.25 0 0 1-1.25-1.25 1.25 1.25 0 0 1 1.25-1.25A1.25 1.25 0 0 1 55 72.75zM55 76.25a1.25 1.25 0 0 1-1.25 1.25 1.25 1.25 0 0 1-1.25-1.25A1.25 1.25 0 0 1 53.75 75 1.25 1.25 0 0 1 55 76.25zM55 79.75A1.25 1.25 0 0 1 53.75 81a1.25 1.25 0 0 1-1.25-1.25 1.25 1.25 0 0 1 1.25-1.25A1.25 1.25 0 0 1 55 79.75zM55 83.25a1.25 1.25 0 0 1-1.25 1.25 1.25 1.25 0 0 1-1.25-1.25A1.25 1.25 0 0 1 53.75 82 1.25 1.25 0 0 1 55 83.25zM55 86.75A1.25 1.25 0 0 1 53.75 88a1.25 1.25 0 0 1-1.25-1.25 1.25 1.25 0 0 1 1.25-1.25A1.25 1.25 0 0 1 55 86.75zM55 90.25a1.25 1.25 0 0 1-1.25 1.25 1.25 1.25 0 0 1-1.25-1.25A1.25 1.25 0 0 1 53.75 89 1.25 1.25 0 0 1 55 90.25zM55 93.75A1.25 1.25 0 0 1 53.75 95a1.25 1.25 0 0 1-1.25-1.25 1.25 1.25 0 0 1 1.25-1.25A1.25 1.25 0 0 1 55 93.75zM58.5 13.25a1.25 1.25 0 0 1-1.25 1.25A1.25 1.25 0 0 1 56 13.25 1.25 1.25 0 0 1 57.25 12a1.25 1.25 0 0 1 1.25 1.25zM58.5 16.75A1.25 1.25 0 0 1 57.25 18 1.25 1.25 0 0 1 56 16.75a1.25 1.25 0 0 1 1.25-1.25 1.25 1.25 0 0 1 1.25 1.25zM58.5 20.25a1.25 1.25 0 0 1-1.25 1.25A1.25 1.25 0 0 1 56 20.25 1.25 1.25 0 0 1 57.25 19a1.25 1.25 0 0 1 1.25 1.25zM58.5 23.75A1.25 1.25 0 0 1 57.25 25 1.25 1.25 0 0 1 56 23.75a1.25 1.25 0 0 1 1.25-1.25 1.25 1.25 0 0 1 1.25 1.25zM58.5 27.25a1.25 1.25 0 0 1-1.25 1.25A1.25 1.25 0 0 1 56 27.25 1.25 1.25 0 0 1 57.25 26a1.25 1.25 0 0 1 1.25 1.25zM58.5 30.75A1.25 1.25 0 0 1 57.25 32 1.25 1.25 0 0 1 56 30.75a1.25 1.25 0 0 1 1.25-1.25 1.25 1.25 0 0 1 1.25 1.25zM58.5 34.25a1.25 1.25 0 0 1-1.25 1.25A1.25 1.25 0 0 1 56 34.25 1.25 1.25 0 0 1 57.25 33a1.25 1.25 0 0 1 1.25 1.25zM58.5 37.75A1.25 1.25 0 0 1 57.25 39 1.25 1.25 0 0 1 56 37.75a1.25 1.25 0 0 1 1.25-1.25 1.25 1.25 0 0 1 1.25 1.25zM58.5 41.25a1.25 1.25 0 0 1-1.25 1.25A1.25 1.25 0 0 1 56 41.25 1.25 1.25 0 0 1 57.25 40a1.25 1.25 0 0 1 1.25 1.25zM58.5 44.75A1.25 1.25 0 0 1 57.25 46 1.25 1.25 0 0 1 56 44.75a1.25 1.25 0 0 1 1.25-1.25 1.25 1.25 0 0 1 1.25 1.25zM58.5 48.25a1.25 1.25 0 0 1-1.25 1.25A1.25 1.25 0 0 1 56 48.25 1.25 1.25 0 0 1 57.25 47a1.25 1.25 0 0 1 1.25 1.25zM58.5 51.75A1.25 1.25 0 0 1 57.25 53 1.25 1.25 0 0 1 56 51.75a1.25 1.25 0 0 1 1.25-1.25 1.25 1.25 0 0 1 1.25 1.25zM58.5 55.25a1.25 1.25 0 0 1-1.25 1.25A1.25 1.25 0 0 1 56 55.25 1.25 1.25 0 0 1 57.25 54a1.25 1.25 0 0 1 1.25 1.25zM58.5 58.75A1.25 1.25 0 0 1 57.25 60 1.25 1.25 0 0 1 56 58.75a1.25 1.25 0 0 1 1.25-1.25 1.25 1.25 0 0 1 1.25 1.25zM58.5 62.25a1.25 1.25 0 0 1-1.25 1.25A1.25 1.25 0 0 1 56 62.25 1.25 1.25 0 0 1 57.25 61a1.25 1.25 0 0 1 1.25 1.25zM58.5 65.75A1.25 1.25 0 0 1 57.25 67 1.25 1.25 0 0 1 56 65.75a1.25 1.25 0 0 1 1.25-1.25 1.25 1.25 0 0 1 1.25 1.25zM58.5 69.25a1.25 1.25 0 0 1-1.25 1.25A1.25 1.25 0 0 1 56 69.25 1.25 1.25 0 0 1 57.25 68a1.25 1.25 0 0 1 1.25 1.25zM58.5 72.75A1.25 1.25 0 0 1 57.25 74 1.25 1.25 0 0 1 56 72.75a1.25 1.25 0 0 1 1.25-1.25 1.25 1.25 0 0 1 1.25 1.25zM58.5 76.25a1.25 1.25 0 0 1-1.25 1.25A1.25 1.25 0 0 1 56 76.25 1.25 1.25 0 0 1 57.25 75a1.25 1.25 0 0 1 1.25 1.25zM58.5 79.75A1.25 1.25 0 0 1 57.25 81 1.25 1.25 0 0 1 56 79.75a1.25 1.25 0 0 1 1.25-1.25 1.25 1.25 0 0 1 1.25 1.25zM58.5 83.25a1.25 1.25 0 0 1-1.25 1.25A1.25 1.25 0 0 1 56 83.25 1.25 1.25 0 0 1 57.25 82a1.25 1.25 0 0 1 1.25 1.25zM58.5 86.75A1.25 1.25 0 0 1 57.25 88 1.25 1.25 0 0 1 56 86.75a1.25 1.25 0 0 1 1.25-1.25 1.25 1.25 0 0 1 1.25 1.25zM58.5 90.25a1.25 1.25 0 0 1-1.25 1.25A1.25 1.25 0 0 1 56 90.25 1.25 1.25 0 0 1 57.25 89a1.25 1.25 0 0 1 1.25 1.25zM58.5 93.75A1.25 1.25 0 0 1 57.25 95 1.25 1.25 0 0 1 56 93.75a1.25 1.25 0 0 1 1.25-1.25 1.25 1.25 0 0 1 1.25 1.25zM62 13.25a1.25 1.25 0 0 1-1.25 1.25 1.25 1.25 0 0 1-1.25-1.25A1.25 1.25 0 0 1 60.75 12 1.25 1.25 0 0 1 62 13.25zM62 16.75A1.25 1.25 0 0 1 60.75 18a1.25 1.25 0 0 1-1.25-1.25 1.25 1.25 0 0 1 1.25-1.25A1.25 1.25 0 0 1 62 16.75zM62 20.25a1.25 1.25 0 0 1-1.25 1.25 1.25 1.25 0 0 1-1.25-1.25A1.25 1.25 0 0 1 60.75 19 1.25 1.25 0 0 1 62 20.25zM62 23.75A1.25 1.25 0 0 1 60.75 25a1.25 1.25 0 0 1-1.25-1.25 1.25 1.25 0 0 1 1.25-1.25A1.25 1.25 0 0 1 62 23.75zM62 27.25a1.25 1.25 0 0 1-1.25 1.25 1.25 1.25 0 0 1-1.25-1.25A1.25 1.25 0 0 1 60.75 26 1.25 1.25 0 0 1 62 27.25zM62 30.75A1.25 1.25 0 0 1 60.75 32a1.25 1.25 0 0 1-1.25-1.25 1.25 1.25 0 0 1 1.25-1.25A1.25 1.25 0 0 1 62 30.75zM62 34.25a1.25 1.25 0 0 1-1.25 1.25 1.25 1.25 0 0 1-1.25-1.25A1.25 1.25 0 0 1 60.75 33 1.25 1.25 0 0 1 62 34.25zM62 37.75A1.25 1.25 0 0 1 60.75 39a1.25 1.25 0 0 1-1.25-1.25 1.25 1.25 0 0 1 1.25-1.25A1.25 1.25 0 0 1 62 37.75zM62 41.25a1.25 1.25 0 0 1-1.25 1.25 1.25 1.25 0 0 1-1.25-1.25A1.25 1.25 0 0 1 60.75 40 1.25 1.25 0 0 1 62 41.25zM62 44.75A1.25 1.25 0 0 1 60.75 46a1.25 1.25 0 0 1-1.25-1.25 1.25 1.25 0 0 1 1.25-1.25A1.25 1.25 0 0 1 62 44.75zM62 48.25a1.25 1.25 0 0 1-1.25 1.25 1.25 1.25 0 0 1-1.25-1.25A1.25 1.25 0 0 1 60.75 47 1.25 1.25 0 0 1 62 48.25zM62 51.75A1.25 1.25 0 0 1 60.75 53a1.25 1.25 0 0 1-1.25-1.25 1.25 1.25 0 0 1 1.25-1.25A1.25 1.25 0 0 1 62 51.75zM62 55.25a1.25 1.25 0 0 1-1.25 1.25 1.25 1.25 0 0 1-1.25-1.25A1.25 1.25 0 0 1 60.75 54 1.25 1.25 0 0 1 62 55.25zM62 58.75A1.25 1.25 0 0 1 60.75 60a1.25 1.25 0 0 1-1.25-1.25 1.25 1.25 0 0 1 1.25-1.25A1.25 1.25 0 0 1 62 58.75zM62 62.25a1.25 1.25 0 0 1-1.25 1.25 1.25 1.25 0 0 1-1.25-1.25A1.25 1.25 0 0 1 60.75 61 1.25 1.25 0 0 1 62 62.25zM62 65.75A1.25 1.25 0 0 1 60.75 67a1.25 1.25 0 0 1-1.25-1.25 1.25 1.25 0 0 1 1.25-1.25A1.25 1.25 0 0 1 62 65.75zM62 69.25a1.25 1.25 0 0 1-1.25 1.25 1.25 1.25 0 0 1-1.25-1.25A1.25 1.25 0 0 1 60.75 68 1.25 1.25 0 0 1 62 69.25zM62 72.75A1.25 1.25 0 0 1 60.75 74a1.25 1.25 0 0 1-1.25-1.25 1.25 1.25 0 0 1 1.25-1.25A1.25 1.25 0 0 1 62 72.75zM62 76.25a1.25 1.25 0 0 1-1.25 1.25 1.25 1.25 0 0 1-1.25-1.25A1.25 1.25 0 0 1 60.75 75 1.25 1.25 0 0 1 62 76.25zM62 79.75A1.25 1.25 0 0 1 60.75 81a1.25 1.25 0 0 1-1.25-1.25 1.25 1.25 0 0 1 1.25-1.25A1.25 1.25 0 0 1 62 79.75zM62 83.25a1.25 1.25 0 0 1-1.25 1.25 1.25 1.25 0 0 1-1.25-1.25A1.25 1.25 0 0 1 60.75 82 1.25 1.25 0 0 1 62 83.25zM62 86.75A1.25 1.25 0 0 1 60.75 88a1.25 1.25 0 0 1-1.25-1.25 1.25 1.25 0 0 1 1.25-1.25A1.25 1.25 0 0 1 62 86.75zM62 90.25a1.25 1.25 0 0 1-1.25 1.25 1.25 1.25 0 0 1-1.25-1.25A1.25 1.25 0 0 1 60.75 89 1.25 1.25 0 0 1 62 90.25zM62 93.75A1.25 1.25 0 0 1 60.75 95a1.25 1.25 0 0 1-1.25-1.25 1.25 1.25 0 0 1 1.25-1.25A1.25 1.25 0 0 1 62 93.75zM65.5 13.25a1.25 1.25 0 0 1-1.25 1.25A1.25 1.25 0 0 1 63 13.25 1.25 1.25 0 0 1 64.25 12a1.25 1.25 0 0 1 1.25 1.25zM65.5 16.75A1.25 1.25 0 0 1 64.25 18 1.25 1.25 0 0 1 63 16.75a1.25 1.25 0 0 1 1.25-1.25 1.25 1.25 0 0 1 1.25 1.25zM65.5 20.25a1.25 1.25 0 0 1-1.25 1.25A1.25 1.25 0 0 1 63 20.25 1.25 1.25 0 0 1 64.25 19a1.25 1.25 0 0 1 1.25 1.25zM65.5 23.75A1.25 1.25 0 0 1 64.25 25 1.25 1.25 0 0 1 63 23.75a1.25 1.25 0 0 1 1.25-1.25 1.25 1.25 0 0 1 1.25 1.25zM65.5 27.25a1.25 1.25 0 0 1-1.25 1.25A1.25 1.25 0 0 1 63 27.25 1.25 1.25 0 0 1 64.25 26a1.25 1.25 0 0 1 1.25 1.25zM65.5 30.75A1.25 1.25 0 0 1 64.25 32 1.25 1.25 0 0 1 63 30.75a1.25 1.25 0 0 1 1.25-1.25 1.25 1.25 0 0 1 1.25 1.25zM65.5 34.25a1.25 1.25 0 0 1-1.25 1.25A1.25 1.25 0 0 1 63 34.25 1.25 1.25 0 0 1 64.25 33a1.25 1.25 0 0 1 1.25 1.25zM65.5 37.75A1.25 1.25 0 0 1 64.25 39 1.25 1.25 0 0 1 63 37.75a1.25 1.25 0 0 1 1.25-1.25 1.25 1.25 0 0 1 1.25 1.25zM65.5 41.25a1.25 1.25 0 0 1-1.25 1.25A1.25 1.25 0 0 1 63 41.25 1.25 1.25 0 0 1 64.25 40a1.25 1.25 0 0 1 1.25 1.25zM65.5 44.75A1.25 1.25 0 0 1 64.25 46 1.25 1.25 0 0 1 63 44.75a1.25 1.25 0 0 1 1.25-1.25 1.25 1.25 0 0 1 1.25 1.25zM65.5 48.25a1.25 1.25 0 0 1-1.25 1.25A1.25 1.25 0 0 1 63 48.25 1.25 1.25 0 0 1 64.25 47a1.25 1.25 0 0 1 1.25 1.25zM65.5 51.75A1.25 1.25 0 0 1 64.25 53 1.25 1.25 0 0 1 63 51.75a1.25 1.25 0 0 1 1.25-1.25 1.25 1.25 0 0 1 1.25 1.25zM65.5 55.25a1.25 1.25 0 0 1-1.25 1.25A1.25 1.25 0 0 1 63 55.25 1.25 1.25 0 0 1 64.25 54a1.25 1.25 0 0 1 1.25 1.25zM65.5 58.75A1.25 1.25 0 0 1 64.25 60 1.25 1.25 0 0 1 63 58.75a1.25 1.25 0 0 1 1.25-1.25 1.25 1.25 0 0 1 1.25 1.25zM65.5 62.25a1.25 1.25 0 0 1-1.25 1.25A1.25 1.25 0 0 1 63 62.25 1.25 1.25 0 0 1 64.25 61a1.25 1.25 0 0 1 1.25 1.25zM65.5 65.75A1.25 1.25 0 0 1 64.25 67 1.25 1.25 0 0 1 63 65.75a1.25 1.25 0 0 1 1.25-1.25 1.25 1.25 0 0 1 1.25 1.25zM65.5 69.25a1.25 1.25 0 0 1-1.25 1.25A1.25 1.25 0 0 1 63 69.25 1.25 1.25 0 0 1 64.25 68a1.25 1.25 0 0 1 1.25 1.25zM65.5 72.75A1.25 1.25 0 0 1 64.25 74 1.25 1.25 0 0 1 63 72.75a1.25 1.25 0 0 1 1.25-1.25 1.25 1.25 0 0 1 1.25 1.25zM65.5 76.25a1.25 1.25 0 0 1-1.25 1.25A1.25 1.25 0 0 1 63 76.25 1.25 1.25 0 0 1 64.25 75a1.25 1.25 0 0 1 1.25 1.25zM65.5 79.75A1.25 1.25 0 0 1 64.25 81 1.25 1.25 0 0 1 63 79.75a1.25 1.25 0 0 1 1.25-1.25 1.25 1.25 0 0 1 1.25 1.25zM65.5 83.25a1.25 1.25 0 0 1-1.25 1.25A1.25 1.25 0 0 1 63 83.25 1.25 1.25 0 0 1 64.25 82a1.25 1.25 0 0 1 1.25 1.25zM65.5 86.75A1.25 1.25 0 0 1 64.25 88 1.25 1.25 0 0 1 63 86.75a1.25 1.25 0 0 1 1.25-1.25 1.25 1.25 0 0 1 1.25 1.25zM65.5 90.25a1.25 1.25 0 0 1-1.25 1.25A1.25 1.25 0 0 1 63 90.25 1.25 1.25 0 0 1 64.25 89a1.25 1.25 0 0 1 1.25 1.25zM69 16.75A1.25 1.25 0 0 1 67.75 18a1.25 1.25 0 0 1-1.25-1.25 1.25 1.25 0 0 1 1.25-1.25A1.25 1.25 0 0 1 69 16.75zM69 20.25a1.25 1.25 0 0 1-1.25 1.25 1.25 1.25 0 0 1-1.25-1.25A1.25 1.25 0 0 1 67.75 19 1.25 1.25 0 0 1 69 20.25zM69 23.75A1.25 1.25 0 0 1 67.75 25a1.25 1.25 0 0 1-1.25-1.25 1.25 1.25 0 0 1 1.25-1.25A1.25 1.25 0 0 1 69 23.75zM69 27.25a1.25 1.25 0 0 1-1.25 1.25 1.25 1.25 0 0 1-1.25-1.25A1.25 1.25 0 0 1 67.75 26 1.25 1.25 0 0 1 69 27.25zM69 30.75A1.25 1.25 0 0 1 67.75 32a1.25 1.25 0 0 1-1.25-1.25 1.25 1.25 0 0 1 1.25-1.25A1.25 1.25 0 0 1 69 30.75zM69 34.25a1.25 1.25 0 0 1-1.25 1.25 1.25 1.25 0 0 1-1.25-1.25A1.25 1.25 0 0 1 67.75 33 1.25 1.25 0 0 1 69 34.25zM69 37.75A1.25 1.25 0 0 1 67.75 39a1.25 1.25 0 0 1-1.25-1.25 1.25 1.25 0 0 1 1.25-1.25A1.25 1.25 0 0 1 69 37.75zM69 41.25a1.25 1.25 0 0 1-1.25 1.25 1.25 1.25 0 0 1-1.25-1.25A1.25 1.25 0 0 1 67.75 40 1.25 1.25 0 0 1 69 41.25zM69 44.75A1.25 1.25 0 0 1 67.75 46a1.25 1.25 0 0 1-1.25-1.25 1.25 1.25 0 0 1 1.25-1.25A1.25 1.25 0 0 1 69 44.75zM69 48.25a1.25 1.25 0 0 1-1.25 1.25 1.25 1.25 0 0 1-1.25-1.25A1.25 1.25 0 0 1 67.75 47 1.25 1.25 0 0 1 69 48.25zM69 51.75A1.25 1.25 0 0 1 67.75 53a1.25 1.25 0 0 1-1.25-1.25 1.25 1.25 0 0 1 1.25-1.25A1.25 1.25 0 0 1 69 51.75zM69 55.25a1.25 1.25 0 0 1-1.25 1.25 1.25 1.25 0 0 1-1.25-1.25A1.25 1.25 0 0 1 67.75 54 1.25 1.25 0 0 1 69 55.25zM69 58.75A1.25 1.25 0 0 1 67.75 60a1.25 1.25 0 0 1-1.25-1.25 1.25 1.25 0 0 1 1.25-1.25A1.25 1.25 0 0 1 69 58.75zM69 62.25a1.25 1.25 0 0 1-1.25 1.25 1.25 1.25 0 0 1-1.25-1.25A1.25 1.25 0 0 1 67.75 61 1.25 1.25 0 0 1 69 62.25zM69 65.75A1.25 1.25 0 0 1 67.75 67a1.25 1.25 0 0 1-1.25-1.25 1.25 1.25 0 0 1 1.25-1.25A1.25 1.25 0 0 1 69 65.75zM69 69.25a1.25 1.25 0 0 1-1.25 1.25 1.25 1.25 0 0 1-1.25-1.25A1.25 1.25 0 0 1 67.75 68 1.25 1.25 0 0 1 69 69.25zM69 72.75A1.25 1.25 0 0 1 67.75 74a1.25 1.25 0 0 1-1.25-1.25 1.25 1.25 0 0 1 1.25-1.25A1.25 1.25 0 0 1 69 72.75zM69 76.25a1.25 1.25 0 0 1-1.25 1.25 1.25 1.25 0 0 1-1.25-1.25A1.25 1.25 0 0 1 67.75 75 1.25 1.25 0 0 1 69 76.25zM69 79.75A1.25 1.25 0 0 1 67.75 81a1.25 1.25 0 0 1-1.25-1.25 1.25 1.25 0 0 1 1.25-1.25A1.25 1.25 0 0 1 69 79.75zM69 83.25a1.25 1.25 0 0 1-1.25 1.25 1.25 1.25 0 0 1-1.25-1.25A1.25 1.25 0 0 1 67.75 82 1.25 1.25 0 0 1 69 83.25zM69 86.75A1.25 1.25 0 0 1 67.75 88a1.25 1.25 0 0 1-1.25-1.25 1.25 1.25 0 0 1 1.25-1.25A1.25 1.25 0 0 1 69 86.75zM72.5 20.25a1.25 1.25 0 0 1-1.25 1.25A1.25 1.25 0 0 1 70 20.25 1.25 1.25 0 0 1 71.25 19a1.25 1.25 0 0 1 1.25 1.25zM72.5 23.75A1.25 1.25 0 0 1 71.25 25 1.25 1.25 0 0 1 70 23.75a1.25 1.25 0 0 1 1.25-1.25 1.25 1.25 0 0 1 1.25 1.25zM72.5 27.25a1.25 1.25 0 0 1-1.25 1.25A1.25 1.25 0 0 1 70 27.25 1.25 1.25 0 0 1 71.25 26a1.25 1.25 0 0 1 1.25 1.25zM72.5 30.75A1.25 1.25 0 0 1 71.25 32 1.25 1.25 0 0 1 70 30.75a1.25 1.25 0 0 1 1.25-1.25 1.25 1.25 0 0 1 1.25 1.25zM72.5 34.25a1.25 1.25 0 0 1-1.25 1.25A1.25 1.25 0 0 1 70 34.25 1.25 1.25 0 0 1 71.25 33a1.25 1.25 0 0 1 1.25 1.25zM72.5 37.75A1.25 1.25 0 0 1 71.25 39 1.25 1.25 0 0 1 70 37.75a1.25 1.25 0 0 1 1.25-1.25 1.25 1.25 0 0 1 1.25 1.25zM72.5 41.25a1.25 1.25 0 0 1-1.25 1.25A1.25 1.25 0 0 1 70 41.25 1.25 1.25 0 0 1 71.25 40a1.25 1.25 0 0 1 1.25 1.25zM72.5 44.75A1.25 1.25 0 0 1 71.25 46 1.25 1.25 0 0 1 70 44.75a1.25 1.25 0 0 1 1.25-1.25 1.25 1.25 0 0 1 1.25 1.25zM72.5 48.25a1.25 1.25 0 0 1-1.25 1.25A1.25 1.25 0 0 1 70 48.25 1.25 1.25 0 0 1 71.25 47a1.25 1.25 0 0 1 1.25 1.25zM72.5 51.75A1.25 1.25 0 0 1 71.25 53 1.25 1.25 0 0 1 70 51.75a1.25 1.25 0 0 1 1.25-1.25 1.25 1.25 0 0 1 1.25 1.25zM72.5 55.25a1.25 1.25 0 0 1-1.25 1.25A1.25 1.25 0 0 1 70 55.25 1.25 1.25 0 0 1 71.25 54a1.25 1.25 0 0 1 1.25 1.25zM72.5 58.75A1.25 1.25 0 0 1 71.25 60 1.25 1.25 0 0 1 70 58.75a1.25 1.25 0 0 1 1.25-1.25 1.25 1.25 0 0 1 1.25 1.25zM72.5 62.25a1.25 1.25 0 0 1-1.25 1.25A1.25 1.25 0 0 1 70 62.25 1.25 1.25 0 0 1 71.25 61a1.25 1.25 0 0 1 1.25 1.25zM72.5 65.75A1.25 1.25 0 0 1 71.25 67 1.25 1.25 0 0 1 70 65.75a1.25 1.25 0 0 1 1.25-1.25 1.25 1.25 0 0 1 1.25 1.25zM72.5 69.25a1.25 1.25 0 0 1-1.25 1.25A1.25 1.25 0 0 1 70 69.25 1.25 1.25 0 0 1 71.25 68a1.25 1.25 0 0 1 1.25 1.25zM72.5 72.75A1.25 1.25 0 0 1 71.25 74 1.25 1.25 0 0 1 70 72.75a1.25 1.25 0 0 1 1.25-1.25 1.25 1.25 0 0 1 1.25 1.25zM72.5 76.25a1.25 1.25 0 0 1-1.25 1.25A1.25 1.25 0 0 1 70 76.25 1.25 1.25 0 0 1 71.25 75a1.25 1.25 0 0 1 1.25 1.25zM72.5 79.75A1.25 1.25 0 0 1 71.25 81 1.25 1.25 0 0 1 70 79.75a1.25 1.25 0 0 1 1.25-1.25 1.25 1.25 0 0 1 1.25 1.25zM72.5 83.25a1.25 1.25 0 0 1-1.25 1.25A1.25 1.25 0 0 1 70 83.25 1.25 1.25 0 0 1 71.25 82a1.25 1.25 0 0 1 1.25 1.25zM76 23.75A1.25 1.25 0 0 1 74.75 25a1.25 1.25 0 0 1-1.25-1.25 1.25 1.25 0 0 1 1.25-1.25A1.25 1.25 0 0 1 76 23.75zM76 27.25a1.25 1.25 0 0 1-1.25 1.25 1.25 1.25 0 0 1-1.25-1.25A1.25 1.25 0 0 1 74.75 26 1.25 1.25 0 0 1 76 27.25zM76 30.75A1.25 1.25 0 0 1 74.75 32a1.25 1.25 0 0 1-1.25-1.25 1.25 1.25 0 0 1 1.25-1.25A1.25 1.25 0 0 1 76 30.75zM76 34.25a1.25 1.25 0 0 1-1.25 1.25 1.25 1.25 0 0 1-1.25-1.25A1.25 1.25 0 0 1 74.75 33 1.25 1.25 0 0 1 76 34.25zM76 37.75A1.25 1.25 0 0 1 74.75 39a1.25 1.25 0 0 1-1.25-1.25 1.25 1.25 0 0 1 1.25-1.25A1.25 1.25 0 0 1 76 37.75zM76 41.25a1.25 1.25 0 0 1-1.25 1.25 1.25 1.25 0 0 1-1.25-1.25A1.25 1.25 0 0 1 74.75 40 1.25 1.25 0 0 1 76 41.25zM76 44.75A1.25 1.25 0 0 1 74.75 46a1.25 1.25 0 0 1-1.25-1.25 1.25 1.25 0 0 1 1.25-1.25A1.25 1.25 0 0 1 76 44.75zM76 48.25a1.25 1.25 0 0 1-1.25 1.25 1.25 1.25 0 0 1-1.25-1.25A1.25 1.25 0 0 1 74.75 47 1.25 1.25 0 0 1 76 48.25zM76 51.75A1.25 1.25 0 0 1 74.75 53a1.25 1.25 0 0 1-1.25-1.25 1.25 1.25 0 0 1 1.25-1.25A1.25 1.25 0 0 1 76 51.75zM76 55.25a1.25 1.25 0 0 1-1.25 1.25 1.25 1.25 0 0 1-1.25-1.25A1.25 1.25 0 0 1 74.75 54 1.25 1.25 0 0 1 76 55.25zM76 58.75A1.25 1.25 0 0 1 74.75 60a1.25 1.25 0 0 1-1.25-1.25 1.25 1.25 0 0 1 1.25-1.25A1.25 1.25 0 0 1 76 58.75zM76 62.25a1.25 1.25 0 0 1-1.25 1.25 1.25 1.25 0 0 1-1.25-1.25A1.25 1.25 0 0 1 74.75 61 1.25 1.25 0 0 1 76 62.25zM76 65.75A1.25 1.25 0 0 1 74.75 67a1.25 1.25 0 0 1-1.25-1.25 1.25 1.25 0 0 1 1.25-1.25A1.25 1.25 0 0 1 76 65.75zM76 69.25a1.25 1.25 0 0 1-1.25 1.25 1.25 1.25 0 0 1-1.25-1.25A1.25 1.25 0 0 1 74.75 68 1.25 1.25 0 0 1 76 69.25zM76 72.75A1.25 1.25 0 0 1 74.75 74a1.25 1.25 0 0 1-1.25-1.25 1.25 1.25 0 0 1 1.25-1.25A1.25 1.25 0 0 1 76 72.75zM76 76.25a1.25 1.25 0 0 1-1.25 1.25 1.25 1.25 0 0 1-1.25-1.25A1.25 1.25 0 0 1 74.75 75 1.25 1.25 0 0 1 76 76.25zM79.5 30.75A1.25 1.25 0 0 1 78.25 32 1.25 1.25 0 0 1 77 30.75a1.25 1.25 0 0 1 1.25-1.25 1.25 1.25 0 0 1 1.25 1.25zM79.5 34.25a1.25 1.25 0 0 1-1.25 1.25A1.25 1.25 0 0 1 77 34.25 1.25 1.25 0 0 1 78.25 33a1.25 1.25 0 0 1 1.25 1.25zM79.5 37.75A1.25 1.25 0 0 1 78.25 39 1.25 1.25 0 0 1 77 37.75a1.25 1.25 0 0 1 1.25-1.25 1.25 1.25 0 0 1 1.25 1.25zM79.5 41.25a1.25 1.25 0 0 1-1.25 1.25A1.25 1.25 0 0 1 77 41.25 1.25 1.25 0 0 1 78.25 40a1.25 1.25 0 0 1 1.25 1.25zM79.5 44.75A1.25 1.25 0 0 1 78.25 46 1.25 1.25 0 0 1 77 44.75a1.25 1.25 0 0 1 1.25-1.25 1.25 1.25 0 0 1 1.25 1.25zM79.5 48.25a1.25 1.25 0 0 1-1.25 1.25A1.25 1.25 0 0 1 77 48.25 1.25 1.25 0 0 1 78.25 47a1.25 1.25 0 0 1 1.25 1.25zM79.5 51.75A1.25 1.25 0 0 1 78.25 53 1.25 1.25 0 0 1 77 51.75a1.25 1.25 0 0 1 1.25-1.25 1.25 1.25 0 0 1 1.25 1.25zM79.5 55.25a1.25 1.25 0 0 1-1.25 1.25A1.25 1.25 0 0 1 77 55.25 1.25 1.25 0 0 1 78.25 54a1.25 1.25 0 0 1 1.25 1.25zM79.5 58.75A1.25 1.25 0 0 1 78.25 60 1.25 1.25 0 0 1 77 58.75a1.25 1.25 0 0 1 1.25-1.25 1.25 1.25 0 0 1 1.25 1.25zM79.5 62.25a1.25 1.25 0 0 1-1.25 1.25A1.25 1.25 0 0 1 77 62.25 1.25 1.25 0 0 1 78.25 61a1.25 1.25 0 0 1 1.25 1.25zM79.5 65.75A1.25 1.25 0 0 1 78.25 67 1.25 1.25 0 0 1 77 65.75a1.25 1.25 0 0 1 1.25-1.25 1.25 1.25 0 0 1 1.25 1.25zM79.5 69.25a1.25 1.25 0 0 1-1.25 1.25A1.25 1.25 0 0 1 77 69.25 1.25 1.25 0 0 1 78.25 68a1.25 1.25 0 0 1 1.25 1.25zM79.5 72.75A1.25 1.25 0 0 1 78.25 74 1.25 1.25 0 0 1 77 72.75a1.25 1.25 0 0 1 1.25-1.25 1.25 1.25 0 0 1 1.25 1.25zM83 34.25a1.25 1.25 0 0 1-1.25 1.25 1.25 1.25 0 0 1-1.25-1.25A1.25 1.25 0 0 1 81.75 33 1.25 1.25 0 0 1 83 34.25zM83 37.75A1.25 1.25 0 0 1 81.75 39a1.25 1.25 0 0 1-1.25-1.25 1.25 1.25 0 0 1 1.25-1.25A1.25 1.25 0 0 1 83 37.75zM83 41.25a1.25 1.25 0 0 1-1.25 1.25 1.25 1.25 0 0 1-1.25-1.25A1.25 1.25 0 0 1 81.75 40 1.25 1.25 0 0 1 83 41.25zM83 44.75A1.25 1.25 0 0 1 81.75 46a1.25 1.25 0 0 1-1.25-1.25 1.25 1.25 0 0 1 1.25-1.25A1.25 1.25 0 0 1 83 44.75zM83 48.25a1.25 1.25 0 0 1-1.25 1.25 1.25 1.25 0 0 1-1.25-1.25A1.25 1.25 0 0 1 81.75 47 1.25 1.25 0 0 1 83 48.25zM83 51.75A1.25 1.25 0 0 1 81.75 53a1.25 1.25 0 0 1-1.25-1.25 1.25 1.25 0 0 1 1.25-1.25A1.25 1.25 0 0 1 83 51.75zM83 55.25a1.25 1.25 0 0 1-1.25 1.25 1.25 1.25 0 0 1-1.25-1.25A1.25 1.25 0 0 1 81.75 54 1.25 1.25 0 0 1 83 55.25zM83 76.25a1.25 1.25 0 0 1-1.25 1.25 1.25 1.25 0 0 1-1.25-1.25A1.25 1.25 0 0 1 81.75 75 1.25 1.25 0 0 1 83 76.25zM83 79.75A1.25 1.25 0 0 1 81.75 81a1.25 1.25 0 0 1-1.25-1.25 1.25 1.25 0 0 1 1.25-1.25A1.25 1.25 0 0 1 83 79.75zM83 83.25a1.25 1.25 0 0 1-1.25 1.25 1.25 1.25 0 0 1-1.25-1.25A1.25 1.25 0 0 1 81.75 82 1.25 1.25 0 0 1 83 83.25zM86.5 37.75A1.25 1.25 0 0 1 85.25 39 1.25 1.25 0 0 1 84 37.75a1.25 1.25 0 0 1 1.25-1.25 1.25 1.25 0 0 1 1.25 1.25zM86.5 41.25a1.25 1.25 0 0 1-1.25 1.25A1.25 1.25 0 0 1 84 41.25 1.25 1.25 0 0 1 85.25 40a1.25 1.25 0 0 1 1.25 1.25zM86.5 44.75A1.25 1.25 0 0 1 85.25 46 1.25 1.25 0 0 1 84 44.75a1.25 1.25 0 0 1 1.25-1.25 1.25 1.25 0 0 1 1.25 1.25zM86.5 48.25a1.25 1.25 0 0 1-1.25 1.25A1.25 1.25 0 0 1 84 48.25 1.25 1.25 0 0 1 85.25 47a1.25 1.25 0 0 1 1.25 1.25zM86.5 51.75A1.25 1.25 0 0 1 85.25 53 1.25 1.25 0 0 1 84 51.75a1.25 1.25 0 0 1 1.25-1.25 1.25 1.25 0 0 1 1.25 1.25zM86.5 72.75A1.25 1.25 0 0 1 85.25 74 1.25 1.25 0 0 1 84 72.75a1.25 1.25 0 0 1 1.25-1.25 1.25 1.25 0 0 1 1.25 1.25zM86.5 76.25a1.25 1.25 0 0 1-1.25 1.25A1.25 1.25 0 0 1 84 76.25 1.25 1.25 0 0 1 85.25 75a1.25 1.25 0 0 1 1.25 1.25zM86.5 79.75A1.25 1.25 0 0 1 85.25 81 1.25 1.25 0 0 1 84 79.75a1.25 1.25 0 0 1 1.25-1.25 1.25 1.25 0 0 1 1.25 1.25zM86.5 83.25a1.25 1.25 0 0 1-1.25 1.25A1.25 1.25 0 0 1 84 83.25 1.25 1.25 0 0 1 85.25 82a1.25 1.25 0 0 1 1.25 1.25zM90 37.75A1.25 1.25 0 0 1 88.75 39a1.25 1.25 0 0 1-1.25-1.25 1.25 1.25 0 0 1 1.25-1.25A1.25 1.25 0 0 1 90 37.75zM90 41.25a1.25 1.25 0 0 1-1.25 1.25 1.25 1.25 0 0 1-1.25-1.25A1.25 1.25 0 0 1 88.75 40 1.25 1.25 0 0 1 90 41.25zM90 44.75A1.25 1.25 0 0 1 88.75 46a1.25 1.25 0 0 1-1.25-1.25 1.25 1.25 0 0 1 1.25-1.25A1.25 1.25 0 0 1 90 44.75zM90 69.25a1.25 1.25 0 0 1-1.25 1.25 1.25 1.25 0 0 1-1.25-1.25A1.25 1.25 0 0 1 88.75 68 1.25 1.25 0 0 1 90 69.25zM90 72.75A1.25 1.25 0 0 1 88.75 74a1.25 1.25 0 0 1-1.25-1.25 1.25 1.25 0 0 1 1.25-1.25A1.25 1.25 0 0 1 90 72.75zM90 76.25a1.25 1.25 0 0 1-1.25 1.25 1.25 1.25 0 0 1-1.25-1.25A1.25 1.25 0 0 1 88.75 75 1.25 1.25 0 0 1 90 76.25zM93.5 37.75A1.25 1.25 0 0 1 92.25 39 1.25 1.25 0 0 1 91 37.75a1.25 1.25 0 0 1 1.25-1.25 1.25 1.25 0 0 1 1.25 1.25zM93.5 41.25a1.25 1.25 0 0 1-1.25 1.25A1.25 1.25 0 0 1 91 41.25 1.25 1.25 0 0 1 92.25 40a1.25 1.25 0 0 1 1.25 1.25z"></path></g><defs data-v-fde0c5aa=""><!----></defs><g data-v-fde0c5aa="" id="9a101816-73f7-4ed9-bb6e-324f1e10ced1" fill="#150355" transform="matrix(1.0643864194028534,0,0,1.0643864194028534,137.6168426884243,166.63638112884968)"><path d="M9.53 3.92L8.90 3.92L7.69 3.92L7.69 4.19C7.69 4.34 7.78 4.42 7.97 4.44L8.11 4.44C8.18 4.44 8.29 4.45 8.43 4.45C8.57 4.45 8.74 4.47 8.90 4.47L8.90 12.22C8.90 12.35 8.90 12.49 8.92 12.63L2.51 4.05C2.46 3.99 2.44 3.95 2.39 3.93C2.35 3.92 2.31 3.91 2.24 3.91L1.89 3.91L0.70 3.91L0.70 4.19C0.70 4.34 0.80 4.42 0.98 4.44L1.12 4.44C1.19 4.44 1.29 4.45 1.43 4.45C1.57 4.45 1.72 4.47 1.89 4.47L1.89 13.26C1.72 13.26 1.57 13.27 1.43 13.27C1.29 13.27 1.19 13.29 1.12 13.29L0.98 13.29C0.80 13.30 0.70 13.38 0.70 13.54L0.70 13.82L1.89 13.82L2.51 13.82L3.72 13.82L3.72 13.54C3.72 13.38 3.63 13.30 3.44 13.29L3.30 13.29C3.23 13.29 3.11 13.27 2.97 13.27C2.83 13.27 2.67 13.26 2.51 13.26L2.51 5.49C2.51 5.36 2.51 5.22 2.49 5.08L8.93 13.68C9.00 13.78 9.07 13.82 9.18 13.82L9.53 13.82L9.53 4.47C9.70 4.47 9.84 4.45 9.98 4.45C10.12 4.45 10.23 4.44 10.30 4.44L10.43 4.44C10.61 4.42 10.71 4.34 10.71 4.19L10.71 3.92ZM19.94 3.92L18.75 3.92L18.75 4.19C18.75 4.34 18.84 4.42 19.03 4.44L19.17 4.44C19.24 4.44 19.33 4.45 19.47 4.45C19.61 4.45 19.77 4.47 19.94 4.47L19.94 13.26C19.77 13.26 19.61 13.27 19.47 13.27C19.33 13.27 19.24 13.29 19.17 13.29L19.03 13.29C18.84 13.30 18.76 13.38 18.76 13.54L18.76 13.82L19.94 13.82L25.87 13.82L25.87 13.22L25.87 11.76L25.52 11.76C25.33 11.76 25.24 11.89 25.23 12.11C25.23 12.14 25.21 12.19 25.21 12.29C25.21 12.39 25.21 12.53 25.20 12.74C25.19 12.95 25.17 13.09 25.17 13.22L20.65 13.22L20.65 9.09L24.60 9.09L24.60 8.51L20.65 8.51L20.65 4.51L25.17 4.51C25.20 5.12 25.23 5.50 25.23 5.63C25.24 5.85 25.33 5.96 25.52 5.96L25.87 5.96L25.87 4.51L25.87 3.92ZM41.97 3.92L41.78 3.92L34.48 3.92L34.27 3.92L34.17 3.92L34.17 5.96L34.52 5.96C34.72 5.96 34.80 5.85 34.82 5.63C34.82 5.53 34.85 5.17 34.87 4.52L37.77 4.52L37.77 13.26C37.60 13.26 37.46 13.27 37.32 13.27C37.18 13.27 37.07 13.29 37.00 13.29L36.88 13.29C36.69 13.30 36.60 13.38 36.60 13.54L36.60 13.82L37.77 13.82L38.49 13.82L39.68 13.82L39.68 13.54C39.68 13.38 39.58 13.30 39.40 13.29L39.26 13.29C39.19 13.29 39.09 13.27 38.95 13.27C38.81 13.27 38.65 13.26 38.49 13.26L38.49 4.52L41.37 4.52C41.41 5.24 41.43 5.60 41.43 5.63C41.44 5.85 41.54 5.96 41.73 5.96L42.07 5.96L42.07 3.92ZM63.98 3.92L63.43 3.92L63.39 3.92L61.92 3.92L61.92 4.19C61.92 4.34 62.01 4.42 62.19 4.44L62.31 4.44C62.37 4.44 62.47 4.45 62.61 4.45C62.75 4.45 62.89 4.47 63.06 4.47L60.68 12.24C60.65 12.33 60.62 12.43 60.61 12.54C60.59 12.66 60.56 12.75 60.54 12.87C60.51 12.75 60.49 12.63 60.47 12.53L60.38 12.24L57.58 4.10C57.55 4.05 57.53 3.99 57.48 3.96C57.44 3.93 57.39 3.92 57.32 3.92L57.12 3.92C57.05 3.92 56.99 3.93 56.95 3.98C56.91 4.02 56.87 4.05 56.85 4.10L54.05 12.25C54.03 12.35 54.00 12.43 53.97 12.54C53.94 12.64 53.93 12.75 53.90 12.88C53.89 12.78 53.86 12.67 53.83 12.54C53.82 12.43 53.79 12.33 53.76 12.24L51.38 4.47C51.55 4.47 51.69 4.45 51.81 4.45C51.94 4.45 52.02 4.44 52.08 4.44L52.19 4.44C52.37 4.42 52.47 4.34 52.47 4.19L52.47 3.92L51.00 3.92L50.41 3.92L49.81 3.92L49.81 4.19C49.81 4.34 49.91 4.42 50.09 4.44L50.19 4.44C50.23 4.44 50.27 4.45 50.34 4.45C50.41 4.45 50.50 4.47 50.58 4.47L53.54 13.82L54.17 13.82L57.11 5.22C57.15 5.11 57.18 5.00 57.20 4.87C57.23 5.00 57.26 5.11 57.30 5.22L60.23 13.82L60.87 13.82L63.81 4.47C63.90 4.47 63.97 4.45 64.04 4.45C64.11 4.45 64.16 4.44 64.20 4.44L64.30 4.44C64.48 4.42 64.57 4.34 64.57 4.19L64.57 3.92ZM81.47 8.86C81.47 8.11 81.34 7.41 81.12 6.79C80.89 6.17 80.57 5.64 80.15 5.19C79.73 4.75 79.24 4.40 78.67 4.16C78.09 3.92 77.43 3.79 76.73 3.79C76.03 3.79 75.40 3.92 74.83 4.16C74.26 4.40 73.75 4.75 73.33 5.19C72.91 5.64 72.59 6.17 72.37 6.79C72.14 7.41 72.02 8.11 72.02 8.86C72.02 9.63 72.14 10.33 72.37 10.95C72.59 11.56 72.91 12.10 73.33 12.54C73.75 12.99 74.26 13.33 74.83 13.57C75.40 13.80 76.03 13.93 76.73 13.93C77.43 13.93 78.09 13.80 78.67 13.57C79.24 13.33 79.73 12.99 80.15 12.54C80.57 12.10 80.89 11.56 81.12 10.95C81.34 10.33 81.47 9.63 81.47 8.86ZM80.71 8.86C80.71 9.56 80.63 10.18 80.43 10.72C80.23 11.27 79.97 11.75 79.62 12.12C79.27 12.50 78.85 12.81 78.36 13.01C77.87 13.20 77.34 13.30 76.73 13.30C76.15 13.30 75.61 13.20 75.12 13.01C74.63 12.81 74.21 12.50 73.86 12.12C73.51 11.75 73.23 11.27 73.04 10.72C72.84 10.18 72.76 9.56 72.76 8.86C72.76 8.18 72.84 7.55 73.04 7.00C73.23 6.45 73.51 5.98 73.86 5.60C74.21 5.22 74.63 4.91 75.12 4.72C75.61 4.52 76.15 4.41 76.73 4.41C77.34 4.41 77.87 4.52 78.36 4.72C78.85 4.91 79.27 5.22 79.62 5.60C79.97 5.98 80.23 6.45 80.43 7.00C80.63 7.55 80.71 8.18 80.71 8.86ZM97.73 13.29L97.64 13.29L97.45 13.29C97.37 13.29 97.29 13.27 97.20 13.27L94.23 9.53C94.15 9.42 94.04 9.32 93.93 9.25C94.36 9.21 94.75 9.11 95.10 8.96C95.45 8.81 95.73 8.61 95.98 8.37C96.22 8.13 96.42 7.85 96.54 7.55C96.67 7.24 96.74 6.89 96.74 6.51C96.74 5.66 96.46 5.03 95.90 4.58C95.34 4.14 94.49 3.92 93.34 3.92L90.93 3.92L89.75 3.92L89.75 4.19C89.75 4.34 89.84 4.42 90.02 4.44L90.16 4.44C90.23 4.44 90.33 4.45 90.47 4.45C90.61 4.45 90.76 4.47 90.93 4.47L90.93 13.26C90.76 13.26 90.61 13.27 90.47 13.27C90.33 13.27 90.23 13.29 90.16 13.29L90.02 13.29C89.84 13.30 89.74 13.38 89.74 13.54L89.74 13.82L90.93 13.82L91.64 13.82L92.82 13.82L92.82 13.54C92.82 13.38 92.72 13.30 92.54 13.29L92.40 13.29C92.33 13.29 92.23 13.27 92.09 13.27C91.95 13.27 91.81 13.26 91.64 13.26L91.64 9.34L92.82 9.34C93.02 9.34 93.16 9.35 93.24 9.39C93.32 9.44 93.41 9.52 93.49 9.62L96.67 13.64C96.73 13.71 96.77 13.75 96.82 13.78C96.88 13.80 96.95 13.82 97.02 13.82L97.09 13.82L97.64 13.82L98 13.82L98 13.54C98 13.38 97.92 13.30 97.73 13.29ZM93.24 8.81L91.64 8.81L91.64 4.48L93.34 4.48C94.22 4.48 94.89 4.66 95.35 5.00C95.82 5.33 96.04 5.87 96.04 6.57C96.04 6.92 95.98 7.21 95.86 7.49C95.73 7.77 95.54 7.99 95.30 8.19C95.06 8.39 94.77 8.55 94.42 8.65C94.07 8.75 93.67 8.81 93.24 8.81ZM114.70 13.29L114.62 13.29L114.44 13.29C114.35 13.29 114.25 13.27 114.16 13.27L110.12 9.06C110.04 8.96 109.97 8.89 109.89 8.83C109.80 8.78 109.72 8.74 109.62 8.71C109.70 8.68 109.77 8.64 109.84 8.58C109.91 8.53 110.00 8.46 110.08 8.36L113.88 4.45L114.14 4.45C114.23 4.45 114.28 4.44 114.32 4.44L114.41 4.44C114.59 4.42 114.69 4.34 114.69 4.19L114.69 3.91L113.71 3.91L113.58 3.91L111.78 3.91L111.78 4.19C111.78 4.34 111.87 4.42 112.06 4.44L112.22 4.44C112.32 4.44 112.45 4.45 112.62 4.45L113.06 4.45L109.40 8.22C109.34 8.27 109.28 8.33 109.24 8.36C109.20 8.39 109.14 8.40 109.09 8.43C109.03 8.44 108.99 8.47 108.92 8.47C108.85 8.48 108.77 8.48 108.68 8.48L108.09 8.48L108.09 4.45C108.26 4.45 108.42 4.44 108.56 4.44C108.70 4.44 108.79 4.42 108.86 4.42L109.00 4.42C109.19 4.41 109.27 4.33 109.27 4.17L109.27 3.91L108.09 3.91L107.38 3.91L106.20 3.91L106.20 4.17C106.20 4.33 106.30 4.41 106.48 4.42L106.61 4.42C106.68 4.42 106.79 4.44 106.93 4.44C107.07 4.44 107.21 4.45 107.38 4.45L107.38 13.26C107.21 13.26 107.07 13.27 106.93 13.27C106.79 13.27 106.68 13.29 106.61 13.29L106.48 13.29C106.30 13.30 106.20 13.38 106.20 13.54L106.20 13.82L107.38 13.82L108.09 13.82L109.27 13.82L109.27 13.54C109.27 13.38 109.19 13.30 109.00 13.29L108.86 13.29C108.79 13.29 108.70 13.27 108.56 13.27C108.42 13.27 108.26 13.26 108.09 13.26L108.09 9.04L108.74 9.04C108.85 9.04 108.95 9.04 109.02 9.06C109.09 9.07 109.14 9.09 109.20 9.11C109.26 9.14 109.31 9.17 109.35 9.21C109.40 9.25 109.44 9.28 109.49 9.34L113.34 13.27C113.20 13.27 113.04 13.29 112.87 13.29L112.46 13.29L112.28 13.29C112.10 13.30 112 13.38 112 13.54L112 13.82L113.88 13.82L113.93 13.82L114.10 13.82L114.69 13.82L114.98 13.82L114.98 13.54C114.98 13.38 114.88 13.30 114.70 13.29Z"></path></g></svg>