<svg data-v-fde0c5aa="" xmlns="http://www.w3.org/2000/svg" viewBox="0 0 300 300" class="font"><!----><defs data-v-fde0c5aa=""><!----></defs><rect data-v-fde0c5aa="" fill="#EAE5FE" x="0" y="0" width="300px" height="300px" class="logo-background-square"></rect><defs data-v-fde0c5aa=""><linearGradient data-v-fde0c5aa="" gradientTransform="rotate(25)" id="e0abd374-85fc-475c-8dfc-5cb6729f96f6" x1="0%" y1="0%" x2="100%" y2="0%"><stop data-v-fde0c5aa="" offset="0%" stop-color="#410FF8" stop-opacity="1"></stop><stop data-v-fde0c5aa="" offset="100%" stop-color="#410FF8" stop-opacity="1"></stop></linearGradient></defs><g data-v-fde0c5aa="" id="4688a2d7-86d5-4daf-93ee-7d177727ac3d" fill="url(#e0abd374-85fc-475c-8dfc-5cb6729f96f6)" transform="matrix(6.634499427392771,0,0,6.634499427392771,39.60193001853855,94.50241064480002)"><path d="M7.46 14L8.92 14L4.58 4.06L4.38 4.06L0.06 14L1.53 14L2.39 11.91L6.59 11.91ZM2.93 10.63L4.49 6.85L6.06 10.63ZM12.11 4.13C12.45 4.13 12.71 4.24 12.96 4.37L12.96 3.02C12.67 2.88 12.24 2.73 11.75 2.73C10.79 2.73 10.21 3.36 10.21 4.45L10.21 7L9.31 7L9.31 8.26L10.21 8.26L10.21 14L11.54 14L11.54 8.26L12.96 8.26L12.96 7L11.54 7L11.54 4.77C11.54 4.34 11.77 4.13 12.11 4.13ZM19.05 14L20.57 14L18.19 10.05C19.46 9.62 20.17 8.50 20.17 7.22C20.17 5.67 19.00 4.20 17.00 4.20L14.34 4.20L14.34 14L15.67 14L15.67 10.23L16.90 10.23ZM15.67 5.50L16.94 5.50C18.06 5.50 18.83 6.20 18.83 7.22C18.83 8.23 18.06 8.95 16.94 8.95L15.67 8.95ZM22.08 14L23.41 14L23.41 4.20L22.08 4.20ZM28.31 4.20L25.73 4.20L25.73 14L28.31 14C31.39 14 33.22 11.79 33.22 9.07C33.22 6.37 31.39 4.20 28.31 4.20ZM28.32 12.70L27.06 12.70L27.06 5.50L28.32 5.50C30.56 5.50 31.88 7.07 31.88 9.07C31.88 11.03 30.56 12.70 28.32 12.70Z"></path></g><!----><!----></svg>