<svg data-v-423bf9ae="" xmlns="http://www.w3.org/2000/svg" viewBox="0 0 313 90" class="iconLeftSlogan"><!----><!----><!----><g data-v-423bf9ae="" id="44844ddd-ad7d-4e82-8464-7c55612ad137" fill="#ffffff" transform="matrix(5.459508757923784,0,0,5.459508757923784,97.88266667476177,-11.901728741479637)"><path d="M9.95 13.05L7.62 13.05L7.62 13.05Q7.46 12.54 7.27 12.01L7.27 12.01L7.27 12.01Q7.08 11.48 6.90 10.95L6.90 10.95L3.12 10.95L3.12 10.95Q2.94 11.48 2.75 12.01L2.75 12.01L2.75 12.01Q2.56 12.54 2.41 13.05L2.41 13.05L0.14 13.05L0.14 13.05Q0.69 11.48 1.18 10.15L1.18 10.15L1.18 10.15Q1.67 8.82 2.14 7.64L2.14 7.64L2.14 7.64Q2.60 6.47 3.06 5.41L3.06 5.41L3.06 5.41Q3.51 4.35 4.00 3.35L4.00 3.35L6.09 3.35L6.09 3.35Q6.57 4.35 7.03 5.41L7.03 5.41L7.03 5.41Q7.49 6.47 7.96 7.64L7.96 7.64L7.96 7.64Q8.43 8.82 8.92 10.15L8.92 10.15L8.92 10.15Q9.41 11.48 9.95 13.05L9.95 13.05ZM5.00 5.54L5.00 5.54L5.00 5.54Q4.93 5.75 4.79 6.12L4.79 6.12L4.79 6.12Q4.65 6.48 4.47 6.96L4.47 6.96L4.47 6.96Q4.28 7.43 4.07 8.01L4.07 8.01L4.07 8.01Q3.85 8.58 3.63 9.21L3.63 9.21L6.38 9.21L6.38 9.21Q6.16 8.58 5.95 8.01L5.95 8.01L5.95 8.01Q5.74 7.43 5.55 6.96L5.55 6.96L5.55 6.96Q5.36 6.48 5.22 6.12L5.22 6.12L5.22 6.12Q5.08 5.75 5.00 5.54ZM14.27 2.18L14.27 2.18L14.27 2.18Q14.85 2.18 15.34 2.30L15.34 2.30L15.34 2.30Q15.83 2.42 16.10 2.53L16.10 2.53L15.69 4.20L15.69 4.20Q15.41 4.07 15.09 4.01L15.09 4.01L15.09 4.01Q14.76 3.95 14.48 3.95L14.48 3.95L14.48 3.95Q14.10 3.95 13.84 4.05L13.84 4.05L13.84 4.05Q13.58 4.16 13.43 4.34L13.43 4.34L13.43 4.34Q13.29 4.52 13.22 4.77L13.22 4.77L13.22 4.77Q13.16 5.03 13.16 5.32L13.16 5.32L13.16 5.68L15.74 5.68L15.74 7.42L13.16 7.42L13.16 13.05L11.07 13.05L11.07 5.29L11.07 5.29Q11.07 3.86 11.88 3.02L11.88 3.02L11.88 3.02Q12.68 2.18 14.27 2.18ZM19.96 3.23L19.96 3.23L19.96 3.23Q22.15 3.23 23.31 4.01L23.31 4.01L23.31 4.01Q24.47 4.79 24.47 6.43L24.47 6.43L24.47 6.43Q24.47 7.45 24.00 8.09L24.00 8.09L24.00 8.09Q23.53 8.72 22.65 9.09L22.65 9.09L22.65 9.09Q22.95 9.45 23.27 9.92L23.27 9.92L23.27 9.92Q23.59 10.39 23.91 10.90L23.91 10.90L23.91 10.90Q24.22 11.41 24.51 11.96L24.51 11.96L24.51 11.96Q24.81 12.52 25.06 13.05L25.06 13.05L22.61 13.05L22.61 13.05Q22.34 12.57 22.07 12.08L22.07 12.08L22.07 12.08Q21.80 11.59 21.51 11.13L21.51 11.13L21.51 11.13Q21.22 10.67 20.94 10.25L20.94 10.25L20.94 10.25Q20.66 9.84 20.38 9.51L20.38 9.51L19.31 9.51L19.31 13.05L17.12 13.05L17.12 3.49L17.12 3.49Q17.84 3.35 18.60 3.29L18.60 3.29L18.60 3.29Q19.36 3.23 19.96 3.23ZM20.09 5.10L20.09 5.10L20.09 5.10Q19.85 5.10 19.66 5.11L19.66 5.11L19.66 5.11Q19.47 5.12 19.31 5.14L19.31 5.14L19.31 7.77L19.92 7.77L19.92 7.77Q21.15 7.77 21.69 7.46L21.69 7.46L21.69 7.46Q22.22 7.15 22.22 6.41L22.22 6.41L22.22 6.41Q22.22 5.70 21.68 5.40L21.68 5.40L21.68 5.40Q21.14 5.10 20.09 5.10ZM26.46 13.05L26.46 3.35L28.64 3.35L28.64 13.05L26.46 13.05ZM33.07 5.14L33.07 11.27L33.07 11.27Q33.22 11.28 33.42 11.29L33.42 11.29L33.42 11.29Q33.63 11.30 33.91 11.30L33.91 11.30L33.91 11.30Q35.55 11.30 36.34 10.47L36.34 10.47L36.34 10.47Q37.13 9.65 37.13 8.19L37.13 8.19L37.13 8.19Q37.13 6.66 36.37 5.88L36.37 5.88L36.37 5.88Q35.62 5.10 33.98 5.10L33.98 5.10L33.98 5.10Q33.75 5.10 33.52 5.10L33.52 5.10L33.52 5.10Q33.28 5.11 33.07 5.14L33.07 5.14ZM39.38 8.19L39.38 8.19L39.38 8.19Q39.38 9.45 38.99 10.39L38.99 10.39L38.99 10.39Q38.60 11.33 37.88 11.94L37.88 11.94L37.88 11.94Q37.16 12.56 36.12 12.87L36.12 12.87L36.12 12.87Q35.08 13.17 33.80 13.17L33.80 13.17L33.80 13.17Q33.21 13.17 32.42 13.13L32.42 13.13L32.42 13.13Q31.64 13.08 30.88 12.92L30.88 12.92L30.88 3.47L30.88 3.47Q31.64 3.33 32.46 3.28L32.46 3.28L32.46 3.28Q33.28 3.23 33.87 3.23L33.87 3.23L33.87 3.23Q35.11 3.23 36.13 3.51L36.13 3.51L36.13 3.51Q37.14 3.79 37.87 4.40L37.87 4.40L37.87 4.40Q38.60 5.00 38.99 5.94L38.99 5.94L38.99 5.94Q39.38 6.87 39.38 8.19Z"></path></g><!----><g data-v-423bf9ae="" id="92b53734-a08e-4f4a-bca4-e316d730f18c" transform="matrix(1.2342896317088619,0,0,1.2342896317088619,-5.374136020574959,-1.2676160334328301)" stroke="none" fill="#ffffff"><path d="M37.656 73.984c-.379-.24-.636-.828-.801-1.224-.162-.39-.268-.787-.391-1.189a7.316 7.316 0 0 1-.169-.667c-.095-.463-.196-.922-.24-1.388l-.022-.42-.004-.035c-.034-.084-.095-.194-.14-.279-.154-.294-.312-.58-.526-.837-.318-.38-.654-.749-.936-1.154a3.58 3.58 0 0 1-.62-1.718c-.016.067-.035.135-.054.204.017-.072.036-.149.052-.226a3.089 3.089 0 0 1-.011-.289l.007.037a4.104 4.104 0 0 1-.078-.476 11.638 11.638 0 0 1-.304-.324.058.058 0 0 1 .002-.082.06.06 0 0 1 .082.002c.067.072.134.142.203.212-.024-.322-.023-.645-.027-.969a5.22 5.22 0 0 0-.388-1.25c-.176-.404-.368-.792-.555-1.188-.064-.135-.133-.268-.199-.403-.032-.067-.089-.2-.115-.24-.054-.088-.1-.19-.15-.282a16.353 16.353 0 0 1-.335-.643c-.088-.178-.179-.355-.266-.534-.018-.02-.034-.041-.05-.062-.143-.185-.222-.48-.294-.702-.03-.094-.087-.192-.126-.285-.14-.338-.301-.63-.385-.979-.128-.528.149-1.065.292-1.557.041-.14.079-.279.098-.423.009-.061.041-.147.057-.212.023-.094.049-.189.072-.285.109-.45.244-.898.351-1.348.081-.344.174-.683.258-1.025l.045-.198c.002-.161 0-.321-.003-.478-.009-.403.008-.81.001-1.214-.011-.617-.027-1.234-.027-1.851 0-.219-.005-.441-.005-.662-.117-.213-.236-.421-.338-.618a5.748 5.748 0 0 1-.439-1.05.169.169 0 0 1-.226-.137 3.309 3.309 0 0 1-.034-.493c-.138-.193-.275-.389-.423-.576-.103-.128-.203-.259-.306-.388-.074-.094-.22-.245-.259-.354-.03-.085-.001-.24-.017-.275-.01-.022-.008-.046-.014-.064-.008-.02-.021-.035-.03-.059-.01-.03-.054-.076-.071-.109a.353.353 0 0 1-.024-.34l-.08-.043a2.225 2.225 0 0 1-.645-.585 4.936 4.936 0 0 1-.231-.345c-.078-.125-.141-.296-.193-.435a.665.665 0 0 1-.058-.328c-.001.003-.003.003-.004.002a.182.182 0 0 1-.1-.235l.004-.01a2.731 2.731 0 0 1-.03-.181 6.776 6.776 0 0 0-.419-.311l-.378-.258.133.53-.043.01a35.705 35.705 0 0 0-.118-.469c-.007-.026-.046-.123-.018-.14.02-.013.272.16.312.186.178.118.35.244.521.372a4.48 4.48 0 0 1-.032-.479.595.595 0 0 1-.019-.15.229.229 0 0 1 .019-.11c.002-.133.009-.271.018-.409.01-.167.133-.3.289-.332a.375.375 0 0 1-.014-.183c.027-.194.077-.388.107-.583.096-.616.168-1.087.041-1.701a1.537 1.537 0 0 0-.107-.326c-.027-.052-.052-.124-.081-.173-.033-.054-.072-.108-.105-.162l-.033-.049.007.054c.031.28.011.563.026.843a.207.207 0 0 1-.206.206.207.207 0 0 1-.206-.206c-.01-.204-.002-.408-.023-.612a5.881 5.881 0 0 0-.104-.617l-.079-.04c-.165-.081-.33-.16-.493-.244-.254-.13-.506-.261-.751-.4-.046-.011-.093-.021-.139-.033a.357.357 0 0 1-.471-.036c-.022-.021-.051-.047-.07-.071-.015-.017-.021-.037-.033-.054a1.738 1.738 0 0 1-.57-.32.21.21 0 0 1-.002-.337 7.612 7.612 0 0 1-.083-.105c-.09-.112-.179-.235-.271-.342-.095-.11-.196-.213-.294-.32-.078-.085-.212-.174-.307-.243a1.604 1.604 0 0 0-.27-.14 2.454 2.454 0 0 0-.98-.172l-.079.003.058-.002a1.852 1.852 0 0 1-.158.033l-.052.005-.092.103c-.36.358-1.021.541-1.492.695-.086.028-.18.046-.267.069-.331.087-.667.155-1.004.214-.252.045-.505.085-.758.12a3.435 3.435 0 0 1-.642.078c-.388.042-.78.074-1.172.095-.377.02-.926.039-1.289-.047-.121-.028-.171-.103-.252-.184a1.028 1.028 0 0 1-.215-.303l-.083.048c-.147.087-.299.197-.438.296a3.73 3.73 0 0 1-1.355.64c-.579.134-1.451.025-2.011-.182-.21-.077-.485-.167-.671-.289-.064-.042-.133-.074-.196-.118a1.972 1.972 0 0 1-.31-.248c-.01 0-.016-.003-.023-.006-.745-.356-1.329-.918-1.824-1.563l-.486-.724-.294-.289a10.604 10.604 0 0 1-1.216-1.475 15.51 15.51 0 0 1-1.391-2.558l-.037-.04a6.744 6.744 0 0 1-.624-.757c-.154-.225-.346-.535-.333-.819.006-.131.04-.267.143-.34l-.037-.095a.35.35 0 0 1 .422-.466c-.002-.049-.025-.091-.009-.15.036-.135.081-.27.115-.405l.007-.03a.346.346 0 0 1-.117-.434c.062-.153.138-.281.185-.444.029-.096.067-.199.089-.296.066-.285.106-.55.138-.837.015-.139.036-.27.029-.412.016-.532-.023-1.043-.182-1.539-.036-.261-.107-.516-.163-.751a11.6 11.6 0 0 1-.102-.453 2.133 2.133 0 0 1-.246-.497c-.382-1.153.266-2.277.935-3.182.192-.26.387-.52.584-.779l.226-.359c.13-.206.262-.411.393-.617a1.836 1.836 0 0 1-.121-.477c-.002-.024.014-.048.038-.051.023-.003.047.014.05.037.016.142.051.263.096.394l.603-.926c-.09.082-.178.174-.261.267a.253.253 0 0 1-.378-.334c.096-.102.198-.236.31-.319.105-.078.198-.175.307-.25.243-.168.483-.331.732-.489.092-.249.169-.507.227-.776a.382.382 0 0 1 .704-.086c.255-.163.517-.319.774-.481l.086-.054c-.073-.143-.147-.283-.217-.43-.012-.026-.001-.059.025-.07.026-.012.059-.001.07.025.066.141.132.285.207.421.124-.079.257-.167.388-.262l.04-.034.492-.417c.035-.037.069-.075.099-.112a.048.048 0 0 1 .005-.035.042.042 0 0 1 .038-.021l.006-.008c.068-.096.129-.186.188-.287l.078-.173.037-.232c.006-.069-.002-.153-.001-.224.004-.295.02-.525.139-.795a.983.983 0 0 1 .178-.256c.012-.205.055-.397.157-.628.102-.233.293-.301.497-.363a8.046 8.046 0 0 1-.312-.623.065.065 0 0 1 .031-.086c.033-.014.072-.001.086.031.096.221.203.433.321.639l.094-.034c.254-.1.515-.283.71-.472.2-.194.383-.402.554-.621a4.884 4.884 0 0 1-.178-.335c-.014-.028-.004-.064.024-.078a.059.059 0 0 1 .078.023c.047.1.098.195.153.29l.057-.077c.112-.151.226-.303.333-.456.227-.323.598-.833 1.001-1.162a.236.236 0 0 0-.004-.067l-.004-.025a.287.287 0 0 1 .235-.329c.106-.016.209.028.225.162a.107.107 0 0 1 .032-.023.286.286 0 0 1 .296-.177c.244.043.507.053.754.087.378.053.782.083 1.165.109.539.036 1.087.072 1.627.046a3.47 3.47 0 0 1 .145-.003c.17-.138.332-.29.488-.436.264-.247.721-.636 1.083-.693.36-.056.722-.089 1.084-.109.214-.148.465-.309.682-.381.336-.111.755-.123 1.106-.107.194.009.408.011.601.037.269.036.546.058.816.092.613.076 1.226.17 1.841.241.189-.032.374-.07.553-.12.159-.045.278-.107.426-.162a.359.359 0 0 1 .178-.032.353.353 0 0 1 .263-.051c.028.012.074.013.104.023.032.01.064.027.095.035.043.013.22.098.254.122h.061c.076-.006.136.009.21.02.097.013.25.099.323.104.022.001.058-.006.088-.004a.338.338 0 0 1 .138.047c.074.041.316.297.354.38a.703.703 0 0 1 .031.169c.013.165-.024.362-.075.558a3.544 3.544 0 0 0 .247.951c.026.067.064.129.094.195.059.13.144.302.227.419a.416.416 0 0 1-.065.501c.416.46.984.774 1.583 1.029l.222.031-.092-.156a.053.053 0 0 1 .019-.07.052.052 0 0 1 .069.019l.134.228c.301.053.597.134.833.293.092.063.177.129.255.199.119.045.236.091.35.137.305.126.681.288 1.139.657l-.005-.01.063-.03c.006.015.011.029.018.041.117.097.222.202.306.318.266.064.529.154.742.275.1.057.186.113.27.176a.391.391 0 0 1 .455-.08c.084.018.188.048.274.06.128.017.396.02.565-.036l.037-.018.001-.115c-.012-.261-.027-.531.014-.788.021-.136.067-.324.156-.427.129-.15.546-.241.744-.259a4.25 4.25 0 0 1 1.3.108.24.24 0 0 1 .391-.276c.074.085.148.17.226.251.099.103.231.219.38.333.034.011.067.022.101.031.44.148.922.266 1.382.338.216.034.431.076.65.095.219.019.446.033.665.056.088.01.178.007.269.017.937.107 1.878.161 2.82.174a1.849 1.849 0 0 1-.099-.099l.025-.027c.04.042.087.085.133.126.256.004.512.003.77 0 .07 0 .134.033.174.086.072.003.139.013.213.017.063.004.149.042.208.059.321.091.594.378.868.56.053.035.118.084.175.111.049.023.122.049.162.08.058.045.09.09.115.159.022.06.01.403-.008.475-.006.026-.03.078-.032.098a.62.62 0 0 0 0 .061c.198.201.394.402.589.608.134.141.277.288.402.438.143.17.288.344.433.514.343.4.68.885.93 1.348.102.186.251.462.283.673.013.08.005.146.006.225a.317.317 0 0 1-.039.256c.114.23.236.455.366.676.267.455.564.895.861 1.332.283.415.583.821.867 1.236.222.325.459.672.635 1.006.298.571.319 1.215.358 1.851a10.566 10.566 0 0 1 .434.942c.053.131.101.271.16.398-.189-.331-.363-.673-.57-.996.027.296.069.586.159.862l.171.399.975 1.691c.161.259.327.515.508.759.133.172.285.346.425.514.271.328.53.669.797 1.001v.003c.017.003.031.01.045.018.058.033.109.094.154.143.199.213.311.402.462.645.107.173.196.367.281.569l.086.106c.268.337.552.665.823 1.001l.423.517.299.028c.443-.014.878-.177 1.294-.324.311-.109.596-.221.883-.307a4.158 4.158 0 0 1-.478-.63 3.9 3.9 0 0 0 .494.625c.343-.101.69-.165 1.088-.142.385.023.782.169 1.166.316.358-.112.754-.196 1.065-.138.111.022.186.048.291.086a.866.866 0 0 1 .253.176l.028.027a.4.4 0 0 1 .299.741l-.011.005c.006.08.007.161.007.24-.002.24-.137.566-.23.787a1.02 1.02 0 0 0-.056.175.56.56 0 0 1-.057.27c-.252.498-.547.977-.862 1.438-.251.367-.505.73-.768 1.089-.249.34-.501.678-.757 1.016-.033.054-.066.112-.098.168a6.234 6.234 0 0 0-.309.624c-.064.152-.176.336-.256.489-.16.307-.36.634-.551.921-.159.24-.31.483-.478.716-1.074 1.491-2.312 2.812-3.493 4.215-.156.185-.321.366-.48.549-.102.117-.197.241-.298.359a11.362 11.362 0 0 0-1.069 1.533 5.313 5.313 0 0 0-.333.639c-.055.134-.124.266-.175.401-.052.134-.1.277-.146.414a3.43 3.43 0 0 0-.087.295c.134.104.132.193.201.346.052.116.093.241.128.368a6.706 6.706 0 0 1 .424.364.087.087 0 1 1-.113.134 7.786 7.786 0 0 1-.227-.18.437.437 0 0 0 .012.049c.108.419.082.856.096 1.283.008.287-.005.575-.029.861.183.166.37.328.561.481.04.034.045.097.011.137a.1.1 0 0 1-.138.011 28.376 28.376 0 0 1-.45-.385l.022.284c.052.811.047 1.609.049 2.421.001.516-.005 1.035-.01 1.552-.002.175.001.35.001.526 0 .079.006.165-.005.244-.017.104-.113.297-.16.397-.079.167-.15.348-.223.519-.248.579-.51 1.183-.866 1.708l-.041.167c-.027.106-.077.189-.108.28-.029.084-.243.331-.307.412-.218.275-.455.525-.681.791-.172.203-.369.391-.546.59-.312.354-.646.693-.978 1.032.287.221.586.407.886.609a.062.062 0 0 1 .018.084.062.062 0 0 1-.084.017c-.314-.192-.616-.4-.907-.621-.156.158-.31.317-.461.477-.168.178-.341.36-.497.548-.028.034-.062.07-.094.107l-.022.055-.02.243-.006.081c.386.32.779.632 1.181.937-.149.014-.285-.149-.402-.228a9.516 9.516 0 0 1-.781-.618l.002.264c-.001.37.04.774.071 1.144.015.191-.008.422-.017.616-.007.139-.035.65-.087.753-.06.118-.159.134-.267.19-.117.061-.25.164-.362.248a.37.37 0 0 1 .142.313l.104.081c.023.018.029.053.011.076a.054.054 0 0 1-.076.012.715.715 0 0 1-.068-.044.37.37 0 0 1-.23.208c-.018.091-.036.182-.058.278a.203.203 0 0 1-.394-.094l.028-.126c-.214.035-.42.099-.562.271a.894.894 0 0 0-.165.4c.069.061.139.124.209.184a.069.069 0 0 1 .005.095.069.069 0 0 1-.095.005l-.143-.126c-.01.085-.017.168-.022.242-.03.413-.022.788-.1 1.198-.021.109-.074.374-.142.457-.035.043-.072.07-.112.108-.318.29-.662.567-.994.842l-.364.3a31.683 31.683 0 0 1-2.477 2.552c-.443.412-.927.851-1.413 1.213-.165.122-.329.267-.499.381l-.034.053c-.059.089-.123.196-.192.276-.173.203-.345.369-.532.556a.383.383 0 0 1-.247.12h-.288a8.968 8.968 0 0 1-.591-.016c-.087-.005-.176-.002-.263-.015-.184-.026-.385-.02-.566-.056-.208-.04-.415-.072-.62-.112a.467.467 0 0 1-.052.003c-.85.032-1.63.207-2.459.391-.333.075-.892.349-1.216.144zm.48-.759c.193-.061.426-.103.63-.148.274-.059.549-.122.826-.179-.025-.025-.048-.055-.071-.079-.073-.078-.151-.121-.237-.178-.129-.084-.295-.093-.438-.126a.216.216 0 0 1-.181-.243.215.215 0 0 1 .243-.18c.051.01.104.012.154.023.188.039.331.092.491.181-.46-.528-.916-1.063-1.386-1.584a20.709 20.709 0 0 0-1.051-1.106c-.093-.089-.188-.179-.281-.27a.68.68 0 0 0 .013.101c.023.123.025.253.054.377.02.091.032.19.049.283.065.367.152.77.255 1.127.084.293.159.619.272.901.08.2.149.395.236.593.044.102.104.2.15.298.019.04.062.111.113.176l.056.059.103-.026zm4.693-.258c.214-.055.439-.16.628-.33-.178-.142-.36-.282-.539-.422a26.734 26.734 0 0 1-1.389-1.173c-.387-.345-.749-.713-1.113-1.082-.285-.29-.575-.61-.828-.928-.317-.4-.642-.794-.916-1.227a.07.07 0 0 1 .019-.098.07.07 0 0 1 .098.018c.716 1.062 1.584 2.014 2.54 2.866.128.114.251.234.38.346.623.545 1.26 1.074 1.912 1.584.018.016.03.037.034.059a10.92 10.92 0 0 0 .57-.387c.287-.492.538-1.019.877-1.475a54.715 54.715 0 0 1-.975-1.01 41.716 41.716 0 0 1-1.418-1.61 66.062 66.062 0 0 1-.757-.907c-.155-.19-.32-.38-.466-.575l.052-.043c.16.214.349.436.524.637.245.279.479.57.725.848.774.875 1.571 1.73 2.391 2.561.052-.065.106-.128.162-.189.191-.207.382-.31.62-.444.264-.15.51-.339.762-.507-.319-.329-.637-.659-.97-.974-.454-.428-.916-.847-1.374-1.273-.426-.396-.845-.828-1.254-1.244l-.28-.284-.032.027a10.94 10.94 0 0 1-.331-.383c-.02-.023-.084-.079-.108-.125l-.005-.033.048.003.025.018c.03.027.059.061.066.068a25.576 25.576 0 0 0 1.331 1.19c.92.766 1.777 1.576 2.632 2.411.152.149.298.308.447.463.186-.135.371-.284.55-.422.219-.169.435-.342.65-.515a.061.061 0 0 1-.044-.003 3.097 3.097 0 0 1-.644-.434c-.469-.386-.859-.843-1.244-1.31a64.14 64.14 0 0 1-1.07-1.33c-.178-.227-.368-.439-.554-.658a4.172 4.172 0 0 0-.321-.343c-.066-.06-.134-.134-.202-.187-.064-.05-.142-.107-.2-.16l.033-.043c.074.067.168.121.239.194.062.063.137.122.201.187.104.107.206.217.307.326.178.192.341.396.509.595.455.539.888 1.105 1.361 1.63.458.508 1.019 1.122 1.638 1.429a.057.057 0 0 1 .024.076c.319-.254.383-.305.446-.357.32-.371.663-.777.918-1.185.047-.074.095-.146.138-.223l.055-.111.057-.207c.017-.074.028-.15.029-.236.005-.309-.068-.638-.035-.943.024-.22.063-.406.166-.597-.39-.362-.778-.728-1.164-1.093-1.074-1.013-2.146-2.039-3.165-3.108l.031-.031a56.203 56.203 0 0 0 2.586 2.511c.541.501 1.098.985 1.645 1.48l.138.126c.257-.371.747-.622 1.162-.758a.38.38 0 0 1 .39.083l.003-.001-.172-.142a36.225 36.225 0 0 1-1.837-1.667 47.855 47.855 0 0 1-1.442-1.443c-.17-.178-.34-.368-.515-.54-.237-.235-.46-.492-.689-.734-.195-.205-.393-.42-.579-.633l.053-.046c.359.412.752.83 1.136 1.22.467.477.923.963 1.407 1.424.75.716 1.488 1.437 2.283 2.101.153.129.308.26.465.389l.036-.027c.026-.607-.014-1.215.016-1.821l-.223-.192a70.01 70.01 0 0 1-2.359-2.096c-.876-.817-1.764-1.624-2.639-2.441 1.285 1.195 2.63 2.334 3.958 3.479.422.365.844.74 1.272 1.107.027-.391.089-.781.221-1.169.033-.097.084-.201.144-.306a5.08 5.08 0 0 1 .019-.173c-.532-.466-1.05-.95-1.505-1.498a1.53 1.53 0 0 1-.177-.155 8.005 8.005 0 0 1-.304-.307c-1.075-.996-1.339-1.268-1.602-1.54l.043-.043c.515.533 1.03 1.066 1.559 1.583-.401-.307.011.107.481.462.454.459.98.945 1.519 1.416.034-.149.15-.33.222-.457.2-.355.545-.756.822-1.075-.824-.719-1.579-1.523-2.33-2.316-.608-.641-1.21-1.284-1.828-1.914-.248-.253-.525-.487-.77-.74l.021-.023c.121.124.258.24.383.36.134.129.266.259.399.389.362.355.712.724 1.067 1.086 1.038 1.058 2.028 2.107 3.141 3.064.398-.455.809-.899 1.221-1.341-.214-.196-.43-.39-.652-.583-.617-.532-1.254-1.043-1.875-1.572-.331-.282-.65-.583-.968-.881-.304-.287-.583-.604-.861-.916a.052.052 0 0 1 .005-.072.053.053 0 0 1 .071.005c.736.898 1.722 1.718 2.61 2.455.545.451 1.084.901 1.614 1.367l.13.118.368-.394c.191-.205.376-.413.563-.62.076-.084.169-.186.256-.287l-.304-.222c-.908-.649-1.75-1.445-2.552-2.22-.745-.72-1.471-1.464-2.194-2.206-.377-.387-.771-.76-1.143-1.15v-.056h.056c.405.422.836.832 1.25 1.247.729.731 1.461 1.469 2.222 2.166.341.313.678.637 1.032.933.276.232.551.466.828.697.292.243.591.474.893.704.04-.051.076-.101.106-.148.015-.071.029-.141.048-.211.038-.146.057-.308.087-.456.058-.293.102-.59.148-.885l-1.808-1.681c-1.265-1.173-2.531-2.351-3.701-3.62a.054.054 0 0 1 .002-.074.054.054 0 0 1 .074.002c1.233 1.33 2.57 2.565 3.917 3.778.519.467 1.032.944 1.545 1.418.014-.088.03-.176.046-.264.033-.172.055-.354.079-.528l.104-.713c-.108-.091-.218-.183-.328-.278-.306-.26-.595-.544-.885-.823a48.57 48.57 0 0 1-1.019-1.011c-.782-.795-1.56-1.604-2.376-2.363-.198-.183-.396-.374-.6-.549-.134-.115-.276-.23-.407-.35-.019-.018-.022-.05-.004-.069a.049.049 0 0 1 .069-.005c.262.241.542.472.809.71.246.221.483.459.725.684.237.22.46.457.692.681.556.537 1.099 1.096 1.648 1.641a33.068 33.068 0 0 0 1.7 1.566l.045-.29c.091-.588.173-1.183.251-1.778-.29-.256-.577-.516-.868-.772a55.666 55.666 0 0 1-2.206-2.059c-1.293-1.257-2.565-2.646-3.594-4.128l.009-.058.059.009c.451.662.977 1.284 1.497 1.892 1.288 1.506 2.812 2.873 4.304 4.171.274.24.552.476.829.712l.064-.493c.045-.353.1-.715.131-1.067l.008-.087a12.773 12.773 0 0 1-.107-.467 6.143 6.143 0 0 1-.083-.464c-1.892-1.84-3.53-3.93-5.111-6.042a.055.055 0 0 1 .011-.077.056.056 0 0 1 .077.01c.498.665.998 1.33 1.52 1.975.62.766 1.257 1.501 1.917 2.232a27.524 27.524 0 0 0 1.583 1.628 3.796 3.796 0 0 1-.075-.653 32.26 32.26 0 0 1-.12-.634c-.071-.381-.142-.753-.168-1.132a41.715 41.715 0 0 1-1.469-1.552c-.809-.887-1.626-1.792-2.475-2.641-.259-.26-.531-.507-.789-.765l-.002-.067.066-.002c.257.256.526.5.784.756.218.216.428.443.648.657.265.261.519.538.775.808.269.284.541.565.812.849a71.414 71.414 0 0 0 1.638 1.663c0-.053.001-.108.004-.164.018-.425.39-1.073.612-1.433l.086-.139c-1.909-1.703-3.698-3.611-5.126-5.725l.055-.037c.213.338.472.67.713.99a20.842 20.842 0 0 0 1.538 1.794 55.53 55.53 0 0 0 2.917 2.826c.275-.432.567-.857.868-1.276a11.15 11.15 0 0 1-.438-.342c-.263-.214-.528-.422-.781-.647a22.096 22.096 0 0 1-.741-.696c-.899-.877-1.729-1.803-2.571-2.736-.226-.251-.455-.498-.678-.751l.048-.045c1.63 1.799 3.306 3.624 5.255 5.088.35-.482.712-.957 1.074-1.426.32-.415.642-.828.965-1.24-.26-.162-.502-.338-.753-.516a7.953 7.953 0 0 1-.723-.587c-.286-.262-.568-.513-.842-.788a34.033 34.033 0 0 1-1.759-1.942 1.678 1.678 0 0 0-.056-.063c-.007-.006-.015-.012-.019-.02l-.015-.02c-.342-.399-.698-.794-1.038-1.198-.148-.175-.313-.338-.463-.512-.334-.389-.726-.756-1.084-1.125l.039-.039c.339.349.688.689 1.019 1.045.443.477.871.965 1.305 1.451l.061.07-.02-.037c-.244-.403-.509-.751-.791-1.127-.099-.132-.216-.258-.323-.385-.262-.316-.55-.619-.824-.925-.942-1.05-1.876-2.088-2.37-3.432l.041-.016c.491 1.335 1.423 2.379 2.364 3.417.274.303.552.605.819.915.082.096.162.201.247.294.093.102.181.231.267.34.271.348.498.711.711 1.093.526.596 1.056 1.215 1.621 1.769.272.267.541.526.821.785.495.457 1.059.891 1.611 1.279.079.057.158.112.238.168l.955-1.21a.058.058 0 0 1-.046-.009c-.704-.456-1.344-.996-1.958-1.568a31.986 31.986 0 0 1-2.393-2.519c-1.121-1.297-2.22-2.601-3.387-3.856l.025-.023c.598.642 1.176 1.292 1.763 1.943.656.728 1.292 1.48 1.964 2.194.29.306.578.611.87.916.773.809 1.584 1.601 2.47 2.285.231.178.469.367.712.529.017.011.026.03.027.048l.247-.311c.384-.487.781-.969 1.159-1.461.432-.561.874-1.122 1.313-1.678.079-.1.158-.2.234-.3.087-.159.18-.314.285-.464.175-.254.348-.511.523-.766.262-.381.54-.787.736-1.209.071-.154.119-.303.178-.459.032-.086.056-.186.074-.287l.039-.26-.007-.198a1.55 1.55 0 0 1 .076-.396 3.086 3.086 0 0 0-.111-.076c-.192-.128-.391-.249-.584-.376l-.289-.187c-.774.266-1.529.544-2.382.6-.15.01-.314.009-.467-.013.891.68 1.822 1.31 2.78 1.891a.114.114 0 0 1 .038.154.113.113 0 0 1-.153.038c-.5-.285-1.005-.618-1.478-.946a27.458 27.458 0 0 1-1.76-1.327 1.624 1.624 0 0 0-.084-.027c-.061-.014-.108-.018-.168-.028l.035.001c-.15 0-.255-.007-.4-.051-.054-.016-.238-.096-.278-.093l-.053-.006c-.113.011-.22.008-.317-.062-.067-.047-.133-.09-.199-.137a1.876 1.876 0 0 1-.319-.317 3.409 3.409 0 0 1-.419-.67c-.095-.204-.18-.419-.273-.627-.407-.497-.82-1.011-1.176-1.565a.776.776 0 0 1-.109-.113 34.888 34.888 0 0 1-1.348-1.695.076.076 0 0 1 .014-.105.08.08 0 0 1 .044-.014c-.056-.088-.113-.177-.168-.266a14.707 14.707 0 0 1-1.139-1.335c-.019-.038-.072-.098-.1-.144a2.184 2.184 0 0 1-.205-.403c-.026-.077-.065-.174-.082-.252-.047-.216-.066-.427-.098-.644l-.081-.414-.067-.169a2.05 2.05 0 0 0-.21-.32c-.162-.217-.334-.426-.496-.645a2.326 2.326 0 0 1-.213-.343l-.119-.376.006.021-.007-.024-.074-.315c-.055-.355-.049-.742-.071-1.082a3.332 3.332 0 0 0-.021-.213c-.802-1.051-1.62-2.093-2.35-3.194a.092.092 0 0 1-.017-.052 4.899 4.899 0 0 1-.257-.264c-.576-.648-.965-1.363-1.359-2.128-.129-.25-.274-.511-.39-.764-.124-.27-.264-.528-.401-.79-.09-.17-.199-.37-.308-.527l-.176-.259-.018-.007-.082-.032a7.063 7.063 0 0 0-.402-.114c-.126-.033-.267-.037-.391-.065-.115-.026-.291-.025-.409-.031-.209-.012-.413-.013-.622-.012-.664.004-1.315.066-1.983.039a7.144 7.144 0 0 1-1.27-.152c.311.403.602.798.883 1.224.434.659.83 1.363 1.235 2.042.706 1.185 1.533 2.487 2.596 3.378a.094.094 0 0 1 .007.132.093.093 0 0 1-.132.006c-.136-.122-.296-.25-.42-.382-.106-.113-.216-.222-.322-.336a9.129 9.129 0 0 1-1.012-1.328c-.478-.779-.89-1.575-1.341-2.369-.14-.245-.274-.506-.422-.744-.164-.264-.322-.527-.494-.786-.195-.295-.41-.567-.624-.848a4.648 4.648 0 0 1-1.008-.353c-.203-.051-.407-.109-.616-.166a2.984 2.984 0 0 1-.046-.012.373.373 0 0 1-.565.251c-.291-.184-.624-.459-.97-.501l-.083-.002v.152c.007.313.016.665-.041.975-.032.165-.046.381-.181.494-.105.088-.257.082-.384.062a1.514 1.514 0 0 0-.22-.013l.061.089.014.019c.035.054.073.108.112.162.135.163.249.337.369.523.409.636.759 1.357 1.242 1.954a3.561 3.561 0 0 0 .58.593c-.054.01-.215-.155-.257-.197a1.701 1.701 0 0 1-.274-.335c-.082-.059-.145-.137-.049-.061-.202-.22-.248-.288-.286-.353-.079-.132-.175-.26-.256-.394-.298-.495-.585-.994-.894-1.481-.056-.086-.116-.168-.175-.249-.058-.112-.133-.214-.126-.181-.019-.026-.04-.057-.065-.089-.131 0-.268.008-.38.008-.587 0-1.368.076-2.009-.055l.022.035c.317.531.635 1.079 1.006 1.576.134.179.262.366.403.54.093.115.194.229.284.345-.025.007-.051.01-.076.015-.662-.755-1.236-1.65-1.735-2.532a1.922 1.922 0 0 1-.343-.117c-.189-.086-.337-.183-.454-.353-.023-.034-.053-.069-.062-.11-.009-.036-.019-.151-.028-.171-.014-.032-.025-.06-.041-.085-.254.002-.509.001-.764.003-.131.002-.279.03-.394-.046a.369.369 0 0 1-.097-.096c-.044-.069-.065-.152-.099-.225-.035-.076-.072-.149-.108-.223a1.64 1.64 0 0 0-.49-.625c-.012-.003-.024-.008-.036-.013.105.174.211.349.319.523.693 1.128 1.409 2.245 2.098 3.376.286.469.573.94.864 1.406a.053.053 0 0 1-.017.07c-.024.014-.057.006-.07-.017-.458-.734-.911-1.473-1.365-2.209-.53-.86-1.069-1.714-1.598-2.573a42.14 42.14 0 0 1-.389-.642 24.525 24.525 0 0 1-.415-.176c-.294-.059-.635-.071-.908-.123a6.798 6.798 0 0 1-.248-.05c.903 1.162 1.78 2.34 2.643 3.537-.172-.102-.459-.553-.588-.734a56.737 56.737 0 0 0-1.138-1.532c-.33-.433-.663-.862-.998-1.291-.881-.209-1.728-.616-2.039-1.543-.109-.323-.11-.714-.057-1.087l-.946-1.17a17.679 17.679 0 0 1-1.537-.136c-.513.047-1.031.052-1.554.056-.743.007-1.495-.026-2.242-.029.207.278.425.547.632.828.317.43.638.868.967 1.289.481.611 1.01 1.31 1.607 1.817l.002.062-.063.002c-.591-.502-1.11-1.181-1.587-1.788-.302-.385-.586-.786-.882-1.177-.251-.33-.51-.66-.756-.992l.005-.041-.34.002c-.074.051-.142.099-.198.135-.269.177-.531.37-.804.542-.264.165-.51.293-.79.425a2.047 2.047 0 0 1-.363.132 3.816 3.816 0 0 1-.7.097c.301.433.601.87.909 1.298-.198-.116-.305-.335-.437-.513-.188-.253-.368-.52-.548-.782l-.096.002a3.366 3.366 0 0 1-.241.148c-.491.274-1 .305-1.529.189l.007.01c.221.362.442.725.665 1.086.371.601.786 1.265 1.293 1.763l-.057.016c-.098-.108-.193-.209-.289-.318-.161-.184-.306-.398-.445-.598-.28-.402-.552-.834-.799-1.258-.133-.23-.28-.476-.427-.699l-.006-.008a1.107 1.107 0 0 1-.179-.019c-.165-.039-.321-.092-.484-.138a4.834 4.834 0 0 1-.273-.09.388.388 0 0 1-.173-.048c-.054-.024-.113-.057-.186-.068l-.18-.052c-.086-.025-.185-.034-.273-.061a.259.259 0 0 1-.045-.014l-.12.021c-.108.021-.311.174-.417.271a2.45 2.45 0 0 1-.12.261c-.061.123-.151.235-.23.347a8.005 8.005 0 0 1-.614.763c-.114.127-.229.251-.346.373.108.164.226.327.338.48.733 1.02 1.584 1.934 2.431 2.859a.072.072 0 0 1-.005.099.072.072 0 0 1-.099-.005c-.161-.169-.316-.351-.472-.525a64.962 64.962 0 0 1-1.196-1.374c-.261-.31-.514-.639-.745-.971-.111-.158-.227-.315-.334-.478a42.631 42.631 0 0 1-1.24 1.217c.092.117.189.23.29.34.468.514 1.011.982 1.505 1.477.256.255.461.533.688.811a.07.07 0 0 1-.012.096.07.07 0 0 1-.097-.012c-.241-.305-.5-.643-.785-.907-.174-.162-.349-.34-.52-.508-.217-.211-.464-.422-.666-.645-.123-.135-.247-.269-.369-.406a2.826 2.826 0 0 1-.133-.154l-.297.271a5.394 5.394 0 0 1-.195.17l.005.083c.018.388.052.745-.031 1.124-.086.39-.31.553-.588.786l-.131.11c.03.031.059.063.087.097.393.48.662 1.034 1.048 1.511.141.173.293.294.47.427.026.02.031.058.012.084a.061.061 0 0 1-.084.012c-.601-.405-.913-1.153-1.323-1.727a2.648 2.648 0 0 0-.284-.34c-.069.059-.139.119-.21.177a.48.48 0 0 1-.039.031 3.829 3.829 0 0 1-.874.71l-.09.059c.424.58.912 1.096 1.426 1.623.31.318.594.658.885.994.019.023.017.058-.006.076a.054.054 0 0 1-.076-.006c-.285-.329-.562-.653-.862-.969-.491-.517-.999-1.042-1.426-1.613a.735.735 0 0 1-.034-.044l-.053.032a1.262 1.262 0 0 1-.283.22l-.488.257-.004.003-.225.201c-.094.073-.192.14-.292.205.002.002.004.002.007.003.069.049.148.112.214.165.19.153.365.381.516.571.295.376.556.812.821 1.212.278.419.573.798.977 1.1.079.06.224.158.316.19a.047.047 0 0 1 .022.064.049.049 0 0 1-.065.021 1.403 1.403 0 0 1-.302-.173c-.383-.277-.677-.621-.943-1.009-.452-.661-.811-1.331-1.392-1.885a1.52 1.52 0 0 0-.24-.176 63.102 63.102 0 0 0-1.676 2.515c.32.351.747.614 1.131.885.148.104.31.206.446.327.15.134.302.268.421.432.044.06.083.126.129.185a.05.05 0 0 1-.013.069.052.052 0 0 1-.069-.014c-.047-.063-.087-.136-.134-.196a3.236 3.236 0 0 0-.488-.477c-.203-.171-.46-.322-.677-.481-.188-.138-.385-.265-.561-.422a2.822 2.822 0 0 1-.233-.231l-.221.348c-.147.235-.306.467-.448.705-.083.138-.2.344-.298.466-.035.044-.061.106-.094.154-.122.177-.225.369-.337.54a2.58 2.58 0 0 0-.347 1.037c.031.03.062.06.09.09.215.236.444.459.644.709.756.944 1.437 1.833 2.45 2.509a.064.064 0 0 1-.073.105c-.981-.627-1.671-1.569-2.382-2.474a7.537 7.537 0 0 0-.74-.822c-.022.305 0 .615.057.914l.009.047c.045.115.076.235.109.352.057.205.103.42.087.651l.034.169c.063.318.155.644.203.964.017.113.033.224.048.337.291.346.614.664.952 1.005.387.39.792.759 1.16 1.17.147.165.273.349.416.514a.08.08 0 0 1-.015.111.08.08 0 0 1-.111-.015 9.388 9.388 0 0 0-.899-1.051c-.212-.206-.421-.42-.629-.63a17.073 17.073 0 0 1-.853-.906c.012.139.019.28.015.423-.002.069.005.154-.002.22l-.048.377-.11.659.001-.01c.108.094.216.192.305.301.113.138.233.279.348.415.138.164.269.366.395.542.187.262.37.534.548.803.388.582.785 1.168 1.264 1.679.106.112.216.23.335.327l-.072.022c-.717-.63-1.183-1.454-1.715-2.232-.357-.523-.738-1.149-1.182-1.602a6.72 6.72 0 0 0-.232-.219l-.036.219a3.35 3.35 0 0 1-.313.876.357.357 0 0 1-.037.06 7.985 7.985 0 0 1-.066.234c.053.312.04.753-.11 1.081.069.172.14.345.213.517a32.514 32.514 0 0 0 1.883 1.992c.302.29.607.568.918.848.447.403.919.801 1.403 1.16.457.339.914.681 1.402.974.025.016.033.05.018.074a.055.055 0 0 1-.074.018c-.221-.117-.457-.281-.666-.421a16.445 16.445 0 0 1-1.959-1.53c-.429-.395-.869-.786-1.276-1.205a50.581 50.581 0 0 1-1.535-1.646l.433.973-.003-.006.07.072-.004.001.022-.003a.381.381 0 0 1 .15.055l.098.081.027.025c.076.081.14.178.203.257.218.275.445.533.669.803.3.363.611.72.917 1.078.683.798 1.368 1.599 2.064 2.385.23.26.458.523.695.777.085.091.17.195.258.281.139.136.242.29.131.479l-.042.035.402.146c.165.048.333.085.499.115a6.16 6.16 0 0 0 1.587.067.368.368 0 0 1 .289-.297c-.118-.109-.23-.231-.345-.342-.206-.2-.409-.406-.612-.609-.321-.323-.647-.64-.965-.967-.378-.388-.741-.81-1.079-1.236.675.845 1.419 1.578 2.19 2.335.275.27.543.547.819.818l.008-.002c.135.01.37-.183.48-.244.054-.032.106-.073.16-.107.18-.112.503-.277.722-.278.123 0 .292-.003.445.028a.724.724 0 0 1 .082-.002c.192.007.419.048.606.096.395.101.783.203 1.172.314.202.059.383.125.579.152.348-.04.691-.079 1.037-.128a.107.107 0 0 0 .019-.007c.148-.057.296-.103.445-.165.182-.076.364-.157.544-.239-.797-.58-1.473-1.3-2.134-2.036a23.872 23.872 0 0 0-1.062-1.119c-.192-.188-.388-.364-.584-.548-.022-.018-.023-.052-.004-.074.018-.021.052-.022.074-.004.115.112.245.212.357.324.286.285.577.561.856.855.518.548 1.031 1.116 1.58 1.633.268.253.541.48.826.712.079.066.162.127.247.187.325-.148.651-.295.987-.419.165-.06.335-.112.507-.155a74.039 74.039 0 0 1-2.158-1.985c-.72-.695-1.501-1.447-2.113-2.245a.06.06 0 0 1 .008-.086.063.063 0 0 1 .086.008c.371.484.805.923 1.231 1.358.417.424.875.847 1.324 1.237.435.379.858.769 1.289 1.153l.566.509c.205-.04.412-.065.62-.075l.107-.034c.271-.084.49-.199.732-.271a25.436 25.436 0 0 1-.303-.27c-.945-.844-1.837-1.746-2.714-2.662l.001-.056.056.001c.49.521 1.015 1.024 1.535 1.516.517.491 1.04.966 1.575 1.432.088-.017.18-.028.28-.03.214-.003.575.11.692.3.046.075.093.264.119.355.019.065.06.144.088.207.057.133.12.248.191.357.107.095.214.189.322.282l-.211-.142.099.121.072.015c.275.129.561.237.837.367.275.131.555.269.822.424a.301.301 0 0 1 .14-.169.301.301 0 0 1 .407.118c.04.102.101.208.148.308l.047.104a.32.32 0 0 1 .298.361l-.008.023.077.077c.061.07.143.15.222.238a.34.34 0 0 1 .583.071c.036.096.085.189.119.287.062.176.109.376.146.561.059.295.092.605.099.95.143.17.284.347.426.517.545.66 1.134 1.395 1.865 1.859a.07.07 0 0 1 .019.098c-.021.033-.066.04-.099.019-.024-.014-.049-.028-.075-.045v.018l-.585.585h-.063v-.062l.586-.586c-.063-.043-.123-.092-.176-.135-.164-.135-.331-.264-.48-.415a14.35 14.35 0 0 1-.595-.64c-.267-.304-.525-.626-.78-.94l-.043-.051a8.855 8.855 0 0 1-.024.519c-.005.136-.007.271-.027.405-.007.042-.012.084-.017.126.004.126-.015.254-.083.541a5.777 5.777 0 0 0-.025.128c.431.395.865.788 1.295 1.182a.057.057 0 0 1 .004.082.057.057 0 0 1-.082.004l-1.242-1.134a3.282 3.282 0 0 0-.017.097c-.005.027-.013.053-.05.053.016.23-.092.646-.219 1.041.002.108.01.215.025.312l.028.207c.054.078.108.15.155.211.3.402.635.788.973 1.168a28.83 28.83 0 0 0 .634.496c.149.016.324.019.407.142.029.044.04.094.057.144.004.014.009.029.012.045.296.189.608.357.918.463a.087.087 0 0 1 .048.11.087.087 0 0 1-.111.048 4.013 4.013 0 0 1-.817-.393 2.77 2.77 0 0 1-.007.386l.052.087c.119.202.292.478.359.7.048.164.007.402.032.588.042.317.112.577.226.877.038.1.083.202.132.303a.307.307 0 0 1 .36.312l-.015.337c.351.634.667 1.213.757 1.944.007.056-.001.133 0 .192.002.146.01.328-.021.469-.01.051-.026.105-.044.154-.01.031-.04.08-.046.11a.425.425 0 0 1-.19.2c-.04.239-.079.479-.117.719.404.422.833.802 1.262 1.215.428.413.896.855 1.231 1.349a.06.06 0 0 1-.014.082.06.06 0 0 1-.082-.014 11.426 11.426 0 0 0-.611-.772c-.206-.236-.46-.48-.687-.697-.377-.357-.754-.713-1.111-1.091v.002c-.04.248-.068.507-.116.752-.038.195-.078.388-.12.58.248.222.487.449.721.692.472.49.922 1.029 1.359 1.551.314.375.627.757.953 1.122.251.28.49.569.754.836a.096.096 0 0 1-.005.134.096.096 0 0 1-.134-.005c-.595-.597-1.118-1.316-1.649-1.969-.35-.43-.689-.856-1.056-1.271-.111-.126-.223-.258-.34-.377a20.804 20.804 0 0 0-.626-.607c-.087.388-.18.774-.272 1.161a.323.323 0 0 1 .071.321c-.121.331-.241.663-.354.996l-.01.033c.154.12.309.239.462.363.252.206.518.459.744.693.157.163.33.325.477.495.18.207.37.407.552.613.686.78 1.331 1.534 2.117 2.212.03.026.032.072.007.101a.072.072 0 0 1-.1.007c-.362-.29-.703-.648-1.023-.983-.539-.564-1.042-1.174-1.559-1.759a13.784 13.784 0 0 0-1.269-1.266c-.145-.126-.296-.241-.447-.357a15.89 15.89 0 0 0-.095.31l-.01.054a5.852 5.852 0 0 1-.156.504 5.02 5.02 0 0 0-.093.44c-.026.175-.048.336-.068.511l-.003.024.041.13c.061.163.146.324.213.477.125.285.238.538.324.835l-.007-.022c.081.288.485.52.708.714.281.246.424.418.516.741l.006.024.031.034a.844.844 0 0 1 .194.329c.074.074.148.151.223.228.376.4.737.817 1.104 1.226.146.162.287.336.44.491.156.158.298.332.456.491.412.414.772.778 1.245 1.114.159.113.414.255.608.293a.05.05 0 1 1-.03.095c-.722-.174-1.562-1.117-2.044-1.619-.23-.239-.445-.496-.667-.742-.439-.488-.862-.984-1.312-1.461l-.038-.036a.278.278 0 0 1 .054.188l-.002.024.231.672c.074.245.141.502.203.76a22.858 22.858 0 0 0 3.038 3.449l.001.069-.069.001a24.487 24.487 0 0 1-2.92-3.309l.054.229c.035.153.075.307.107.461.024.113.063.23.072.345.006.095-.033.208-.057.299.016.226.061.45.115.677.062.261.109.549.158.814.021.113.054.224.082.335l.077.301a.294.294 0 0 1 .441.221l.014.195c.227.205.457.408.688.609.29.253.581.507.869.762.174.155.355.305.511.479l.005.066-.066.005c-.246-.164-.466-.373-.689-.566-.302-.26-.597-.526-.891-.794a72.154 72.154 0 0 1-.41-.371c.033.351.082.696.167 1.036l.241.281c.277.328.524.618.747.985.091.148.17.307.244.454.077.153.161.294.176.466l.006.132c.112.11.229.217.341.325.338.325.693.675 1.008 1.021.253.278.514.55.768.826.394.426.778.867 1.158 1.307l.41.115.04.011c.121-.015.242-.027.364-.035.142-.01.275 0 .415-.001a.37.37 0 0 1 .203.06c.155.017.256.05.376.128l.069.054.017.013.061.006.09-.002.177-.003c.076.002.143.024.213.035l.141.003h.018a.98.98 0 0 0 .133-.027zm-3.278-2.408c-.734-.771-1.44-1.657-1.913-2.613a.078.078 0 0 1 .034-.103.077.077 0 0 1 .102.035c.55 1.117 1.354 1.985 2.203 2.878.357.375.731.711 1.1 1.07.296.289.621.577.936.847a.093.093 0 0 1-.123.139 32.932 32.932 0 0 1-2.339-2.253zm3.567.376c-1.345-1.309-2.531-2.841-3.694-4.31a.051.051 0 0 1 .008-.069.051.051 0 0 1 .069.008c1.071 1.347 2.135 2.676 3.345 3.902.309.313.627.607.96.893.173.148.354.309.536.445a.079.079 0 0 1 .012.109.08.08 0 0 1-.11.012 17.325 17.325 0 0 1-1.126-.99zm5.108-4.479c-.706-.477-1.369-1.215-1.918-1.861-.541-.636-1.066-1.293-1.588-1.943l.025-.02a55.927 55.927 0 0 0 1.878 2.226c.697.778 1.566 1.547 2.527 1.973a.063.063 0 0 1 .03.082.063.063 0 0 1-.082.03 5.852 5.852 0 0 1-.872-.487zm.19-1.348c-.839-.826-1.619-1.704-2.39-2.592l.047-.041c1.13 1.301 2.319 2.563 3.683 3.623a.073.073 0 0 1 .011.104.075.075 0 0 1-.104.011 13.77 13.77 0 0 1-1.247-1.105zm12.612.349c-.219-.028-.415-.153-.588-.362-.264-.314-.397-.786-.477-1.255a3.609 3.609 0 0 1-.063-.058c-.087-.077-.244-.175-.292-.277-.03-.065-.031-.117-.034-.185-.017-.322.09-.575.222-.818a2.795 2.795 0 0 0-.041-.196l-.058-.14-.054-.054c-.099-.132-.174-.326-.121-.456.037-.09.107-.168.169-.24.025-.028.042-.083.062-.115.023 0 .054-.024.077-.011l.086.038.089-.194c.058-.109.145-.234.231-.366l-.165.031c-.073.016-.147.052-.22.07a.138.138 0 0 1-.171-.089.138.138 0 0 1 .089-.171c.142-.032.275-.089.423-.117-.087-.106-.175-.212-.259-.319l.047-.039c.093.118.198.229.29.348h-.002l.144-.012a.969.969 0 0 0 .099-.276 1.052 1.052 0 0 0-.019-.484l-.062-.158-.072-.114a1.479 1.479 0 0 1-.129-.521 2.786 2.786 0 0 1 .255-1.216l.091-.18a1.06 1.06 0 0 1-.022-.512c.047-.224.326-.411.484-.55l.082-.081.004-.036a.3.3 0 0 1 .088-.207c.048-.049.194-.124.26-.161.014-.006.028-.014.039-.02.461-.402 1.031-.661 1.614-.885l-.312.116a7.75 7.75 0 0 1 .801-.367l.374-.119.121-.223c.074-.112.155-.22.222-.313a.312.312 0 0 1 .072-.076l.013-.02c.161-.251.314-.508.477-.76.105-.162.244-.308.373-.452.117-.13.413-.379.587-.4.163-.019.367.121.5.249a.862.862 0 0 1 .323-.043c.086.014.164.07.212.142.069.102.153.575.178.706.016.081.035.164.049.245.123.714.169 1.437-.12 2.118a1.729 1.729 0 0 1-.201.365l-.067.077c.485.439.97.882 1.461 1.315.02.017.021.049.003.069-.017.019-.049.02-.069.003-.491-.432-.976-.875-1.46-1.314l-.123.141-.229.522c-.084.169-.17.336-.258.502-.078.294-.169.592-.264.876l-.089.241c.052.034.104.067.158.098a.083.083 0 0 1 .024.113.082.082 0 0 1-.112.024 2.755 2.755 0 0 1-.127-.082l-.035.105.007-.023c-.06.176-.121.372-.172.55-.03.105-.079.221-.115.326-.13.378-.277.752-.423 1.125-.18.463-.379.918-.574 1.375-.171.4-.365.786-.553 1.179-.251.527-.56 1.059-.964 1.48-.157.163-.689.423-.89.489a2.033 2.033 0 0 1-.445.099.397.397 0 0 1-.059.038.295.295 0 0 1-.39-.108zm.543-.696c.105-.036.204-.063.307-.11l.398-.223.104-.089c.045-.044.102-.122.14-.173.071-.094.135-.194.196-.294a.325.325 0 0 1 .032-.206c.216-.45.481-.882.656-1.353.07-.191.126-.382.195-.57.06-.171.105-.37.148-.559-.727-.592-1.402-1.309-2.019-2l-.384-.423c.03.382.016.769-.101 1.122-.049.143-.096.26-.177.36a25.39 25.39 0 0 0 1.69 1.795c-.102.002-.156-.086-.223-.148a7.192 7.192 0 0 1-.371-.37 32.303 32.303 0 0 1-1.131-1.237l-.008.008c.003.004.002.007.001.01a1.933 1.933 0 0 1-.25.465 3.067 3.067 0 0 1-.147.189c.173.229.342.459.502.697.183.275.379.567.578.831.131.172.253.369.394.533a.116.116 0 0 1-.03.16.116.116 0 0 1-.16-.03c-.319-.506-.62-1.022-.939-1.528-.128-.203-.265-.399-.397-.599l-.094.118a.208.208 0 0 1 .121.165c.002.052.011.108.017.16.029.244-.069.564-.167.786a.102.102 0 0 0-.009.025c.101.258.118.534.154.813.024.198.049.391.083.584.153.185.293.385.394.559.077.133.172.274.236.413l.069.148c.064-.005.13-.006.192-.029zm-9.443-1.514l.01-.008.127-.094-.046-.622c-.014-.111-.038-.224-.055-.337l-.007-.006c-.02.355-.02.712-.029 1.067zm-18.942-2.136a9.854 9.854 0 0 0-.28-.857c-.016-.044-.033-.247-.013-.242l-.037-.05c-.078-.076-.138-.128-.175-.239-.049-.147-.02-.213-.147-.332l-.018-.016c.039.094.075.191.112.28.166.407.312.823.469 1.237l.109.294-.02-.075zm30.629-.215c.041-.205.079-.415.15-.615a9.88 9.88 0 0 1 .263-.665l-.296-.317c-.156-.166-.323-.366-.49-.517-.184-.166-.355-.336-.543-.499-.11-.095-.235-.178-.348-.273a.067.067 0 0 1-.012-.094.068.068 0 0 1 .094-.011c.11.092.236.174.343.269.202.178.405.362.59.557.242.255.474.521.706.786.196-.441.419-.867.65-1.293-.533-.537-.948-1.174-1.375-1.831-.024-.038-.015-.091.023-.115a.085.085 0 0 1 .116.023c.387.596.804 1.245 1.316 1.776l.147-.266c.059-.105.116-.213.169-.32.178-.675.331-1.349.483-2.032.059-.262.116-.543.183-.793.005-.053.016-.105.022-.157.012-.106.012-.223.01-.34l-.004-.313-.05-.295a3.827 3.827 0 0 0-.845.665c-.075.124-.144.246-.208.355-.135.231-.389.648-.629.771-.084.043-.157.06-.249.096-.222.088-.453.163-.678.245a6.928 6.928 0 0 0-.571.228c-.115.054-.226.113-.339.171l-.012.008-.126.074-.213.125a2.304 2.304 0 0 0-.676.781c-.028.052-.09.197-.102.252a1.895 1.895 0 0 1-.075.266 1.04 1.04 0 0 1-.054.105c.024.11.048.22.066.325.028.179.056.366.077.555.17.187.342.374.513.556.611.66 1.248 1.302 1.945 1.873l.029-.116zm-29.798-2.555a9.172 9.172 0 0 0-.848-.848 2.244 2.244 0 0 0-.23-.185c-.077-.052-.149-.112-.225-.162-.097-.063-.201-.116-.298-.18l-.013-.053.052-.013c.106.069.229.129.329.203.38.278.743.572 1.055.926.214.242.428.479.637.727.644.762 1.24 1.543 2.083 2.094l.011.06-.06.01c-.991-.655-1.727-1.688-2.493-2.579zm26.927.598a5.35 5.35 0 0 0-.08-.423 3.83 3.83 0 0 0-.033.22c-.016.124.01.354.064.462.03.059.051.098.072.146a2.611 2.611 0 0 0-.023-.405zm-11.211-6.803c-1.674-1.425-3.312-2.897-4.596-4.693l.009-.06.06.009c.919 1.287 2.025 2.361 3.203 3.409.923.822 1.87 1.615 2.809 2.42a.068.068 0 0 1-.089.104c-.47-.39-.931-.794-1.396-1.189zM34.82 49.788c-.345-.452-.621-.933-1.01-1.352a1.51 1.51 0 0 0-.227-.212c-.043-.029-.083-.062-.125-.091-.046-.032-.115-.056-.165-.088a.048.048 0 0 1-.021-.063.049.049 0 0 1 .064-.021c.114.067.27.138.362.235.031.034.077.07.112.1.059.052.114.123.172.18.142.14.299.371.42.533.325.434.679 1.003 1.104 1.347.115.094.212.141.335.214.037.02.051.069.03.106a.078.078 0 0 1-.106.03c-.352-.14-.718-.622-.945-.918zm16.013-.086c-.085-.065-.179-.124-.266-.187a8.814 8.814 0 0 1-.582-.476c-.759-.66-1.433-1.447-2.114-2.184-.32-.347-.646-.678-.973-1.017v-.061h.06c.222.236.454.463.676.699.58.617 1.142 1.248 1.734 1.856.533.547 1.168 1.156 1.812 1.564-.058.012-.292-.151-.347-.194zm-15.546-2.351a8.582 8.582 0 0 1-.647-.661c-.317-.352-.602-.739-.918-1.089-.135-.149-.269-.308-.411-.45-.123-.124-.257-.237-.38-.358-.047-.045-.108-.09-.16-.13a4.786 4.786 0 0 0-.622-.412c-.103-.056-.215-.102-.32-.154a.052.052 0 0 1-.024-.068.051.051 0 0 1 .067-.024c.087.044.178.085.266.126.267.124.611.361.835.552.703.605 1.259 1.339 1.891 2.013.11.119.225.23.344.336l.159.137-.023-.179a1.88 1.88 0 0 1 .02-.451c.122.254.179.406.213.688.01.083.074.236-.032.278-.084.035-.2-.101-.258-.154zm-2.16-4.106c-.36-.286-.622-.664-.967-.97a1.754 1.754 0 0 0-.461-.286c-.055-.023-.113-.04-.168-.066-.037-.013-.055-.057-.042-.094a.075.075 0 0 1 .095-.042c.092.041.182.071.274.115.242.114.423.275.616.456.151.141.307.324.45.478.14.153.318.284.487.402.08.055.26.186.346.214-.03.04-.12.01-.164.003a1.035 1.035 0 0 1-.466-.21zm24.138-5.202c-.907-.767-1.669-1.62-2.463-2.501-.19-.212-.376-.432-.571-.638-.188-.2-.369-.412-.563-.605-.065-.064-.123-.136-.189-.198-.107-.098-.206-.208-.311-.31-.136-.133-.28-.26-.415-.394l-.002-.063.063-.002c.13.129.267.25.398.377.341.332.686.687 1.003 1.04.414.462.832.926 1.255 1.377.758.807 1.478 1.549 2.374 2.208.231.17.484.333.734.475.074.042.146.092.222.129.151.073.304.148.453.224a.065.065 0 0 1-.057.116 9.055 9.055 0 0 1-1.931-1.235zm-6.502-.138c-.464-.572-.918-1.159-1.373-1.739l.053-.041c.729.929 1.46 1.858 2.196 2.782-.347-.277-.599-.659-.876-1.002zm3.428-.106c-.093-.106-.181-.217-.27-.326-.398-.484-.787-.976-1.187-1.457a53.65 53.65 0 0 1-.858-1.048c-.171-.216-.357-.421-.532-.633-.322-.392-.66-.777-.993-1.16-.337-.385-.692-.754-1.042-1.128-.123-.133-.257-.258-.38-.391a.068.068 0 1 1 .097-.096c.222.24.46.473.686.712a31.387 31.387 0 0 1 1.617 1.86c.578.716 1.165 1.426 1.728 2.155.491.635.988 1.278 1.496 1.898-.14-.079-.256-.264-.362-.386zm6.128-4.144c-1.017-.888-1.933-1.848-2.866-2.82-.356-.37-.708-.746-1.059-1.121.468.77.934 1.542 1.411 2.307.013.023.006.056-.026.073-.015.011-.048.003-.062-.021-.543-.873-1.075-1.756-1.61-2.635a.051.051 0 0 1-.006-.039c-.768-.82-1.537-1.642-2.341-2.426a.069.069 0 0 1-.001-.098.069.069 0 0 1 .098-.001c.347.352.698.698 1.042 1.052.698.718 1.384 1.447 2.076 2.17 1.691 1.769 3.395 3.506 5.38 4.948a.097.097 0 0 1 .021.134.096.096 0 0 1-.134.02c-.674-.471-1.304-1.002-1.923-1.543zm-30.404.584c-.338-.331-.673-.67-1.006-1.007l.027-.027c.533.539 1.071 1.077 1.611 1.61-.239-.155-.429-.378-.632-.576zm-2.252-.868a10.416 10.416 0 0 1-.794-.56c-.478-.386-.981-.785-1.416-1.223-.327-.328-.668-.659-.966-1.016-.194-.232-.383-.46-.573-.696l.007-.056.056.007c.186.25.419.536.635.761.112.117.219.242.331.36.16.168.331.326.492.492.22.227.481.435.72.645.39.343.842.685 1.268.985.61.429 1.213.846 1.851 1.233.127.077.251.16.381.233a22.66 22.66 0 0 1-1.992-1.165zm33.813-1.543c-2.457-1.995-4.55-4.471-6.552-6.908a.072.072 0 0 1 .01-.101.072.072 0 0 1 .101.009 93.27 93.27 0 0 0 1.569 1.867c.442.514.889 1.037 1.356 1.527.5.525.997 1.038 1.51 1.551.502.504 1.038.971 1.572 1.441a21.112 21.112 0 0 0 2.774 2.069c.045.029.058.09.029.135a.1.1 0 0 1-.136.029c-.777-.477-1.526-1.045-2.233-1.619zm-47.403.764a12.307 12.307 0 0 1-.837-.81c-.281-.296-.557-.618-.849-.899-.201-.194-.404-.384-.606-.577l.029-.031c.121.116.248.226.37.34.237.222.467.466.691.702.513.542 1.099 1.171 1.732 1.571.02.014.025.044.011.064a.048.048 0 0 1-.064.01c-.153-.087-.342-.253-.477-.37zm2.467.058a8.166 8.166 0 0 1-.921-.633 14.201 14.201 0 0 1-2.252-2.28.05.05 0 0 1 .007-.071.05.05 0 0 1 .071.007c.264.344.577.685.876 1 .238.25.507.528.771.749l.619.513c.164.136.36.257.536.379.221.154.468.275.704.404a.07.07 0 0 1 .03.093.07.07 0 0 1-.094.029c-.111-.047-.241-.127-.347-.19zm1.724-.135l-.056-.001c-.136-.129-.266-.269-.397-.403-.204-.21-.414-.417-.62-.626l-1.04-1.064c-.403-.414-.777-.85-1.154-1.286l.038-.031c.517.636 1.102 1.226 1.676 1.811.51.518 1.032 1.038 1.554 1.544l-.001.056zm37.846-1.354a27.164 27.164 0 0 1-.945-.945 28.561 28.561 0 0 0-1.45-1.407l-.004-.004c-.395-.353-.817-.661-1.218-1.006.214.169.435.336.649.505.101.082.204.166.569.501-.166-.166-.076-.089.004.004h.002l.002.003c.186.141.357.299.521.457.741.718 1.443 1.498 2.209 2.186-.067-.012-.277-.235-.339-.294zm-45.852-1.098c-.199-.216-.387-.44-.582-.659-.335-.373-.675-.743-1.013-1.115-1.033-1.138-2.053-2.255-2.917-3.528a.059.059 0 0 1 .014-.081c.027-.018.064-.012.081.015.851 1.272 1.923 2.405 2.97 3.516.338.358.688.717 1.018 1.083.191.213.382.428.576.638a.1.1 0 0 1-.008.139.1.1 0 0 1-.139-.008zm56.048-1.415a.425.425 0 0 1 .711-.091c.006-.017.012-.036.02-.054l.012-.149c-.147.005-.3-.007-.469-.034a4.155 4.155 0 0 1-.765-.22c-.174.053-.344.111-.513.168.159.091.322.18.478.275.121.074.249.144.367.222l.085.059c.022-.06.048-.118.074-.176zm-3.221-.526l.31-.028c.282-.058.561-.14.846-.229.07-.021.14-.044.211-.067l-.053-.038-.008-.001-.739.183c-.156.052-.313.111-.471.171l-.096.009zm1.487-.364l-.061.001-.044.001.033.022.072-.024zM9.264 18.911c-.242-.233-.459-.525-.706-.75-.149-.137-.308-.309-.447-.458-.243-.261-.502-.516-.727-.794-.204-.254-.421-.494-.625-.749-.086-.106-.194-.222-.269-.334l.007-.063.064.007c.136.205.339.413.496.61.433.54.939 1.072 1.434 1.556.211.207.41.426.618.636.082.083.157.183.241.261a.06.06 0 0 1-.004.082.057.057 0 0 1-.082-.004zm45.774-.358c-.008-.13-.033-.258-.055-.387a47.201 47.201 0 0 0-.7-.979c.007.108.018.216.035.324.012.08.042.158.057.229.009.042.012.096.031.139.018.042.032.092.056.135.133.231.339.499.516.703l.075.093a11.397 11.397 0 0 1-.015-.257zm-.547-1.491l-.145-.254-.088-.15.002.063.151.2.08.141zm-1.071-1.43l-.007-.019-.127-.221c-.147-.248-.328-.479-.477-.723a4.46 4.46 0 0 0-.266-.385c-.131-.167-.247-.361-.374-.534-.209-.284-.399-.588-.607-.873-.158-.216-.297-.451-.452-.669-.307-.433-.59-.908-.86-1.366-.214-.366-.459-.81-.594-1.213l-.035-.096-.281-.283c-.199-.198-.4-.413-.605-.602l-.352-.341.063.025c.22.309.424.639.608.955.204.354.387.719.577 1.08.149.284.286.587.449.863.221.374.43.714.686 1.067.163.225.362.426.557.624a.1.1 0 0 1 .077.041c.62.937 1.326 1.815 2.028 2.692l-.008-.022zm-7.71-1.399c-1.151-1.187-2.024-2.537-2.853-3.965a28.541 28.541 0 0 1-.953-1.765.054.054 0 0 1 .023-.071.054.054 0 0 1 .071.022c.181.371.386.74.586 1.102.436.787.898 1.571 1.411 2.31.548.791 1.126 1.596 1.809 2.277a.067.067 0 0 1-.002.092.067.067 0 0 1-.092-.002zm2.85-1.239c-1.211-1.089-2.012-2.518-2.866-3.891a.074.074 0 0 1 .024-.102.077.077 0 0 1 .103.024c.287.464.573.936.875 1.391.193.292.382.593.593.873.326.43.63.85 1.02 1.227.384.372.82.767 1.299 1.012.04.025.054.079.029.119a.088.088 0 0 1-.119.03 6.02 6.02 0 0 1-.958-.683zm-4.9.151c-.38-.437-.716-.892-1.043-1.369a30.114 30.114 0 0 1-1.047-1.624c-.284-.474-.579-.945-.852-1.424-.129-.227-.275-.447-.401-.675l.047-.027c.114.208.247.426.372.628.138.221.267.452.401.677.207.345.419.688.626 1.032.221.37.462.749.707 1.103.407.591.789 1.137 1.256 1.682a.729.729 0 0 1-.066-.003zM17.504 5.677a2.018 2.018 0 0 0-.564-.582 2.188 2.188 0 0 0-.337-.173c-.043-.018-.102-.032-.141-.053a.053.053 0 0 1-.032-.067c.009-.028.04-.041.067-.033.083.039.178.065.264.106.313.15.606.396.798.686.124.187.231.374.327.577.199.414.36.858.642 1.223.103.134.209.23.336.339a.065.065 0 0 1 .005.089.065.065 0 0 1-.089.005c-.666-.513-.827-1.446-1.276-2.117zM34.78 7.181l.027.056h.08a2.216 2.216 0 0 0-.107-.056zm-4.866-.603c-.088-.071-.179-.179-.257-.262-.086-.091-.174-.183-.257-.278-.146-.168-.286-.337-.368-.539a3.559 3.559 0 0 1-.524-.77 4.446 4.446 0 0 1-.63-.925l.04-.019c.171.337.359.66.59.944.002.16.227.484.524.77.318.43.681.827 1.077 1.208-.079.019-.142-.086-.195-.129zm-1.402-.021l-.037-.006-.056-.009c-.02-.016-.079-.13-.105-.158-.054-.059-.1-.157-.15-.222l-.27-.35a8.867 8.867 0 0 0-.575-.68 14.963 14.963 0 0 1-.899-1.078 4.83 4.83 0 0 1-.454-.681l.058-.035c.11.214.271.43.413.623.274.373.583.735.893 1.079.237.262.472.54.688.821.07.09.155.189.218.283.091.137.179.28.276.413zm2.016-1.87c-.023.077.015.131.06.182a.997.997 0 0 0 .273.236c-.892-1.155-1.225-1.568-.333-.418zm-.694-1.753a.147.147 0 0 0 .004-.017.472.472 0 0 1-.027-.125l-.038-.386-.224.018a9.407 9.407 0 0 1-.751.004c.297.368.597.736.896 1.104.033-.212.083-.416.14-.598zm-14.406.245l.006-.01-.006.01zm.006-.01l.098-.147a1.528 1.528 0 0 0-.092.072c-.002.021-.006.041-.006.075z" font-family="Times New Roman" font-size="16"></path></g><!----><g data-v-423bf9ae="" id="50a1fc9f-31fa-4cd1-a142-d19dff04c731" fill="#ffffff" transform="matrix(1.0334975840754759,0,0,1.0334975840754759,97.59282971348652,57.82965374617988)"><path d="M7.85 2.21L7.85 7.52C7.85 9.67 6.43 10.57 4.96 10.57C3.49 10.57 2.07 9.67 2.07 7.52L2.07 2.21L1.02 2.21L1.02 7.49C1.02 9.95 2.65 11.59 4.96 11.59C7.28 11.59 8.90 9.94 8.90 7.49L8.90 2.21ZM25.00 2.21L25.00 10.01L19.28 2.21L18.06 2.21L18.06 11.48L19.11 11.48L19.11 3.65L24.84 11.48L26.05 11.48L26.05 2.21ZM36.37 2.21L35.32 2.21L35.32 11.48L36.37 11.48ZM52.11 2.21L48.90 10.29L45.70 2.21L44.55 2.21L48.30 11.48L49.50 11.48L53.26 2.21ZM68.25 3.22L68.25 2.21L61.43 2.21L61.43 11.48L68.25 11.48L68.25 10.47L62.48 10.47L62.48 7.35L67.63 7.35L67.63 6.33L62.48 6.33L62.48 3.22ZM77.99 7.92L81.21 7.92L83.45 11.48L84.70 11.48L82.26 7.74C83.30 7.50 84.50 6.90 84.50 5.11C84.50 3.35 83.29 2.21 81.38 2.21L76.94 2.21L76.94 11.48L77.99 11.48ZM77.99 3.21L81.26 3.21C82.57 3.21 83.45 3.93 83.45 5.11C83.45 6.55 82.19 6.93 81.20 6.93L77.99 6.93ZM93.93 4.65C93.93 4.03 94.29 3.08 96.39 3.08C98.08 3.08 98.87 3.82 98.98 4.75L100.06 4.75C99.97 3.36 98.85 2.10 96.39 2.10C94.07 2.10 92.90 3.15 92.90 4.66C92.90 7.84 99.25 6.69 99.25 8.96C99.25 10.05 98.27 10.60 96.70 10.60C95.09 10.60 93.79 10.05 93.72 8.71L92.62 8.71C92.76 10.37 93.88 11.59 96.63 11.59C98.91 11.59 100.30 10.64 100.30 8.92C100.30 5.68 93.93 6.80 93.93 4.65ZM109.97 2.21L108.92 2.21L108.92 11.48L109.97 11.48ZM125.82 2.21L118.30 2.21L118.30 3.22L121.53 3.22L121.53 11.48L122.58 11.48L122.58 3.22L125.82 3.22ZM135.20 2.21L134.15 2.21L134.15 11.48L135.20 11.48ZM151.28 3.22L151.28 2.21L144.47 2.21L144.47 11.48L151.28 11.48L151.28 10.47L145.52 10.47L145.52 7.35L150.67 7.35L150.67 6.33L145.52 6.33L145.52 3.22ZM160.48 4.65C160.48 4.03 160.85 3.08 162.95 3.08C164.64 3.08 165.42 3.82 165.54 4.75L166.61 4.75C166.53 3.36 165.41 2.10 162.95 2.10C160.62 2.10 159.46 3.15 159.46 4.66C159.46 7.84 165.80 6.69 165.80 8.96C165.80 10.05 164.82 10.60 163.25 10.60C161.64 10.60 160.34 10.05 160.27 8.71L159.18 8.71C159.32 10.37 160.44 11.59 163.18 11.59C165.47 11.59 166.85 10.64 166.85 8.92C166.85 5.68 160.48 6.80 160.48 4.65Z"></path></g></svg>