<svg data-v-423bf9ae="" xmlns="http://www.w3.org/2000/svg" viewBox="0 0 214.23113282453346 60" class="font"><!----><!----><!----><g data-v-423bf9ae="" id="7d959781-cb07-4c17-8108-d1e28415ad98" fill="white" transform="matrix(5.459508757923784,0,0,5.459508757923784,-0.7643288696718287,-11.901728741479637)"><path d="M9.95 13.05L7.62 13.05L7.62 13.05Q7.46 12.54 7.27 12.01L7.27 12.01L7.27 12.01Q7.08 11.48 6.90 10.95L6.90 10.95L3.12 10.95L3.12 10.95Q2.94 11.48 2.75 12.01L2.75 12.01L2.75 12.01Q2.56 12.54 2.41 13.05L2.41 13.05L0.14 13.05L0.14 13.05Q0.69 11.48 1.18 10.15L1.18 10.15L1.18 10.15Q1.67 8.82 2.14 7.64L2.14 7.64L2.14 7.64Q2.60 6.47 3.06 5.41L3.06 5.41L3.06 5.41Q3.51 4.35 4.00 3.35L4.00 3.35L6.09 3.35L6.09 3.35Q6.57 4.35 7.03 5.41L7.03 5.41L7.03 5.41Q7.49 6.47 7.96 7.64L7.96 7.64L7.96 7.64Q8.43 8.82 8.92 10.15L8.92 10.15L8.92 10.15Q9.41 11.48 9.95 13.05L9.95 13.05ZM5.00 5.54L5.00 5.54L5.00 5.54Q4.93 5.75 4.79 6.12L4.79 6.12L4.79 6.12Q4.65 6.48 4.47 6.96L4.47 6.96L4.47 6.96Q4.28 7.43 4.07 8.01L4.07 8.01L4.07 8.01Q3.85 8.58 3.63 9.21L3.63 9.21L6.38 9.21L6.38 9.21Q6.16 8.58 5.95 8.01L5.95 8.01L5.95 8.01Q5.74 7.43 5.55 6.96L5.55 6.96L5.55 6.96Q5.36 6.48 5.22 6.12L5.22 6.12L5.22 6.12Q5.08 5.75 5.00 5.54ZM14.27 2.18L14.27 2.18L14.27 2.18Q14.85 2.18 15.34 2.30L15.34 2.30L15.34 2.30Q15.83 2.42 16.10 2.53L16.10 2.53L15.69 4.20L15.69 4.20Q15.41 4.07 15.09 4.01L15.09 4.01L15.09 4.01Q14.76 3.95 14.48 3.95L14.48 3.95L14.48 3.95Q14.10 3.95 13.84 4.05L13.84 4.05L13.84 4.05Q13.58 4.16 13.43 4.34L13.43 4.34L13.43 4.34Q13.29 4.52 13.22 4.77L13.22 4.77L13.22 4.77Q13.16 5.03 13.16 5.32L13.16 5.32L13.16 5.68L15.74 5.68L15.74 7.42L13.16 7.42L13.16 13.05L11.07 13.05L11.07 5.29L11.07 5.29Q11.07 3.86 11.88 3.02L11.88 3.02L11.88 3.02Q12.68 2.18 14.27 2.18ZM19.96 3.23L19.96 3.23L19.96 3.23Q22.15 3.23 23.31 4.01L23.31 4.01L23.31 4.01Q24.47 4.79 24.47 6.43L24.47 6.43L24.47 6.43Q24.47 7.45 24.00 8.09L24.00 8.09L24.00 8.09Q23.53 8.72 22.65 9.09L22.65 9.09L22.65 9.09Q22.95 9.45 23.27 9.92L23.27 9.92L23.27 9.92Q23.59 10.39 23.91 10.90L23.91 10.90L23.91 10.90Q24.22 11.41 24.51 11.96L24.51 11.96L24.51 11.96Q24.81 12.52 25.06 13.05L25.06 13.05L22.61 13.05L22.61 13.05Q22.34 12.57 22.07 12.08L22.07 12.08L22.07 12.08Q21.80 11.59 21.51 11.13L21.51 11.13L21.51 11.13Q21.22 10.67 20.94 10.25L20.94 10.25L20.94 10.25Q20.66 9.84 20.38 9.51L20.38 9.51L19.31 9.51L19.31 13.05L17.12 13.05L17.12 3.49L17.12 3.49Q17.84 3.35 18.60 3.29L18.60 3.29L18.60 3.29Q19.36 3.23 19.96 3.23ZM20.09 5.10L20.09 5.10L20.09 5.10Q19.85 5.10 19.66 5.11L19.66 5.11L19.66 5.11Q19.47 5.12 19.31 5.14L19.31 5.14L19.31 7.77L19.92 7.77L19.92 7.77Q21.15 7.77 21.69 7.46L21.69 7.46L21.69 7.46Q22.22 7.15 22.22 6.41L22.22 6.41L22.22 6.41Q22.22 5.70 21.68 5.40L21.68 5.40L21.68 5.40Q21.14 5.10 20.09 5.10ZM26.46 13.05L26.46 3.35L28.64 3.35L28.64 13.05L26.46 13.05ZM33.07 5.14L33.07 11.27L33.07 11.27Q33.22 11.28 33.42 11.29L33.42 11.29L33.42 11.29Q33.63 11.30 33.91 11.30L33.91 11.30L33.91 11.30Q35.55 11.30 36.34 10.47L36.34 10.47L36.34 10.47Q37.13 9.65 37.13 8.19L37.13 8.19L37.13 8.19Q37.13 6.66 36.37 5.88L36.37 5.88L36.37 5.88Q35.62 5.10 33.98 5.10L33.98 5.10L33.98 5.10Q33.75 5.10 33.52 5.10L33.52 5.10L33.52 5.10Q33.28 5.11 33.07 5.14L33.07 5.14ZM39.38 8.19L39.38 8.19L39.38 8.19Q39.38 9.45 38.99 10.39L38.99 10.39L38.99 10.39Q38.60 11.33 37.88 11.94L37.88 11.94L37.88 11.94Q37.16 12.56 36.12 12.87L36.12 12.87L36.12 12.87Q35.08 13.17 33.80 13.17L33.80 13.17L33.80 13.17Q33.21 13.17 32.42 13.13L32.42 13.13L32.42 13.13Q31.64 13.08 30.88 12.92L30.88 12.92L30.88 3.47L30.88 3.47Q31.64 3.33 32.46 3.28L32.46 3.28L32.46 3.28Q33.28 3.23 33.87 3.23L33.87 3.23L33.87 3.23Q35.11 3.23 36.13 3.51L36.13 3.51L36.13 3.51Q37.14 3.79 37.87 4.40L37.87 4.40L37.87 4.40Q38.60 5.00 38.99 5.94L38.99 5.94L38.99 5.94Q39.38 6.87 39.38 8.19Z"></path></g><!----><!----></svg>