<svg data-v-423bf9ae="" xmlns="http://www.w3.org/2000/svg" viewBox="0 0 325 112" class="iconLeftSlogan"><!----><!----><!----><g data-v-423bf9ae="" id="28c91750-9c54-445f-a84d-e5621b144178" fill="white" transform="matrix(5.9055118997155125,0,0,5.9055118997155125,126.42283525504399,-17.657480398050154)"><path d="M7.10 13.15L8.71 13.15L5.02 3.82L3.51 3.82L-0.17 13.15L1.43 13.15L2.32 10.75L6.21 10.73ZM2.76 9.57L4.27 5.45L5.78 9.57ZM11.90 4.20C12.09 4.20 12.34 4.27 12.56 4.43L13.17 3.40C12.70 3.12 12.31 2.99 11.75 2.99C10.57 2.99 9.74 3.81 9.74 5.40L9.74 6.53L8.87 6.53L8.87 7.67L9.74 7.67L9.74 13.15L11.14 13.15L11.14 7.67L12.53 7.67L12.53 6.53L11.14 6.53L11.14 5.29C11.14 4.65 11.33 4.20 11.90 4.20ZM18.99 13.15L20.80 13.15L17.72 9.07C18.94 8.79 20.02 7.95 20.02 6.52C20.02 4.86 18.61 3.82 16.87 3.82L13.90 3.82L13.90 13.15L15.39 13.15L15.39 9.17L16.14 9.17ZM15.39 5.00L16.46 5.00C17.79 5.00 18.48 5.57 18.48 6.53C18.48 7.50 17.79 8.01 16.58 8.01L15.39 8.01ZM23.33 3.82L21.85 3.82L21.85 13.15L23.33 13.15ZM28.45 3.82L25.68 3.82L25.68 13.15L28.45 13.15C31.70 13.15 33.48 11.10 33.48 8.47C33.48 5.86 31.70 3.82 28.45 3.82ZM28.22 11.94L27.17 11.94L27.17 5.03L28.22 5.03C30.73 5.03 31.94 6.39 31.94 8.47C31.94 10.57 30.73 11.94 28.22 11.94Z"></path></g><!----><g data-v-423bf9ae="" id="e513660b-2b83-41c9-bd59-e2723a53e0f7" transform="matrix(1.1111111958821616,0,0,1.1111111958821616,-1.994225873014635,0.4444359673390821)" stroke="none" fill="white"><circle cx="95.352" cy="37.391" r="2.088"></circle><circle cx="90.311" cy="37.391" r="2.088"></circle><path d="M90.311 44.521a2.088 2.088 0 1 1 2.09-2.085 2.09 2.09 0 0 1-2.09 2.085z"></path><circle cx="90.311" cy="47.478" r="2.088"></circle><circle cx="90.311" cy="67.651" r="2.09"></circle><circle cx="85.273" cy="37.391" r="2.088"></circle><circle cx="85.273" cy="42.433" r="2.088"></circle><circle cx="85.273" cy="47.478" r="2.088"></circle><circle cx="80.232" cy="32.347" r="2.088"></circle><circle cx="80.232" cy="37.391" r="2.088"></circle><circle cx="80.232" cy="42.433" r="2.088"></circle><circle cx="80.232" cy="47.478" r="2.088"></circle><circle cx="80.232" cy="52.521" r="2.087"></circle><path d="M75.193 24.35a2.092 2.092 0 0 1-2.088-2.088 2.09 2.09 0 0 1 2.088-2.089 2.09 2.09 0 0 1 2.09 2.089 2.09 2.09 0 0 1-2.09 2.088z"></path><circle cx="75.193" cy="27.302" r="2.088"></circle><circle cx="75.193" cy="32.347" r="2.088"></circle><circle cx="75.193" cy="37.391" r="2.088"></circle><circle cx="75.193" cy="42.433" r="2.088"></circle><circle cx="75.193" cy="47.478" r="2.088"></circle><circle cx="75.193" cy="52.521" r="2.087"></circle><circle cx="75.193" cy="57.563" r="2.088"></circle><circle cx="75.193" cy="62.606" r="2.087"></circle><circle cx="75.193" cy="67.651" r="2.09"></circle><circle cx="70.154" cy="12.173" r="2.089"></circle><circle cx="70.154" cy="17.217" r="2.088"></circle><path d="M70.154 24.35a2.09 2.09 0 1 1 2.089-2.088c0 1.15-.932 2.088-2.089 2.088z"></path><circle cx="70.154" cy="27.302" r="2.088"></circle><circle cx="70.154" cy="32.347" r="2.088"></circle><circle cx="70.154" cy="37.391" r="2.088"></circle><path d="M70.154 44.521a2.088 2.088 0 1 1 2.089-2.085 2.085 2.085 0 0 1-2.089 2.085z"></path><circle cx="70.154" cy="47.478" r="2.088"></circle><circle cx="70.154" cy="52.521" r="2.087"></circle><circle cx="70.154" cy="57.563" r="2.088"></circle><circle cx="70.154" cy="62.606" r="2.087"></circle><circle cx="70.154" cy="67.651" r="2.09"></circle><g><circle cx="65.117" cy="12.173" r="2.089"></circle><circle cx="65.117" cy="17.217" r="2.088"></circle><path d="M65.117 24.35a2.088 2.088 0 1 1 0-4.177 2.088 2.088 0 0 1 0 4.177z"></path><circle cx="65.117" cy="27.302" r="2.088"></circle><circle cx="65.117" cy="32.347" r="2.088"></circle><circle cx="65.117" cy="37.391" r="2.088"></circle><path d="M65.117 44.521a2.086 2.086 0 1 1 0-4.175 2.087 2.087 0 1 1 0 4.175z"></path><circle cx="65.117" cy="47.478" r="2.088"></circle><circle cx="65.117" cy="52.521" r="2.087"></circle><circle cx="65.117" cy="57.563" r="2.088"></circle><circle cx="65.117" cy="62.606" r="2.087"></circle><circle cx="65.117" cy="67.651" r="2.09"></circle></g><g><circle cx="60.079" cy="7.13" r="2.088"></circle><circle cx="60.079" cy="12.173" r="2.089"></circle><circle cx="60.079" cy="17.217" r="2.088"></circle><path d="M60.079 24.35a2.09 2.09 0 0 1 0-4.177 2.089 2.089 0 0 1 0 4.177z"></path><circle cx="60.079" cy="27.302" r="2.088"></circle><circle cx="60.079" cy="32.347" r="2.088"></circle><circle cx="60.079" cy="37.391" r="2.088"></circle><circle cx="60.079" cy="42.433" r="2.088"></circle><circle cx="60.079" cy="47.478" r="2.088"></circle><circle cx="60.079" cy="52.521" r="2.087"></circle><circle cx="60.079" cy="57.563" r="2.088"></circle><circle cx="60.079" cy="62.606" r="2.087"></circle><circle cx="60.079" cy="67.651" r="2.09"></circle></g><g><circle cx="55.039" cy="7.13" r="2.088"></circle><circle cx="55.039" cy="12.173" r="2.089"></circle><circle cx="55.039" cy="17.217" r="2.088"></circle><path d="M55.039 24.35a2.092 2.092 0 0 1-2.089-2.088 2.09 2.09 0 0 1 2.089-2.089 2.09 2.09 0 0 1 2.088 2.089c0 1.15-.938 2.088-2.088 2.088z"></path><circle cx="55.039" cy="27.302" r="2.088"></circle><circle cx="55.039" cy="32.347" r="2.088"></circle><circle cx="55.039" cy="37.391" r="2.088"></circle><circle cx="55.039" cy="42.433" r="2.088"></circle><circle cx="55.039" cy="47.478" r="2.088"></circle><circle cx="55.039" cy="52.521" r="2.087"></circle><circle cx="55.039" cy="57.563" r="2.088"></circle><circle cx="55.039" cy="62.606" r="2.087"></circle><circle cx="55.039" cy="67.651" r="2.09"></circle></g><g><circle cx="50.001" cy="7.13" r="2.088"></circle><circle cx="50.001" cy="12.173" r="2.089"></circle><circle cx="50.001" cy="17.217" r="2.088"></circle><path d="M50.001 24.35a2.09 2.09 0 1 1 2.088-2.088 2.09 2.09 0 0 1-2.088 2.088z"></path><circle cx="50.001" cy="27.302" r="2.088"></circle><circle cx="50.001" cy="32.347" r="2.088"></circle><circle cx="50.001" cy="37.391" r="2.088"></circle><circle cx="50.001" cy="42.433" r="2.088"></circle><circle cx="50.001" cy="47.478" r="2.088"></circle><circle cx="50.001" cy="52.521" r="2.087"></circle><circle cx="50.001" cy="57.563" r="2.088"></circle><circle cx="50.001" cy="62.606" r="2.087"></circle><circle cx="50.001" cy="67.651" r="2.09"></circle></g><g><circle cx="90.311" cy="72.694" r="2.087"></circle><circle cx="90.311" cy="77.737" r="2.09"></circle><circle cx="90.311" cy="82.78" r="2.087"></circle></g><g><circle cx="85.273" cy="72.694" r="2.087"></circle><circle cx="85.273" cy="77.737" r="2.09"></circle><circle cx="85.273" cy="82.78" r="2.087"></circle><circle cx="85.273" cy="87.826" r="2.088"></circle></g><g><circle cx="75.193" cy="72.694" r="2.087"></circle><circle cx="75.193" cy="77.737" r="2.09"></circle></g><g><circle cx="70.154" cy="72.694" r="2.087"></circle><circle cx="70.154" cy="77.737" r="2.09"></circle><circle cx="70.154" cy="82.78" r="2.087"></circle><circle cx="70.154" cy="87.826" r="2.088"></circle></g><g><circle cx="65.117" cy="72.694" r="2.087"></circle><circle cx="65.117" cy="77.737" r="2.09"></circle><circle cx="65.117" cy="82.78" r="2.087"></circle><circle cx="65.117" cy="87.826" r="2.088"></circle><circle cx="65.117" cy="92.867" r="2.087"></circle></g><g><circle cx="60.079" cy="72.694" r="2.087"></circle><circle cx="60.079" cy="77.737" r="2.09"></circle><circle cx="60.079" cy="82.78" r="2.087"></circle><circle cx="60.079" cy="87.826" r="2.088"></circle><circle cx="60.079" cy="92.867" r="2.087"></circle><circle cx="60.079" cy="97.912" r="2.088"></circle></g><g><circle cx="55.039" cy="72.694" r="2.087"></circle><circle cx="55.039" cy="77.737" r="2.09"></circle><circle cx="55.039" cy="82.78" r="2.087"></circle><circle cx="55.039" cy="87.826" r="2.088"></circle><circle cx="55.039" cy="92.867" r="2.087"></circle><circle cx="55.039" cy="97.912" r="2.088"></circle></g><g><circle cx="50.001" cy="72.694" r="2.087"></circle><circle cx="50.001" cy="77.737" r="2.09"></circle><circle cx="50.001" cy="82.78" r="2.087"></circle><circle cx="50.001" cy="87.826" r="2.088"></circle><circle cx="50.001" cy="92.867" r="2.087"></circle><circle cx="50.001" cy="97.912" r="2.088"></circle></g><g><circle cx="44.961" cy="7.13" r="2.088"></circle><circle cx="44.961" cy="12.173" r="2.089"></circle><circle cx="44.961" cy="17.217" r="2.088"></circle><path d="M44.961 24.35a2.089 2.089 0 1 1 .003-4.177 2.089 2.089 0 0 1-.003 4.177z"></path><circle cx="44.961" cy="27.302" r="2.088"></circle><circle cx="44.961" cy="32.347" r="2.088"></circle><circle cx="44.961" cy="37.391" r="2.088"></circle><circle cx="44.961" cy="42.433" r="2.088"></circle><circle cx="44.961" cy="47.478" r="2.088"></circle><circle cx="44.961" cy="52.521" r="2.087"></circle><circle cx="44.961" cy="57.563" r="2.088"></circle><circle cx="44.961" cy="62.606" r="2.087"></circle><circle cx="44.961" cy="67.651" r="2.09"></circle></g><g><circle cx="39.923" cy="2.088" r="2.088"></circle><circle cx="39.923" cy="7.13" r="2.088"></circle><circle cx="39.923" cy="12.173" r="2.089"></circle><circle cx="39.923" cy="17.217" r="2.088"></circle><path d="M39.923 24.35a2.09 2.09 0 0 1 0-4.177 2.088 2.088 0 0 1 0 4.177z"></path><circle cx="39.923" cy="27.302" r="2.088"></circle><circle cx="39.923" cy="32.347" r="2.088"></circle><circle cx="39.923" cy="37.391" r="2.088"></circle><circle cx="39.923" cy="42.433" r="2.088"></circle><circle cx="39.923" cy="47.478" r="2.088"></circle><circle cx="39.923" cy="52.521" r="2.087"></circle><circle cx="39.923" cy="57.563" r="2.088"></circle></g><g><circle cx="34.882" cy="2.088" r="2.088"></circle><circle cx="34.882" cy="7.13" r="2.088"></circle><circle cx="34.882" cy="12.173" r="2.089"></circle><circle cx="34.882" cy="17.217" r="2.088"></circle><path d="M34.882 24.35a2.09 2.09 0 0 1 0-4.177 2.09 2.09 0 0 1 2.089 2.089c0 1.15-.936 2.088-2.089 2.088z"></path><circle cx="34.882" cy="27.302" r="2.088"></circle><circle cx="34.882" cy="32.347" r="2.088"></circle><circle cx="34.882" cy="37.391" r="2.088"></circle><path d="M34.882 44.521a2.087 2.087 0 1 1 0-4.175 2.087 2.087 0 0 1 0 4.175z"></path><circle cx="34.882" cy="47.478" r="2.088"></circle></g><g><path d="M29.845 4.176a2.088 2.088 0 1 1 0 0z"></path><circle cx="29.845" cy="7.13" r="2.088"></circle><circle cx="29.845" cy="12.173" r="2.089"></circle><circle cx="29.845" cy="17.217" r="2.088"></circle><path d="M29.845 24.35a2.089 2.089 0 0 1 0-4.177c1.152 0 2.085.935 2.085 2.089a2.087 2.087 0 0 1-2.085 2.088z"></path><circle cx="29.845" cy="27.302" r="2.088"></circle><circle cx="29.845" cy="32.347" r="2.088"></circle><circle cx="29.845" cy="37.391" r="2.088"></circle><circle cx="29.845" cy="42.433" r="2.088"></circle></g><g><circle cx="24.805" cy="2.088" r="2.088"></circle><circle cx="24.805" cy="7.13" r="2.088"></circle><circle cx="24.805" cy="12.173" r="2.089"></circle><circle cx="24.805" cy="17.217" r="2.088"></circle><path d="M24.805 24.35a2.089 2.089 0 1 1 .003-4.177 2.089 2.089 0 0 1-.003 4.177z"></path><circle cx="24.805" cy="27.302" r="2.088"></circle><circle cx="24.805" cy="32.347" r="2.088"></circle><circle cx="24.805" cy="37.391" r="2.088"></circle><circle cx="24.805" cy="42.433" r="2.088"></circle></g><g><circle cx="19.767" cy="2.088" r="2.088"></circle><circle cx="19.767" cy="7.13" r="2.088"></circle><circle cx="19.767" cy="12.173" r="2.089"></circle><circle cx="19.767" cy="17.217" r="2.088"></circle><path d="M19.767 24.35a2.09 2.09 0 1 1 2.088-2.088 2.09 2.09 0 0 1-2.088 2.088z"></path><circle cx="19.767" cy="27.302" r="2.088"></circle><circle cx="19.767" cy="32.347" r="2.088"></circle><circle cx="19.767" cy="37.391" r="2.088"></circle><circle cx="19.767" cy="42.433" r="2.088"></circle><circle cx="19.767" cy="47.478" r="2.088"></circle></g><g><path d="M14.728 9.217a2.087 2.087 0 1 1-.001-4.175 2.087 2.087 0 0 1 .001 4.175zM14.728 14.262a2.088 2.088 0 1 1 0-4.176 2.088 2.088 0 0 1 0 4.176zM14.728 19.305a2.088 2.088 0 1 1 0-4.175 2.088 2.088 0 0 1 0 4.175zM14.728 24.35a2.09 2.09 0 0 1 0-4.177 2.09 2.09 0 0 1 0 4.177zM14.728 29.39a2.089 2.089 0 1 1 2.087-2.085 2.087 2.087 0 0 1-2.087 2.085zM14.728 34.435a2.088 2.088 0 1 1 0-4.176 2.088 2.088 0 0 1 0 4.176zM14.728 39.479a2.089 2.089 0 0 1 0-4.176 2.088 2.088 0 0 1 0 4.176zM14.728 44.521a2.089 2.089 0 1 1 2.087-2.085 2.087 2.087 0 0 1-2.087 2.085zM14.728 49.566a2.089 2.089 0 0 1 0-4.176 2.088 2.088 0 0 1 0 4.176z"></path></g><g><circle cx="9.688" cy="17.217" r="2.088"></circle><path d="M9.688 24.35a2.088 2.088 0 1 1 2.09-2.088c0 1.15-.937 2.088-2.09 2.088zM9.688 29.39a2.084 2.084 0 0 1-2.085-2.085 2.087 2.087 0 1 1 4.175 0 2.088 2.088 0 0 1-2.09 2.085z"></path><circle cx="9.688" cy="32.347" r="2.088"></circle><circle cx="9.688" cy="37.391" r="2.088"></circle><path d="M9.688 44.521a2.084 2.084 0 0 1-2.085-2.085 2.087 2.087 0 1 1 4.175 0 2.088 2.088 0 0 1-2.09 2.085z"></path></g><g><path d="M4.651 24.35a2.089 2.089 0 1 1 .002-4.178 2.089 2.089 0 0 1-.002 4.178z"></path><circle cx="4.651" cy="27.302" r="2.088"></circle><circle cx="4.651" cy="32.347" r="2.088"></circle><circle cx="4.651" cy="37.391" r="2.088"></circle></g><g><circle cx="44.961" cy="72.694" r="2.087"></circle><circle cx="44.961" cy="77.737" r="2.09"></circle><circle cx="44.961" cy="82.78" r="2.087"></circle><circle cx="44.961" cy="87.826" r="2.088"></circle></g></g><!----><g data-v-423bf9ae="" id="8188e491-2c37-4dc7-8540-a143fc0d3464" fill="white" transform="matrix(1.4481359104242137,0,0,1.4481359104242137,123.78249456633849,56.95891512164157)"><path d="M8.08 2.21L8.08 10.01L2.35 2.21L1.13 2.21L1.13 11.48L2.18 11.48L2.18 3.65L7.91 11.48L9.13 11.48L9.13 2.21ZM25.21 3.22L25.21 2.21L18.40 2.21L18.40 11.48L25.21 11.48L25.21 10.47L19.45 10.47L19.45 7.35L24.60 7.35L24.60 6.33L19.45 6.33L19.45 3.22ZM40.49 2.21L32.97 2.21L32.97 3.22L36.20 3.22L36.20 11.48L37.25 11.48L37.25 3.22L40.49 3.22ZM54.39 3.70L56.90 11.48L58.09 11.48L60.97 2.21L59.86 2.21L57.48 10.00L54.99 2.21L53.79 2.21L51.30 10.00L48.92 2.21L47.81 2.21L50.69 11.48L51.88 11.48ZM73.25 2.10C70.43 2.10 68.54 4.21 68.54 6.85C68.54 9.48 70.43 11.59 73.25 11.59C76.06 11.59 77.95 9.48 77.95 6.85C77.95 4.21 76.06 2.10 73.25 2.10ZM73.25 10.57C70.99 10.57 69.59 8.93 69.59 6.85C69.59 4.76 70.99 3.12 73.25 3.12C75.50 3.12 76.90 4.76 76.90 6.85C76.90 8.93 75.50 10.57 73.25 10.57ZM87.68 7.92L90.90 7.92L93.14 11.48L94.39 11.48L91.95 7.74C92.99 7.50 94.19 6.90 94.19 5.11C94.19 3.35 92.97 2.21 91.07 2.21L86.63 2.21L86.63 11.48L87.68 11.48ZM87.68 3.21L90.94 3.21C92.26 3.21 93.14 3.93 93.14 5.11C93.14 6.55 91.88 6.93 90.89 6.93L87.68 6.93ZM110.68 2.21L109.20 2.21L104.05 7.04L104.05 2.21L103.00 2.21L103.00 11.48L104.05 11.48L104.05 8.44L105.97 6.65L109.59 11.48L110.91 11.48L106.74 5.94Z"></path></g></svg>