<svg data-v-423bf9ae="" xmlns="http://www.w3.org/2000/svg" viewBox="0 0 198.72046190878294 60" class="font"><!----><!----><!----><g data-v-423bf9ae="" id="044ae2da-0688-4051-8b84-a022ba197df7" fill="black" transform="matrix(5.9055118997155125,0,0,5.9055118997155125,1.0039357189111797,-17.657480398050154)"><path d="M7.10 13.15L8.71 13.15L5.02 3.82L3.51 3.82L-0.17 13.15L1.43 13.15L2.32 10.75L6.21 10.73ZM2.76 9.57L4.27 5.45L5.78 9.57ZM11.90 4.20C12.09 4.20 12.34 4.27 12.56 4.43L13.17 3.40C12.70 3.12 12.31 2.99 11.75 2.99C10.57 2.99 9.74 3.81 9.74 5.40L9.74 6.53L8.87 6.53L8.87 7.67L9.74 7.67L9.74 13.15L11.14 13.15L11.14 7.67L12.53 7.67L12.53 6.53L11.14 6.53L11.14 5.29C11.14 4.65 11.33 4.20 11.90 4.20ZM18.99 13.15L20.80 13.15L17.72 9.07C18.94 8.79 20.02 7.95 20.02 6.52C20.02 4.86 18.61 3.82 16.87 3.82L13.90 3.82L13.90 13.15L15.39 13.15L15.39 9.17L16.14 9.17ZM15.39 5.00L16.46 5.00C17.79 5.00 18.48 5.57 18.48 6.53C18.48 7.50 17.79 8.01 16.58 8.01L15.39 8.01ZM23.33 3.82L21.85 3.82L21.85 13.15L23.33 13.15ZM28.45 3.82L25.68 3.82L25.68 13.15L28.45 13.15C31.70 13.15 33.48 11.10 33.48 8.47C33.48 5.86 31.70 3.82 28.45 3.82ZM28.22 11.94L27.17 11.94L27.17 5.03L28.22 5.03C30.73 5.03 31.94 6.39 31.94 8.47C31.94 10.57 30.73 11.94 28.22 11.94Z"></path></g><!----><!----></svg>